<?xml version="1.0" encoding="UTF-8"?> <svg xmlns="http://www.w3.org/2000/svg" xmlns:xlink="http://www.w3.org/1999/xlink" width="64px" height="64px" viewBox="0 0 64 64"><!-- Generator: Sketch 56 (81588) - https://sketch.com --><title>sprout</title><desc>Created with Sketch.</desc><g id="Page-1" stroke="none" stroke-width="1" fill="none" fill-rule="evenodd"><g id="general" transform="translate(-996.000000, -498.000000)" fill-rule="nonzero"><g id="sprout" transform="translate(996.000000, 498.000000)"><circle id="Oval" fill="#001730" cx="32" cy="32" r="32"></circle><path d="M13.3105,57.982875 C13.584,57.9145 13.88025,57.868875 14.176625,57.868875 C15.225,57.868875 16.1595,58.37025 16.729375,59.168 C17.139625,57.70925 18.461625,56.638125 20.057,56.638125 C20.35325,56.638125 20.649625,56.68375 20.923125,56.752125 C21.151,55.111125 22.564125,53.83475 24.2735,53.83475 C25.458625,53.83475 26.529875,54.450125 27.1225,55.384625 C27.80625,54.7465 28.718,54.359 29.72075,54.359 C30.92875,54.359 31.977125,54.92875 32.660875,55.794875 C33.27625,54.22225 34.803375,53.082625 36.603875,53.082625 C38.791875,53.082625 40.5925,54.7465 40.797625,56.866125 C40.98,56.8205 41.185125,56.8205 41.39025,56.8205 C42.393125,56.8205 43.30475,57.321875 43.829,58.096875 C44.421625,57.641 45.17375,57.3675 45.9715,57.3675 C47.270625,57.3675 48.3875,58.05125 49.025625,59.09975 C46.54125,60.672375 43.80625,61.903125 40.911625,62.7465 C39.90875,62.587 39.0655,61.926 38.65525,61.01425 C38.039875,61.356125 37.356125,61.5385 36.604,61.5385 C35.168125,61.5385 33.89175,60.809125 33.116875,59.692375 C32.52425,60.96875 31.225125,61.857625 29.698125,61.857625 C28.26225,61.857625 27.008625,61.037125 26.3705,59.851875 C25.80075,60.30775 25.0485,60.58125 24.250875,60.58125 C23.977375,60.58125 23.703875,60.5585 23.453125,60.490125 C23.362,61.287875 22.9745,62.01725 22.4275,62.541375 C19.122625,61.51575 16.04575,59.943125 13.287875,57.983 L13.3105,57.983 L13.3105,57.982875 Z M35.396,63.817625 C34.27925,63.931625 33.139625,64 32,64 L31.97725,64 C32.228,63.2935 32.9345,62.76925 33.73225,62.76925 C34.4615,62.76925 35.09975,63.20225 35.396,63.817625 Z M28.057,63.74925 C27.464375,63.680875 26.871875,63.58975 26.27925,63.47575 C26.302,62.997125 26.71225,62.6325 27.168125,62.6325 C27.6695,62.6325 28.07975,63.04275 28.07975,63.544125 C28.07975,63.6125 28.07975,63.680875 28.057,63.74925 Z" id="Shape" fill="#F65840"></path><g id="Group" transform="translate(15.125000, 1.875000)" fill="#40D8D2"><path d="M43.625,0.194318076 C4.16855396,-2.97736577 14.8631018,33.8906155 33.2816297,22.396551 C41.7346252,17.1373215 38.8718841,3.63718513 43.625,0.194318076 Z" id="Path"></path><path d="M0.125,18.8989919 C25.6007461,15.2982312 20.0683835,37.4169777 8.67996645,31.298461 C3.0935812,28.293249 3.47144369,20.5773968 0.125,18.8989919 Z" id="Path"></path></g><path d="M35.875,41.8481204 L35.2479945,41.875 C32.9582435,26.3636785 22.0272091,25.1518796 22,25.125 C29.8779334,26.3367989 35.2753531,32.0457675 35.875,41.821093 L35.875,41.8481204 Z" id="Path" fill="#F3F3F3"></path><path d="M56.375,31.1489919 C30.8992539,27.5482312 36.4316165,49.6669777 47.8200335,43.548461 C53.4064188,40.5433975 53.0287043,32.8275453 56.375,31.1489919 Z" id="Path" fill="#40D8D2"></path><g id="Group" transform="translate(34.500000, 3.750000)" fill="#F3F3F3"><path d="M0.75,45.8916173 L1.36846987,46 C5.72430275,30.1144295 17.0711751,30.25 17.125,30.25 C8.89716821,30.4939919 2.63210085,35.7530049 0.75,45.8916173 Z" id="Path"></path><path d="M19.875,0 C-1.38846089,3.59419471 2.50942747,38.3466236 2.91264713,53.9393017 L0.35887346,54.75 C-0.286278,40.1842558 -2.35618808,2.32405127 19.875,0 Z" id="Path"></path></g><path d="M17.276375,60.376 C17.663875,58.962875 18.963,57.9145 20.49,57.9145 C20.78625,57.9145 21.05975,57.960125 21.33325,58.0285 C21.561125,56.433 22.92875,55.20225 24.56975,55.20225 C25.732125,55.20225 26.75775,55.794875 27.327625,56.7065 C27.988625,56.091125 28.85475,55.703625 29.83475,55.703625 C30.997125,55.703625 32.02275,56.250625 32.68375,57.093875 C33.276375,55.56675 34.757875,54.47275 36.51275,54.47275 C38.632375,54.47275 40.364625,56.06825 40.5925,58.14225 C40.774875,58.096625 40.957125,58.096625 41.16225,58.096625 C42.14225,58.096625 43.008375,58.57525 43.532625,59.327375 C44.102375,58.894375 44.83175,58.620875 45.60675,58.620875 C46.564,58.620875 47.430125,59.008375 48.06825,59.6465 C43.35025,62.3815 37.857375,63.95425 31.999875,63.95425 C25.777625,63.95425 19.96575,62.1765 15.065375,59.0995 L15.065375,59.14525 C15.977125,59.236375 16.752125,59.69225 17.276375,60.376 Z" id="Path" fill="#F65840"></path></g></g></g></svg> 