<?xml version="1.0" encoding="UTF-8"?> <svg xmlns="http://www.w3.org/2000/svg" xmlns:xlink="http://www.w3.org/1999/xlink" width="64px" height="64px" viewBox="0 0 64 64"><!-- Generator: Sketch 56 (81588) - https://sketch.com --><title>transaction</title><desc>Created with Sketch.</desc><g id="Page-1" stroke="none" stroke-width="1" fill="none" fill-rule="evenodd"><g id="general" transform="translate(-1897.000000, -498.000000)" fill-rule="nonzero"><g id="transaction" transform="translate(1897.000000, 498.000000)"><circle id="Oval" fill="#001730" cx="32" cy="32" r="32"></circle><path d="M32.567375,45.439125 L39.077875,41.511875 C40.586,40.601 41.392375,42.348125 40.4815,42.85575 L35.389625,45.663 L32.567375,45.439125 Z" id="Path" fill="#FEC982"></path><g id="Group" transform="translate(0.125000, 36.375000)" fill="#FFD190"><path d="M37.2965,7.53836306 L44.8027334,2.9166182 C46.5669473,1.82539528 47.4972547,4.03994777 46.5349928,4.60161255 L41.3865493,7.6185625 L37.2966343,7.55434921 L37.2966343,7.53836306 L37.2965,7.53836306 Z" id="Path"></path><path d="M19.1165204,9.21313961 L4.78982992,12.4935625 C2.6279757,9.19690659 0.998380336,5.51255204 0.0465,1.56955137 L17.9388251,0.389951881 C20.8106729,-0.0139797783 23.4565707,0.00211796703 24.634266,0.648462732 C26.7154913,1.81196448 26.4896763,4.3490503 31.249078,5.67420587 L38.0413547,6.85380536 L48.9477316,4.17129873 C50.948328,3.81579558 51.3516076,6.06203979 50.0287262,6.59529451 L35.37925,11.7987892 C33.4110673,12.4935625 28.6677374,10.8936631 19.1165204,9.21313961 Z" id="Path"></path></g><path d="M40.3069869,42.625 C41.0465529,43.4508029 39.5674209,43.905961 37.4612393,44.3779089 C35.9499406,44.7149742 33.9241085,45.1194808 32.9433592,45.372315 C31.0461942,45.4397563 26.1746145,44.2262366 22.75,42.9115549 C24.502482,42.8778343 31.833943,45.1699912 32.9915421,44.9340878 C34.1491412,44.6981844 39.6959533,43.1643891 40.0658036,42.9452755 C40.4355193,42.7260208 40.2586695,42.7597415 40.3069869,42.625 Z" id="Path" fill="#F0B97D"></path><path d="M11.8294663,35.75 L13.75,50.0190515 L6.76199167,51.25 C3.45361027,47.0713642 1.09738993,42.0990317 0,36.6731775 L11.8294663,35.75 Z" id="Path" fill="#F65840"></path><polygon id="Path" fill="#40D8D2" points="14.3587471 35.875 16.25 49.2841751 13.6413894 49.625 11.75 36.1996533"></polygon><path d="M23.0016832,36.468337 C26.5655665,35.8998111 28.9362239,38.0115563 30.7262653,40.5455146 L33.9676442,41.3090336 C33.9676442,41.3090336 36.999375,40.6430112 38.6282316,41.1465394 C40.2408888,41.6500675 40.7407775,42.965795 40.1118331,43.3231463 C39.4828887,43.6804977 34.1772923,44.6226923 33.0161954,44.8500482 C31.8390339,45.0774042 25.2270853,43.6966791 22.7597711,42.9169787 C20.2924569,42.1534597 18.8411194,37.3615794 23.0016832,36.4518836 L23.0016832,36.468337 Z" id="Path" fill="#FFD190"></path><path d="M46.8674521,43.5 L48.6546563,42.9006594 C48.8717998,42.8321388 48.6880737,42.25 48.4040953,42.25 C48.1201169,42.25 46.5,42.6609805 46.5,42.6609805 C46.7005047,42.8836009 46.9176482,43.2090023 46.8674521,43.5 Z" id="Path" fill="#F3F3F3"></path><path d="M37.6930935,43.75 L39.9244939,43.2932098 C40.1049728,43.2627486 39.9573207,42.455846 39.5307093,42.2883732 C39.1040978,42.1360674 37.25,42.4863072 37.25,42.4863072 C37.3976521,42.7756246 37.6437846,43.2932098 37.6766114,43.7348331 L37.6930935,43.75 Z" id="Path" fill="#F3F3F3"></path><path d="M30.4076869,22.5318506 L35.1818458,22.1630913 C35.8592201,22.1150506 37.6657316,20.992938 37.6657316,20.992938 L35.9399596,18.1074097 L31.4883534,17.5784253 L28.0528762,20.7203943 L26.7302614,23.4134913 C25.9400138,24.8241165 23.3432548,24.551707 23.9722935,22.7562195 L25.4723191,18.251666 C25.4723191,18.251666 29.2303491,14.2280563 30.6173664,13.667 C32.0043838,13.1059437 41.7623812,12.625 41.7623812,12.625 C41.7623812,12.625 49.7461359,16.9532253 52.7137833,18.8288254 L62.1330261,18.7005379 C63.0200799,21.2653475 63.6168498,23.9584446 63.875,26.7477573 L52.0041402,26.4752136 C52.0041402,26.4752136 44.4558115,27.9340136 41.8913213,27.5652543 C39.3107642,27.196495 35.7462119,26.0904854 35.7462119,26.0904854 C35.7462119,26.0904854 31.2462701,26.170598 29.9721259,25.5935728 C28.1657494,24.9683728 28.3108914,22.6920757 30.4237538,22.5317164 L30.4076869,22.5317164 L30.4076869,22.5318506 Z" id="Path" fill="#FFD190"></path><path d="M26.98275,24.8325 C27.057375,24.862375 27.460625,25.026625 27.460625,25.026625 L27.0575,26.251125 C27.0575,26.251125 26.579625,26.475125 26.654375,25.9525 C26.729,25.429875 26.982875,24.817625 26.982875,24.817625 L26.982875,24.8325 L26.98275,24.8325 Z" id="Path" fill="#FFFFFF"></path><path d="M31.9629649,22.4820402 C31.9144221,22.2714623 31.8657438,22.0608844 31.8009297,21.8503065 C31.4931307,20.8946381 30.9748895,20.0361909 30.3107488,19.3233718 C29.0959598,18.0437688 27.3950654,17.25 25.5,17.25 C21.8392261,17.25 18.875,20.2142261 18.875,23.875 C18.875,27.5357739 21.8392261,30.5 25.5,30.5 C27.7676784,30.5 29.7762362,29.3661608 30.9587538,27.6167236 C31.4123166,26.9688543 31.7362513,26.2398995 31.9306934,25.4462663 C31.9792362,25.2518241 32.0116432,25.0575176 32.0440502,24.8630754 C32.092593,24.5391407 32.125,24.1989347 32.125,23.8588643 C32.125,23.3728945 32.0764573,22.9031959 31.9792362,22.4496331 L31.9792362,22.4496331 L31.9629649,22.4820402 Z" id="Path" fill="#FFE356"></path><path d="M31.6217198,22.5448845 C31.5736315,22.3525108 31.5254089,22.1443071 31.4612016,21.9519334 C31.1724032,21.0544576 30.690983,20.2531687 30.049179,19.5801289 C28.9098358,18.3782626 27.2892067,17.625 25.5080595,17.625 C22.0580606,17.625 19.25,20.4294442 19.25,23.875 C19.25,27.3205558 22.0580606,30.125 25.5080595,30.125 C27.6422124,30.125 29.5356552,29.0512487 30.6588794,27.4166085 C31.0760923,26.8076933 31.3969943,26.1185553 31.5734972,25.3652928 C31.6215855,25.1890173 31.6536891,24.9966435 31.6857927,24.8044039 C31.733881,24.4998793 31.75,24.1793905 31.75,23.8589018 C31.75,23.3941998 31.7019117,22.961426 31.6056008,22.5287863 L31.6056008,22.5287863 L31.6217198,22.5448845 Z" id="Path" fill="#FCD34E"></path><g id="Group" transform="translate(20.500000, 18.875000)" fill="#FFE356"><path d="M4.984,0.1185625 C2.26434342,0.1185625 0.0465,2.32014408 0.0465,5.0560625 C0.0465,7.77571908 2.26434342,9.9935625 4.984,9.9935625 C7.70365658,9.9935625 9.9215,7.77571908 9.9215,5.0560625 C9.9215,2.33640592 7.71991842,0.1185625 4.984,0.1185625 L4.984,0.1185625 Z M4.984,0.733801968 C7.36364869,0.733801968 9.30626053,2.67641381 9.30626053,5.0560625 C9.30626053,7.43571119 7.36364869,9.37832303 4.984,9.37832303 C2.60435131,9.37832303 0.661739468,7.43571119 0.661739468,5.0560625 C0.661739468,2.67641381 2.60435131,0.733801968 4.984,0.733801968 Z" id="Shape"></path></g><path d="M30.4394545,22.5639057 C32.5343879,22.400942 34.4854109,22.2217502 35.1731017,22.1891574 C35.844728,22.1403365 37.6359102,21 37.6359102,21 C37.6359102,21 42.289503,22.9548821 41.9857517,24.9261287 C41.6820004,26.8973754 41.266066,26.9624245 40.73835,27.5 C38.3715264,27.0276099 35.7168821,26.1966998 35.7168821,26.1966998 C35.7168821,26.1966998 31.2551251,26.2781135 29.9917928,25.691717 C28.2007446,25.0563633 28.344655,22.7430975 30.4395884,22.5801339 L30.4395884,22.5639057 L30.4394545,22.5639057 Z" id="Path" fill="#FFD190"></path><polygon id="Path" fill="#40D8D2" points="53.25 16.9600808 54.0217101 29.5 57.25 29.2899192 56.4782899 16.75"></polygon><path d="M56.0158437,15.5427561 L56.9701932,30.625 L64,30.51246 C64,30.3196495 64,30.1269735 64,29.934163 C64,24.633757 62.8071962,19.6224323 60.6918635,15.125 L56,15.5264868 L56.0158437,15.5427561 Z" id="Path" fill="#F65840"></path><path d="M29.1485466,24.3193157 L31.375,24.25 L31.375,25.7397084 C31.375,25.7397084 29.4464921,25.8262806 29.0858074,25.4972483 C28.7251228,25.1508146 28.8819707,24.4405458 29.1485466,24.3365722 L29.1485466,24.3193157 L29.1485466,24.3193157 Z" id="Path" fill="#F3F3F3"></path></g></g></g></svg> 