<?xml version="1.0" encoding="UTF-8"?> <svg xmlns="http://www.w3.org/2000/svg" xmlns:xlink="http://www.w3.org/1999/xlink" width="64px" height="64px" viewBox="0 0 64 64"><!-- Generator: Sketch 56 (81588) - https://sketch.com --><title>sprout-2</title><desc>Created with Sketch.</desc><g id="Page-1" stroke="none" stroke-width="1" fill="none" fill-rule="evenodd"><g id="general" transform="translate(-2720.000000, -498.000000)" fill-rule="nonzero"><g id="sprout-2" transform="translate(2720.000000, 498.000000)"><path d="M32,0 C49.663875,0 64,14.336125 64,32 C64,49.663875 49.663875,64 32,64 C14.336125,64 0,49.663875 0,32 C0,14.336125 14.336125,0 32,0 Z" id="Path" fill="#001730"></path><path d="M21.082625,39.772125 C21.3105,39.70375 21.5385,39.681 21.789125,39.681 C22.632375,39.681 23.407375,40.09125 23.86325,40.729375 C24.182375,39.54425 25.276375,38.678125 26.55275,38.678125 C26.8035,38.678125 27.031375,38.700875 27.25925,38.76925 C27.441625,37.4245 28.604,36.398875 29.9715,36.398875 C30.9515,36.398875 31.794875,36.90025 32.29625,37.67525 C32.84325,37.151 33.595375,36.832 34.393125,36.832 C35.373125,36.832 36.23925,37.287875 36.78625,37.994375 C37.287625,36.718 38.5185,35.806375 39.977125,35.806375 C41.754875,35.806375 43.213625,37.151125 43.395875,38.88325 C43.555375,38.8605 43.715,38.837625 43.8745,38.837625 C44.695,38.837625 45.424375,39.247875 45.857375,39.86325 C46.336,39.498625 46.951375,39.270625 47.589625,39.270625 C48.638,39.270625 49.54975,39.840375 50.051125,40.660875 C48.022625,41.93725 45.81175,42.940125 43.46425,43.623875 C42.64375,43.487125 41.96,42.940125 41.640875,42.21075 C41.1395,42.48425 40.569625,42.64375 39.977,42.64375 C38.791875,42.64375 37.766125,42.051125 37.15075,41.16225 C36.672125,42.210625 35.600875,42.91725 34.392875,42.91725 C33.2305,42.91725 32.204875,42.25625 31.680625,41.27625 C31.202,41.640875 30.609375,41.868875 29.97125,41.868875 C29.743375,41.868875 29.53825,41.846125 29.31025,41.8005 C29.219125,42.4615 28.92275,43.03125 28.467,43.464375 C25.7775,42.621125 23.270375,41.3675 21.03675,39.74925 L21.082625,39.772125 Z M39.02,44.512875 C38.108375,44.604 37.196625,44.649625 36.262125,44.649625 L36.239375,44.649625 C36.4445,44.079875 37.01425,43.64675 37.6525,43.64675 C38.245125,43.64675 38.76925,43.988625 39.02,44.49 L39.02,44.512875 Z M33.048375,44.46725 C32.56975,44.398875 32.091125,44.3305 31.6125,44.239375 C31.63525,43.851875 31.954375,43.555625 32.341875,43.555625 C32.752125,43.555625 33.07125,43.87475 33.07125,44.285 C33.07125,44.353375 33.07125,44.399 33.0485,44.4445 L33.0485,44.46725 L33.048375,44.46725 Z" id="Shape" fill="#CF4A35"></path><g id="Group" transform="translate(16.750000, 0.875000)" fill="#40D8D2"><path d="M33.985,0.401375 C7.11325,-3.3365 12.948,22.213375 26.007875,15.125 C32.002125,11.86575 30.589,2.566625 33.985,0.401375 Z" id="Path"></path><path d="M0.024875,13.597875 C20.15025,5.9625 19.717125,24.993875 9.30125,22.122125 C4.173125,20.709 3.079,14.350125 0.024875,13.597875 Z" id="Path"></path></g><path d="M34.5755,27.988625 L34.1425,28.011375 C32.592625,17.34475 25.1625,16.52425 25.139625,16.501375 C30.49575,17.322 34.16525,21.265 34.5755,27.988625 Z" id="Path" fill="#F3F3F3"></path><path d="M49.709375,21.242125 C33.162375,15.133875 33.66375,30.723625 42.16525,28.284875 C46.359,27.076875 47.20225,21.880375 49.709375,21.242125 Z" id="Path" fill="#40D8D2"></path><g id="Group" transform="translate(33.375000, 4.000000)" fill="#F3F3F3"><path d="M0.7675,29.299125 L1.2005,29.39025 C4.209,18.54125 12.02675,18.6323624 12.0495,18.6323624 C6.397125,18.791875 2.066625,22.393 0.7675,29.321875 L0.7675,29.299125 Z" id="Path"></path><path d="M12.57375,0.057 C-1.876375,4.182375 2.021,24.125375 2.2945,34.814875 L0.5395,35.361875 C0.08375,25.378875 -2.49175,2.586875 12.57375,0.057 Z" id="Path"></path></g><path d="M22.472875,40.7065 C23.20225,40.774875 23.840375,41.162375 24.2735,41.709375 C24.592625,40.56975 25.641,39.7265 26.894625,39.7265 C27.1225,39.7265 27.37325,39.74925 27.578375,39.817625 C27.76075,38.5185 28.8775,37.538375 30.22225,37.538375 C31.15675,37.538375 32,38.017 32.455875,38.769125 C32.980125,38.26775 33.709375,37.948625 34.484375,37.948625 C35.418875,37.948625 36.262125,38.381625 36.809125,39.065375 C37.28775,37.811875 38.49575,36.94575 39.908875,36.94575 C41.61825,36.94575 43.054125,38.244875 43.21375,39.9315 C43.37325,39.90875 43.51,39.885875 43.669625,39.885875 C44.467375,39.885875 45.173875,40.273375 45.584125,40.88875 C46.06275,40.524125 46.6325,40.319 47.27075,40.319 C48.045625,40.319 48.75225,40.638125 49.2765,41.16225 C45.4475,43.395875 40.98025,44.67225 36.2395,44.67225 C31.179625,44.67225 26.46175,43.236375 22.472875,40.72925 L22.472875,40.7065 L22.472875,40.7065 Z" id="Path" fill="#F65840"></path><path d="M28.284875,36.7635 C32.638125,38.017125 40.68375,39.36175 40.68375,39.36175 C40.68375,39.36175 40.227875,42.256375 37.789125,42.803375 C35.350375,43.350375 28.854625,42.074 28.854625,42.074 C28.854625,42.074 27.6695,43.236375 29.76625,43.623875 C31.863125,44.011375 42.09675,43.783375 42.09675,43.783375 C42.09675,43.783375 52.626625,38.791875 54.42725,38.131 C56.227875,37.47 57.321875,39.133875 57.321875,39.133875 C57.321875,39.133875 45.21925,48.729375 44.07975,49.549875 C42.940125,50.393125 24.113875,52.011375 24.113875,52.011375 L18.529875,52.581125 L12.51275,57.3675 C9.413,54.974375 6.746375,52.034125 4.695125,48.661 L13.28775,42.39325 C16.455875,37.08275 23.931625,35.48725 28.284875,36.740875 L28.284875,36.7635 Z" id="Path" fill="#FED298"></path><path d="M55.680875,40.433 C52.3305,43.076875 44.968625,48.911625 44.07975,49.54975 C42.940125,50.393 24.113875,52.01125 24.113875,52.01125 L18.529875,52.581 L12.51275,57.367375 C12.307625,57.207875 12.1025,57.04825 11.897375,56.88875 C15.24775,54.2905 18.962875,51.30475 18.666625,51.46425 C18.370375,51.62375 41.77775,49.800375 43.623875,48.843125 C45.492875,47.885875 54.42725,41.0255 54.81475,40.524 C55.20225,40.045625 55.680875,40.433 55.680875,40.433 L55.680875,40.433 Z" id="Path" fill="#F0BA7D"></path><g id="Group" transform="translate(37.125000, 39.000000)" fill="#FFFFFF"><path d="M0.2995,0.111125 L0.071625,1.182375 L2.57875,1.341875 C2.761125,1.13675 2.897875,0.886 2.806625,0.47575 L0.2995,0.133875 L0.2995,0.111125 Z" id="Path"></path><path d="M18.259625,0.931625 L18.555875,1.25075 L19.900625,0.2935 C19.99175,0.111125 19.5815,0.04275 19.5815,0.04275 L18.259625,0.931625 Z" id="Path"></path></g></g></g></g></svg> 