<?xml version="1.0" encoding="UTF-8"?> <svg xmlns="http://www.w3.org/2000/svg" xmlns:xlink="http://www.w3.org/1999/xlink" width="64px" height="67px" viewBox="0 0 64 67"><!-- Generator: Sketch 56 (81588) - https://sketch.com --><title>girl</title><desc>Created with Sketch.</desc><g id="Page-1" stroke="none" stroke-width="1" fill="none" fill-rule="evenodd"><g id="general" transform="translate(-3582.000000, -508.000000)" fill-rule="nonzero"><g id="girl" transform="translate(3582.000000, 508.000000)"><path d="M32,63.999875 C49.62475,63.999875 64,49.625 64,32.00025 C64,14.375125 49.625125,0.00025 32,0.00025 C14.374875,0.00025 0,14.375125 0,32.000125 C0,49.624875 14.374875,63.999875 32,63.999875 Z" id="Path" fill="#001730"></path><path d="M18.791809,10.2585427 C22.0090432,4.67748481 26.9233546,0.99671392 32.0000506,2.24291462 C37.0767465,0.996851942 41.9910579,4.67762283 45.2082921,10.2585427 C53.0196372,23.8096814 46.8122025,30.5371501 43.8564723,37.9707393 L32.0004659,38 L20.1437672,37.9707393 C17.1880371,30.5371501 10.9801871,23.8096814 18.791809,10.2585427 Z" id="Path" fill="#40D8D2"></path><path d="M12.0668985,49.6449605 C11.6964271,50.2413361 10.7721855,55.3129426 9.75,59.1579992 C15.8310976,64.0614397 23.571016,67 31.9998617,67 C40.4291223,67 48.1689024,64.0614397 54.25,59.1579992 C53.2273995,55.3133565 52.3032962,50.2409222 51.9328248,49.6449605 C46.2435027,40.4839806 37.4739286,44.483132 36.8760282,34 C36.8760282,34 34.0547464,36.0995234 31.9005344,36.1186991 C29.746184,36.1378747 27.1209283,34.1324359 27.1209283,34.1324359 C26.5244114,44.6064629 17.7522088,40.4908783 12.0668985,49.6449605 Z" id="Path" fill="#FED198"></path><path d="M37,35.4588991 C36.9297623,35.0060435 36.8780806,34.5217831 36.8482537,34 C36.8482537,34 34.0450703,36.0690509 31.9046775,36.0879482 C29.7641472,36.1068455 27.1557324,34.1305138 27.1557324,34.1305138 C27.1254931,34.6618135 27.0724369,35.1532794 27,35.6121168 C27.0548431,35.6549416 27.1092738,35.6984462 27.1650791,35.7408632 L27.1643918,35.7483405 C27.329196,35.8902742 29.8347972,38.0213191 31.9042651,37.9998387 C33.973733,38.0211832 36.4790593,35.8898664 36.6441384,35.7483405 L36.643726,35.7408632 C36.765233,35.6488238 36.8831663,35.5540653 36.9995876,35.459171 L37,35.4588991 Z" id="Path" fill="#F0B97D"></path><path d="M27.1118133,34.1415627 C27.2775835,34.2666592 29.7978704,36.1436588 31.8794679,36.125 C33.9610653,36.1436588 36.4810757,34.2663827 36.6471224,34.1415627 C39.793437,32.3076903 42.3751101,26.9007594 41.7923568,21.0408548 C41.3150936,16.2407453 36.121331,23.2790445 32.5039747,13.375 C27.3841796,24.0976314 22.5214043,17.7548961 21.9669937,21.8185262 C21.3558977,26.2958731 23.8701013,31.9294982 27.1118133,34.1418392 L27.1118133,34.1415627 L27.1118133,34.1415627 Z" id="Path" fill="#FED198"></path><path d="M12.1029345,46.6933295 C11.727741,47.2987601 10.7859595,54.7160122 9.75,59.0867024 C15.8257329,64.0337091 23.5675351,67 31.9997929,67 C40.4327411,67 48.1738528,64.034125 54.25,59.0867024 C53.2140405,54.7160122 52.1590243,47.3562947 51.8970655,46.6933295 C50.4667177,43.0714213 43.8455249,42.9201676 40.7475888,41.25 C35.9309707,58.7940383 28.7518898,59.9900652 23.0133754,41.5081433 L23.0122707,41.5067569 C19.9183393,43.1662494 14.2570178,43.2164362 12.1029345,46.6933295 Z" id="Path" fill="#F65840"></path><g id="Group" transform="translate(18.250000, 39.750000)"><path d="M6.84694598,0.0388106393 C6.64721178,5.48006941 7.56549524,13.1887151 13.6255625,15.1586855 C7.92024293,15.3990235 4.21802691,7.11710454 0.0005625,4.94798117 L6.8468088,0.0392252535 L6.8468088,0.0388106393 L6.84694598,0.0388106393 Z" id="Path" fill="#F3F3F3"></path><path d="M20.902777,0.0388106393 C21.1132497,5.48006941 20.1446891,13.1887151 13.7505625,15.1586855 C19.7701937,15.3990235 23.6765515,7.11710454 28.1255625,4.94798117 L20.9025013,0.0392252535 L20.902777,0.0388106393 Z" id="Path" fill="#F3F3F3"></path><path d="M24.75,16.875 C27.2969945,16.875 29.375,14.7972992 29.375,12.2497425 C29.375,9.70270076 27.2971661,7.625 24.75,7.625 C22.2026622,7.625 20.125,9.70270076 20.125,12.2497425 C20.125,14.7972992 22.2026622,16.875 24.75,16.875 Z" id="Path" fill="#FBB429"></path><polygon id="Path" fill="#FFFFFF" points="24.750085 8.875 25.5136305 11.3629912 28 11.3580756 25.9857023 12.8903989 26.7586008 15.375 24.750085 13.8345405 22.7413992 15.375 23.5139576 12.8903989 21.5 11.3580756 23.9863695 11.3629912"></polygon></g></g></g></g></svg> 