<?xml version="1.0" encoding="UTF-8"?> <svg xmlns="http://www.w3.org/2000/svg" xmlns:xlink="http://www.w3.org/1999/xlink" width="64px" height="64px" viewBox="0 0 64 64"><!-- Generator: Sketch 56 (81588) - https://sketch.com --><title>Group 7</title><desc>Created with Sketch.</desc><g id="Page-1" stroke="none" stroke-width="1" fill="none" fill-rule="evenodd"><g id="general" transform="translate(-4461.000000, -510.000000)" fill-rule="nonzero"><g id="Group-7" transform="translate(4461.000000, 510.000000)"><g id="fracture"><circle id="Oval" fill="#001730" cx="32" cy="31.999875" r="31.999875"></circle><g id="Group-6" transform="translate(5.250000, 8.000000)"><path d="M13.042493,21.0645244 L8.44062695,23.1924967 C2.43961773,23.1131501 1.51186343,27.0628254 1.19092707,31.9248781 L0.25,46.1782817 C1.84858533,47.3978003 3.58303518,48.4480534 5.42602422,49.3027737 L6.70781009,36.0176607 L8.20417044,50.4148256 C11.0046342,51.3621896 14.0047577,51.875 17.1247425,51.875 C20.6386038,51.875 23.9997264,51.2221341 27.0959784,50.0340053 L28,25.4137668 L25.9426542,23.0787084 L20.5674056,21.0366223 L19.869467,17.25 L13.2717643,17.3105999 L13.2714377,17.3103819 L13.042493,21.0645244 Z" id="Path" fill="#FED298"></path><path d="M13.2047592,17.3118433 L13.125,18.624123 C13.817721,19.283266 14.5764839,19.9501951 15.0771635,20.2716469 C15.6680007,20.4014511 16.1089439,20.4768644 16.5232269,20.5 C16.9379524,20.4768644 17.3786743,20.4012287 17.9692903,20.2716469 C18.5197502,19.9182724 19.3817243,19.1476779 20.125,18.4288049 L19.9086215,17.25 L13.2044273,17.3118433 L13.2047592,17.3118433 Z" id="Path" fill="#F0BA7D"></path><path d="M10.6456059,9.14205367 C10.6456059,9.14205367 10.3558305,8.50367335 9.57765759,8.81991915 C8.79959344,9.13605591 9.61268299,12.2906623 9.91029008,12.7304621 C10.2074621,13.170698 10.6856349,12.8910931 10.8600004,12.8737541 C11.1077888,14.7546533 11.1297612,16.0503887 11.8807405,16.8436204 C12.5917996,17.5945406 14.220263,19.124625 15.0778413,19.6576628 C15.658806,19.7809987 16.0923813,19.8529718 16.4997419,19.875 C16.9075375,19.8530809 17.3408952,19.7812168 17.9216424,19.6576628 C18.7795471,19.1244069 20.4076841,17.5944316 21.1190695,16.8436204 C21.8698312,16.0503887 21.8920212,14.7546533 22.1398096,12.8737541 C22.3143927,12.8910931 22.7925655,13.170698 23.0895199,12.7304621 C23.3872358,12.2906623 24.2004341,9.13616496 23.42237,8.81991915 C22.6438707,8.5037824 22.3540954,9.14205367 22.3540954,9.14205367 C22.3540954,9.14205367 23.12324,6.66454044 21.7562706,4.2262853 C20.8190693,2.55498076 18.6823026,1.68846726 16.4999594,1.625 C14.3175074,1.68846726 12.1806319,2.55519886 11.2438657,4.2262853 C9.87646121,6.66486759 10.6456059,9.14205367 10.6456059,9.14205367 Z" id="Path" fill="#FED298"></path><path d="M21.7513223,9.93345202 L22.2927117,9.91407868 L22.4670906,9.29139539 L22.9774068,8.77860382 C23.2658653,6.59313759 23.139074,4.75420245 22.530106,3.43681518 C19.7141859,-2.65528001 9.18398332,0.07045072 9.77382938,6.01467368 C10.018503,8.47935683 9.91941673,8.77838491 9.91941673,8.77838491 L10.429733,9.29150484 L10.5066552,10 L10.9520004,9.97132308 C10.9520004,9.97132308 11.0916122,9.02334276 11.2317672,8.60632336 C11.3711616,8.18930396 11.4732901,4.89802488 11.4732901,4.89802488 C13.5180318,5.34426848 16.56461,5.83801506 20.7774081,4.4156615 C21.7780495,4.07799619 21.7508877,9.93334257 21.7508877,9.93334257 L21.7513223,9.93345202 L21.7513223,9.93345202 Z" id="Path" fill="#40D8D2"></path><path d="M24.3130744,22.4666692 C24.3130744,22.4666692 30.2582915,21.4196002 31.7859599,25.0178229 C32.6291458,27.0042224 34.0691298,32.129757 35,36.9903073 L28.4699664,37.9226589 C28.1373104,37.3848393 27.8794858,35.3743404 27.624602,34.1086322 L27.1988155,45.7032689 L27.0398944,50.0329787 C23.9419681,51.2220268 20.579028,51.875 17.0632666,51.875 C13.9415946,51.875 10.9402844,51.3613888 8.13787062,50.4140978 L6.6407011,36.0098661 L6.47186787,39.429797 L0,38.5940611 L0.864317214,31.5160406 C1.45512459,26.6766454 2.37009178,23.0990325 8.37445499,23.1784187 L11.5993875,21.6870924 C12.3121905,22.8024248 13.7190615,24.1909198 16.3096168,24.1909198 C20.6385008,24.1909198 21.4383346,21.375 21.4383346,21.375 L24.3130744,22.4669963 L24.3130744,22.4667782 L24.3130744,22.4667782 L24.3130744,22.4666692 Z" id="Path" fill="#F65840"></path><path d="M27.625,34.125 L27.1815397,45.6998578 L27.0160221,50.0221817 C26.6803355,50.1455211 26.3414724,50.2634175 26,50.375 L27.625,34.125 Z" id="Path" fill="#15BDB2"></path></g></g><g id="doctor-2" transform="translate(21.125000, 9.125000)"><g id="doctor"><path d="M15.5964254,21.4632346 C18.2401417,21.4632346 20.883858,21.4632346 23.5273519,21.4632346 L23.5707006,22.0072077 L19.6948803,27.9034654 L15.5314023,21.9489846 L15.5963143,21.4635692 L15.5964254,21.4632346 L15.5964254,21.4632346 Z" id="Path" fill="#B3B3B3"></path><polygon id="Path" fill="#F0BA7D" points="15.6475547 19.9842346 15.5788636 23.3102 9.95575639 26.3958 9.95575639 37.7063577 19.4217834 37.7063577 28.8865877 37.7063577 28.8865877 26.3956885 23.6607326 23.1362 23.3737418 19.8107923 15.6476658 19.9841231 15.6475547 19.9841231"></polygon><path d="M13.0491879,10.2851846 C13.0491879,10.2851846 12.7267401,9.57423846 11.8610994,9.92658846 C10.9952365,10.2784923 11.9000021,13.7915077 12.2308974,14.2816077 C12.5614592,14.7714846 13.0937592,14.4604038 13.2876058,14.4409962 C13.5632592,16.5352423 13.5878235,17.9786615 14.4232312,18.8617115 C15.2145121,19.6978038 17.026044,21.4017769 17.9803828,21.9960538 C18.6267234,22.1330231 19.1088945,22.2134423 19.5625,22.2375346 C20.0158832,22.2134423 20.4984989,22.1328 21.1446172,21.9960538 C22.0988448,21.4021115 23.9107102,19.6978038 24.7017688,18.8617115 C25.5369542,17.9786615 25.5617408,16.5355769 25.8373942,14.4409962 C26.0312408,14.4605154 26.5635408,14.7714846 26.8941026,14.2816077 C27.2248867,13.7915077 28.1297635,10.2783808 27.2639006,9.92658846 C26.3980376,9.57412692 26.0758121,10.2851846 26.0758121,10.2851846 C26.0758121,10.2851846 26.9315604,7.52650385 25.4104648,4.8111 C24.3680948,2.94996923 21.9906953,1.98471538 19.5626112,1.91388846 C17.134527,1.98471538 14.7571275,2.94996923 13.7147575,4.8111 C12.1936619,7.52661538 13.0494102,10.2851846 13.0494102,10.2851846 L13.0491879,10.2851846 L13.0491879,10.2851846 Z" id="Path" fill="#FED298"></path><path d="M12.8213292,24.2886154 L14.1679183,23.7563538 L15.2530813,22.7778269 L19.0846637,25.694 L20.0388913,25.694 L23.8716964,22.7743692 L26.3030039,24.28895 L30.5279482,31.49545 L27.1819826,49.7122462 C24.7565661,50.3872769 22.2014368,50.7495538 19.5617219,50.7495538 C17.4088466,50.7495538 15.3124357,50.5080731 13.2963867,50.0535538 L7.29925781,32.0712115 L12.8209957,24.2887269 L12.8213292,24.2886154 Z" id="Path" fill="#15BDB2"></path><g id="Group" transform="translate(14.004972, 21.415385)" fill="#21D0C3"><polygon id="Path" points="11.0692628 1.96207308 9.52238033 0.04785 6.03436435 4.27872692 9.02831605 7.61707308"></polygon><polygon id="Path" points="0.0426818182 1.92838846 1.59156499 0.04785 5.07980327 4.27872692 1.96692045 7.58271923"></polygon></g><path d="M14.0478757,23.3437731 L3.7949027,26.6895923 C3.37797692,26.8253346 3.11610618,27.1811423 3.03118714,27.6130192 L0.016227983,42.9448731 C2.04661541,44.8717 4.35999219,46.5004962 6.88677805,47.76445 L8.38564347,42.8557538 C8.40309411,42.7994269 8.45644638,42.7642923 8.51480043,42.7713192 C8.57293217,42.7782346 8.6171701,42.8249692 8.62039347,42.8839731 L8.83680362,48.6491731 C12.1469787,50.0026923 15.7675973,50.7495538 19.5627223,50.7495538 L19.5627223,48.8353308 L14.048098,23.3437731 L14.0478757,23.3437731 Z" id="Path" fill="#4C4C4C"></path><g id="Group" transform="translate(9.670099, 23.311538)"><polygon id="Path" fill="#797979" points="4.37777628 0.0322346154 3.20347053 0.394288462 0.0923661222 5.72125385 4.01987145 5.84472692 1.60868217 7.22233846 9.89273402 25.5240154 4.37810973 0.0324576923"></polygon><path d="M15.4041349,0.0659192308 L25.6602202,3.37805385 C26.0778129,3.51290385 26.3387944,3.86960385 26.4237134,4.30148077 L29.4387837,19.6335577 C27.408174,21.5603846 25.0946861,23.1892923 22.5677891,24.4533577 L21.0687013,19.5444385 C21.051473,19.4881115 20.997565,19.4529769 20.9395444,19.4600038 C20.8814126,19.4669192 20.8376193,19.5138769 20.8341737,19.5726577 L20.6183192,25.3378577 C17.3081442,26.6913769 13.6875256,27.4382385 9.89262287,27.4382385 L9.89240057,27.4382385 L9.89240057,25.5240154 L15.4040238,0.0662538462 L15.4041349,0.0659192308 Z" id="Path" fill="#4C4C4C"></path></g><polygon id="Path" fill="#797979" points="25.7261325 23.5764423 29.359978 29.0663654 25.4324727 29.1900615 27.8438842 30.5677846 19.5625 48.8355538 25.0741232 23.3777923"></polygon><path d="M25.328658,11.1065538 L25.9319833,11.0853615 L26.1261634,10.3944923 L26.6944762,9.82542308 C27.0698317,6.98922308 27.1804265,2.57508846 24.3750973,2.70246538 C24.3750973,2.70246538 24.1221186,-0.516088462 19.061989,0.114773077 C14.0015259,0.745857692 11.7151587,4.02397308 11.9875888,6.75889615 C12.2597965,9.49381923 12.1500909,9.82508846 12.1500909,9.82508846 L12.7184038,10.3943808 L12.8041009,11.1802808 L13.3003881,11.1488269 C13.3003881,11.1488269 13.4559989,10.0969077 13.6117209,9.63424615 C13.767554,9.17169615 13.7187589,8.23521923 13.7187589,8.23521923 C13.7187589,8.23521923 19.6957695,8.61735 21.3110096,6.55556154 C22.3085859,5.28235 24.5996214,3.07623077 24.7149957,6.13149231 C24.7492301,7.03751923 24.4135554,8.3955 25.0558945,9.38384231 C25.698456,10.3722962 25.3284357,11.1063308 25.3284357,11.1063308 L25.328658,11.1063308 L25.328658,11.1065538 Z" id="Path" fill="#F65840"></path><polygon id="Path" fill="#001730" points="19.5625 48.8353308 21.1781847 41.3729615 20.0802393 26.6632692 20.6784517 26.4070654 20.0390025 25.6942231 19.0847749 25.6942231 18.4289865 26.3904462 19.0445384 26.6633808 17.9740472 41.4920846 19.5626112 48.8354423"></polygon></g></g></g></g></g></svg> 