<?xml version="1.0" standalone="no"?>
<!DOCTYPE svg PUBLIC "-//W3C//DTD SVG 20010904//EN"
 "http://www.w3.org/TR/2001/REC-SVG-20010904/DTD/svg10.dtd">
<svg version="1.0" xmlns="http://www.w3.org/2000/svg"
 width="950.000000pt" height="1280.000000pt" viewBox="0 0 950.000000 1280.000000"
 preserveAspectRatio="xMidYMid meet">
<metadata>
Created by potrace 1.15, written by Peter Selinger 2001-2017
</metadata>
<g transform="translate(0.000000,1280.000000) scale(0.100000,-0.100000)"
fill="rgb(128, 162, 80)" stroke="none">
<path d="M1021 12793 c0 -7 0 -14 1 -15 1 -2 -5 -14 -12 -28 -7 -14 -17 -65
-21 -115 -7 -80 -10 -91 -33 -108 -24 -17 -26 -25 -26 -91 0 -69 -1 -73 -30
-95 l-31 -22 7 -90 c7 -87 6 -89 -15 -89 -12 0 -44 12 -72 26 -28 14 -54 22
-57 19 -4 -4 -6 -62 -5 -130 3 -122 3 -123 -23 -140 -28 -18 -28 -27 -2 -113
12 -41 11 -44 -11 -62 l-24 -18 16 -78 c8 -44 12 -83 7 -87 -13 -14 -49 2 -89
39 -21 18 -50 38 -65 43 -24 10 -28 8 -37 -17 -16 -39 -4 -145 25 -237 30 -94
31 -99 11 -91 -26 10 -45 -5 -45 -34 0 -16 3 -30 8 -32 4 -1 17 -22 29 -44 20
-37 21 -43 8 -54 -22 -19 -19 -43 21 -134 l36 -84 -22 -22 c-16 -16 -20 -29
-15 -47 21 -84 20 -87 -11 -79 -16 5 -51 10 -78 13 l-49 5 6 -48 c3 -27 26
-98 50 -159 l45 -110 -24 -28 c-13 -16 -24 -32 -24 -35 1 -4 21 -50 45 -102
37 -80 42 -97 31 -110 -22 -24 -28 -58 -15 -82 6 -13 50 -80 97 -150 47 -70
83 -130 80 -134 -9 -9 -75 14 -125 42 -23 13 -58 24 -77 24 -34 0 -36 -2 -36
-31 0 -50 30 -141 61 -183 21 -29 29 -52 29 -82 0 -30 14 -70 55 -149 52 -104
54 -110 43 -147 -8 -28 -8 -44 0 -63 30 -65 117 -180 191 -250 45 -43 78 -82
74 -86 -4 -4 -21 -9 -37 -11 -16 -2 -33 -10 -39 -19 -21 -33 4 -72 113 -178
70 -69 111 -117 116 -136 4 -17 46 -72 98 -127 83 -89 91 -101 96 -145 5 -45
7 -49 55 -73 28 -14 87 -48 131 -77 44 -28 119 -71 167 -94 106 -53 112 -71
35 -93 -29 -8 -72 -18 -95 -21 -97 -15 -78 -75 51 -160 l85 -56 3 -51 3 -52
80 -52 c44 -28 105 -77 136 -108 63 -65 100 -89 159 -107 35 -11 49 -23 79
-68 52 -80 150 -212 175 -237 11 -11 50 -55 85 -97 81 -97 151 -150 265 -201
76 -33 103 -40 164 -42 44 -1 79 -7 89 -16 19 -15 81 -50 141 -78 23 -10 82
-27 130 -36 100 -18 168 -36 231 -58 24 -9 52 -16 61 -16 10 0 31 -7 47 -15
50 -26 187 -82 243 -100 79 -25 138 -62 165 -104 13 -20 58 -67 100 -106 101
-93 375 -361 375 -367 0 -2 -30 6 -67 18 -80 28 -120 30 -170 9 -42 -18 -53
-30 -53 -61 0 -50 106 -133 224 -175 72 -25 75 -41 8 -54 -20 -4 -92 -24 -160
-46 -68 -21 -139 -39 -158 -39 -49 0 -121 19 -135 36 -6 8 -19 14 -29 14 -26
0 -152 86 -255 174 -84 72 -92 77 -127 72 -34 -6 -39 -3 -77 43 -46 55 -70 65
-101 44 -25 -17 -22 -19 -136 89 -73 69 -96 80 -111 53 -7 -12 -21 -9 -91 21
-146 63 -191 54 -144 -27 23 -40 30 -99 11 -99 -6 0 -20 5 -32 12 -33 18 -111
28 -212 29 -49 1 -94 0 -99 0 -4 -1 -5 -17 -1 -37 6 -33 4 -36 -12 -30 -10 4
-38 12 -63 18 -25 6 -72 22 -105 36 -81 34 -154 41 -172 17 -7 -11 -13 -29
-13 -41 0 -22 -2 -22 -92 -17 -112 6 -164 -5 -161 -34 2 -17 -5 -21 -44 -27
-25 -3 -71 -6 -102 -6 -71 0 -91 -11 -73 -40 6 -11 12 -21 12 -24 0 -7 -116
-45 -199 -66 -129 -31 -140 -54 -37 -84 46 -14 96 -49 85 -60 -11 -11 -141
-38 -203 -42 -39 -3 -111 -12 -159 -21 l-89 -16 6 -28 c7 -36 -15 -52 -104
-80 -80 -25 -108 -42 -112 -71 -2 -17 -19 -31 -65 -53 -79 -38 -106 -63 -100
-92 3 -17 -6 -28 -42 -53 -112 -75 -136 -97 -139 -123 l-3 -27 70 0 c96 0 171
-32 171 -74 0 -7 -108 -61 -154 -76 -20 -6 -55 -30 -77 -53 -21 -23 -69 -57
-106 -77 -81 -42 -113 -80 -92 -106 12 -15 12 -18 -1 -22 -25 -8 -180 -174
-180 -192 0 -10 10 -25 23 -33 l22 -15 -37 -31 c-49 -42 -84 -99 -69 -114 8
-8 29 -5 79 11 73 23 127 28 137 12 7 -11 -23 -60 -37 -60 -22 0 -132 -96
-159 -139 -40 -63 -45 -88 -24 -111 16 -18 16 -22 -14 -81 -36 -72 -39 -105
-12 -114 17 -5 16 -12 -20 -111 -22 -58 -39 -110 -39 -115 0 -19 38 -8 74 20
57 45 126 63 126 32 0 -4 -19 -36 -42 -70 -37 -56 -40 -64 -28 -86 11 -21 10
-27 -13 -55 -15 -17 -29 -47 -32 -68 -4 -20 -14 -56 -22 -80 -9 -23 -13 -45
-11 -48 3 -3 37 11 74 30 38 19 71 31 72 26 2 -6 -24 -42 -57 -81 -34 -38 -61
-74 -61 -80 0 -5 5 -18 12 -29 10 -16 9 -24 -10 -49 -12 -17 -22 -33 -22 -37
0 -3 -11 -19 -25 -36 -32 -38 -32 -48 1 -48 25 0 26 -2 21 -40 -3 -22 -19 -70
-36 -106 -17 -36 -28 -70 -25 -75 11 -18 32 -8 72 35 44 48 80 76 98 76 13 0
-1 -55 -45 -178 l-31 -83 24 -9 c24 -9 24 -12 19 -82 -5 -72 -5 -74 21 -86 21
-9 26 -19 26 -45 0 -26 -11 -47 -51 -92 -53 -61 -62 -97 -24 -103 14 -2 31 10
53 36 33 42 88 63 177 68 84 5 166 23 202 44 l38 22 26 -31 c30 -36 43 -38 83
-12 l30 20 29 -25 c22 -19 32 -22 48 -14 16 9 19 22 19 75 0 61 -1 65 -22 65
-13 0 -34 -9 -48 -20 -29 -23 -58 -26 -66 -7 -3 8 13 47 35 88 22 41 45 96 52
122 13 54 29 57 42 8 4 -18 13 -31 20 -28 21 7 20 40 -4 83 -22 41 -22 46 -11
121 6 43 14 107 18 143 7 65 45 144 88 179 21 17 22 16 32 -44 14 -78 29 -59
32 41 l3 92 61 66 c33 37 63 65 66 62 2 -3 11 -45 18 -93 20 -133 -7 -319 -81
-547 -25 -76 -45 -143 -45 -150 0 -6 11 1 24 16 13 15 41 78 61 140 21 62 41
117 46 122 5 6 22 -19 40 -57 31 -67 49 -78 49 -31 0 30 -13 56 -50 104 l-28
35 14 95 c8 52 18 98 23 103 9 9 51 -81 51 -108 0 -9 6 -15 13 -12 7 2 12 22
11 50 0 36 -8 58 -36 99 -35 52 -36 55 -42 181 l-7 128 31 39 c18 22 36 38 41
34 5 -3 10 -24 10 -47 1 -23 4 -55 8 -72 l7 -30 13 24 c10 18 12 47 8 103 l-6
79 81 85 c61 63 84 81 90 71 11 -20 28 -179 28 -263 0 -39 -6 -113 -14 -165
-39 -255 -48 -301 -71 -394 -14 -55 -48 -152 -75 -216 -28 -63 -50 -119 -50
-124 0 -4 9 0 21 11 26 23 67 103 109 212 33 86 44 102 54 77 3 -8 11 -15 17
-15 9 0 10 14 4 53 -5 28 -8 77 -7 107 2 63 32 191 47 193 8 2 29 -34 53 -93
l10 -25 10 25 c12 31 2 60 -40 112 -29 37 -30 43 -25 105 3 46 11 74 27 96 23
30 23 31 7 101 -9 39 -22 105 -28 146 -6 41 -15 86 -21 99 -7 21 -3 30 29 63
20 21 41 38 45 38 4 0 8 -21 8 -46 0 -31 4 -44 12 -42 17 6 29 57 23 94 -5 29
-1 35 42 67 26 20 50 33 53 31 2 -3 9 -39 15 -79 5 -41 15 -75 20 -75 18 -2
27 68 18 139 -11 82 -6 94 69 159 55 47 56 48 84 28 17 -13 19 -27 18 -163 -2
-279 -54 -679 -108 -819 -8 -22 -29 -90 -46 -152 -17 -62 -38 -129 -46 -148
-8 -19 -10 -34 -4 -34 20 0 70 108 101 219 17 64 37 127 44 140 l12 25 29 -45
c25 -38 29 -41 32 -22 2 12 -6 40 -17 62 -26 50 -26 89 -1 221 11 58 20 106
20 107 0 2 4 3 8 3 5 0 21 -28 36 -62 21 -49 29 -60 36 -47 12 21 -5 81 -38
137 -24 42 -25 48 -18 153 8 129 16 199 25 199 3 0 15 -17 26 -37 11 -20 26
-39 34 -41 21 -7 5 45 -28 93 -24 34 -29 54 -36 135 -4 52 -14 111 -22 131
l-15 38 74 69 c87 83 157 142 168 142 17 0 19 -138 3 -247 -9 -62 -13 -116
-10 -120 14 -13 27 13 47 92 29 110 35 198 17 262 -7 29 -11 56 -8 60 3 4 38
38 78 76 48 45 79 67 96 67 22 0 25 -5 31 -52 17 -150 -2 -461 -39 -630 -8
-36 -22 -117 -30 -178 -19 -131 -90 -420 -133 -535 -90 -243 -102 -279 -98
-289 6 -18 132 251 165 356 26 81 99 366 117 458 5 22 9 19 39 -34 18 -32 39
-79 46 -103 12 -45 32 -53 37 -15 5 32 -40 123 -84 171 l-38 42 12 52 c7 29
21 96 32 151 10 54 20 100 22 101 2 2 19 -24 38 -57 28 -49 36 -56 38 -38 6
36 -7 68 -41 108 l-33 37 10 105 c7 74 6 153 -2 270 l-12 165 57 54 c112 104
121 103 132 -10 l7 -74 21 55 c19 50 19 58 6 94 -7 22 -12 45 -9 51 5 14 161
105 180 105 10 0 17 -27 26 -102 28 -224 -9 -647 -80 -928 -12 -47 -25 -105
-30 -130 -14 -83 -108 -434 -134 -504 -30 -79 -32 -93 -10 -75 32 27 78 137
115 279 12 47 25 89 29 93 8 9 25 -31 35 -81 4 -18 11 -30 16 -26 16 9 10 78
-11 119 -11 22 -20 47 -20 57 0 20 57 284 66 308 7 16 52 -71 53 -101 1 -8 8
-24 17 -35 14 -18 15 -15 11 37 -3 30 -16 82 -30 115 -14 32 -24 70 -22 84 26
180 60 368 65 365 4 -3 20 -51 36 -107 l29 -103 3 65 c4 76 -11 137 -44 181
-23 32 -23 36 -18 198 4 116 1 193 -9 254 -13 84 -12 90 6 113 37 47 57 19 57
-82 0 -49 15 -58 30 -18 13 34 13 84 -1 123 -10 28 -9 34 7 46 34 26 145 77
152 70 3 -3 5 -62 4 -131 -2 -79 1 -124 7 -124 19 0 41 118 42 228 1 60 3 63
33 79 17 8 38 21 46 28 15 12 226 104 323 140 26 10 51 15 55 11 12 -13 14
-218 3 -327 -6 -57 -24 -162 -40 -234 -16 -71 -33 -150 -36 -175 -7 -40 -6
-43 9 -31 15 13 35 70 67 195 12 47 13 47 25 25 13 -24 13 -24 14 -2 0 12 -5
25 -11 29 -14 8 -7 83 25 278 20 124 21 146 10 200 -15 70 -11 78 48 95 62 19
71 2 62 -114 -5 -66 -2 -111 10 -170 23 -111 36 -267 24 -282 -5 -6 -6 -43 -2
-85 6 -69 5 -74 -19 -95 -19 -16 -27 -37 -36 -95 -26 -159 -42 -224 -66 -258
-14 -20 -25 -41 -25 -48 0 -7 -10 -12 -23 -12 -13 0 -32 -7 -43 -15 -26 -20
-40 -19 -73 6 -36 26 -68 18 -78 -19 -3 -15 -12 -36 -19 -47 -18 -27 -72 -295
-74 -366 0 -3 -11 -18 -25 -33 -13 -14 -27 -43 -30 -64 -9 -56 -27 -86 -60
-96 -17 -6 -31 -11 -33 -12 -1 0 -9 -28 -18 -60 -20 -79 -38 -104 -72 -104
-33 0 -42 7 -65 42 -33 52 -54 36 -119 -93 -24 -47 -51 -104 -61 -127 -13 -29
-25 -42 -38 -42 -31 0 -69 -30 -99 -78 -15 -24 -49 -61 -76 -81 -27 -20 -55
-49 -62 -64 -8 -16 -32 -42 -55 -58 -38 -28 -43 -29 -54 -13 -7 9 -15 36 -19
60 -7 51 -23 67 -61 62 -22 -2 -30 -10 -38 -35 -6 -18 -28 -50 -50 -70 -21
-21 -66 -78 -100 -128 -53 -79 -64 -90 -94 -93 -18 -2 -43 4 -56 12 -22 15
-27 14 -71 -9 -25 -14 -50 -23 -54 -20 -4 2 -10 23 -14 45 -9 60 -38 55 -65
-13 -30 -73 -72 -121 -118 -135 -31 -9 -45 -22 -69 -64 -17 -29 -37 -68 -44
-86 -7 -18 -21 -37 -31 -43 -24 -12 -24 -29 -1 -29 23 0 52 27 93 86 26 39 35
45 57 41 20 -4 33 2 53 25 16 16 31 38 34 49 9 28 27 23 53 -16 34 -52 48 -48
116 40 22 27 26 29 49 16 23 -12 30 -11 73 14 27 16 66 48 88 72 21 23 44 43
51 43 20 0 51 42 90 119 21 42 40 70 45 65 5 -5 14 -40 20 -78 6 -38 13 -73
16 -78 13 -21 16 -19 202 176 20 22 46 53 57 70 58 89 92 116 110 86 10 -17
26 -11 55 20 l28 30 101 -16 c81 -14 102 -21 107 -36 9 -28 43 -45 104 -53 56
-6 160 -32 160 -40 0 -2 -13 -17 -30 -33 -35 -35 -36 -42 -12 -71 22 -28 79
-41 148 -34 50 5 56 4 80 -22 25 -27 25 -27 112 -19 48 5 130 8 182 6 75 -2
107 1 154 18 62 21 96 25 96 12 0 -4 -16 -24 -36 -43 -79 -75 -114 -145 -82
-165 22 -14 94 -7 162 15 58 20 71 21 92 10 36 -19 163 3 235 40 31 16 74 33
95 36 22 4 57 19 79 35 41 28 144 70 172 70 13 0 15 -8 10 -49 -7 -58 15 -88
55 -76 34 10 143 72 176 100 26 22 31 23 48 10 43 -33 89 -12 194 88 l72 67
29 -21 c18 -12 37 -18 48 -14 11 3 56 39 101 79 45 41 101 84 125 97 l44 23
24 -22 c13 -12 33 -22 44 -22 26 0 69 42 113 109 21 34 41 53 59 57 74 16 106
45 179 160 17 27 43 61 57 74 13 13 28 39 31 57 11 57 -1 58 287 -31 72 -22
166 -42 244 -51 69 -9 134 -20 144 -25 30 -16 87 -93 115 -154 23 -50 26 -68
22 -125 -7 -92 -23 -122 -74 -137 -23 -7 -59 -23 -80 -36 -60 -38 -225 -133
-264 -153 -19 -9 -66 -41 -105 -70 -38 -29 -113 -76 -165 -105 -52 -28 -110
-63 -129 -76 -19 -14 -46 -27 -60 -31 -14 -3 -64 -26 -111 -51 -117 -61 -266
-100 -433 -112 -73 -5 -159 -12 -192 -16 -75 -7 -264 -53 -289 -70 -17 -12
-22 -9 -48 24 -33 43 -131 101 -170 102 -15 0 -39 -5 -55 -11 -19 -7 -29 -7
-31 0 -2 6 -11 11 -20 11 -9 0 -36 7 -59 16 -37 14 -50 15 -84 5 -31 -9 -47
-9 -73 0 -29 10 -41 10 -78 -4 -24 -9 -54 -17 -66 -17 -28 0 -103 -29 -199
-77 -75 -38 -157 -98 -227 -168 -51 -50 -143 -197 -172 -273 -12 -31 -32 -82
-45 -112 -19 -47 -23 -73 -23 -170 0 -103 3 -123 28 -185 28 -69 83 -135 113
-135 8 0 33 -11 56 -24 42 -24 43 -24 218 -17 170 8 178 9 240 39 59 29 61 32
32 32 -26 0 -36 6 -48 30 -22 42 -12 53 39 45 53 -9 96 -32 96 -50 0 -9 11
-21 26 -27 23 -11 29 -8 67 31 l42 42 -36 -6 -37 -7 -11 52 c-21 96 -12 105
68 76 50 -18 60 -39 38 -78 -10 -17 -15 -33 -13 -36 3 -3 25 8 48 24 24 15 66
40 93 54 141 75 261 166 271 207 4 15 0 39 -10 59 -21 46 -20 67 5 82 20 13
21 12 17 -22 -5 -46 8 -46 29 0 14 29 15 37 4 44 -11 6 -10 13 7 35 29 37 37
89 23 145 -15 59 -6 97 28 114 41 21 201 74 246 82 22 4 48 11 59 16 14 8 23
5 38 -10 19 -18 19 -21 4 -43 -8 -13 -31 -36 -49 -51 -56 -44 -144 -176 -203
-303 -80 -176 -86 -186 -116 -231 -25 -37 -32 -42 -80 -47 -100 -12 -198 -56
-293 -132 -22 -18 -58 -41 -80 -53 -66 -34 -179 -150 -270 -278 -64 -89 -74
-137 -87 -388 -11 -224 -9 -237 63 -323 20 -24 46 -64 59 -90 13 -25 36 -53
52 -62 17 -9 48 -30 69 -47 41 -34 63 -39 215 -50 91 -6 123 0 149 31 6 7 44
25 85 41 104 40 147 65 218 129 44 41 65 67 72 95 6 22 15 42 21 45 15 10 106
150 114 177 4 13 19 45 32 72 14 27 26 61 26 75 3 37 40 161 49 161 5 0 8 -39
8 -87 0 -208 39 -359 131 -512 92 -151 131 -192 165 -173 15 8 14 11 -6 25
l-23 16 25 10 c42 16 52 16 85 -2 l33 -17 -21 -21 c-23 -23 -17 -39 16 -39 13
0 27 -5 31 -11 13 -21 70 -38 100 -30 l29 8 -30 12 c-66 25 -72 31 -25 26 100
-12 95 -13 92 18 -3 25 -1 27 34 27 20 0 54 -5 74 -11 49 -15 90 -5 90 21 0
22 -12 31 -54 40 l-31 6 25 14 c14 8 51 14 83 15 55 0 58 -1 52 -22 -8 -35 11
-27 29 11 22 47 31 96 18 96 -6 0 -14 -4 -17 -10 -3 -5 -12 -10 -18 -10 -7 1
8 18 31 39 33 29 43 44 40 62 -2 20 -11 25 -50 33 -27 4 -48 12 -48 17 0 12
89 69 107 69 20 0 27 -28 14 -57 -24 -52 -2 -32 26 24 50 98 54 122 69 454 6
132 4 167 -11 228 -13 56 -15 78 -7 97 10 21 8 25 -17 38 -22 12 -30 25 -35
55 -3 22 -16 56 -29 75 -12 18 -29 47 -38 62 -22 40 -225 161 -247 147 -28
-17 -24 -31 17 -55 23 -13 41 -26 41 -29 0 -4 -8 -17 -18 -29 -20 -25 -50 -24
-87 3 -16 13 -17 19 -8 40 7 14 9 28 6 31 -10 10 -61 7 -68 -4 -10 -17 -44
-11 -89 15 -57 34 -80 60 -71 82 3 10 13 54 21 98 14 81 29 105 66 105 16 0
18 -9 18 -79 0 -43 3 -93 6 -110 5 -24 3 -31 -9 -31 -22 0 -32 -20 -16 -31 16
-10 103 -10 138 0 19 5 21 8 10 18 -8 6 -29 14 -48 18 l-34 7 7 127 c4 69 11
182 14 251 10 178 21 194 225 349 60 45 117 81 130 81 12 0 47 17 77 37 63 43
302 177 406 229 66 32 78 35 168 35 76 1 101 -3 115 -15 10 -9 60 -34 112 -57
200 -87 299 -145 426 -253 72 -61 145 -115 179 -130 32 -15 81 -44 109 -65 27
-21 61 -44 75 -51 14 -7 66 -53 116 -101 l90 -89 77 -10 76 -9 55 52 c57 54
81 97 71 128 -3 10 -23 32 -43 48 -20 17 -73 64 -116 105 -44 42 -105 93 -135
113 -31 21 -73 55 -95 76 -21 20 -76 55 -122 77 -46 22 -121 63 -166 91 -46
29 -117 68 -158 88 -41 19 -81 41 -89 48 -7 8 -32 23 -55 35 -22 11 -47 29
-53 39 -11 15 -78 61 -273 188 -65 43 -146 158 -252 360 -16 31 -35 63 -42 71
-16 19 -100 158 -136 225 -15 28 -51 95 -80 150 -30 55 -71 126 -93 158 -21
32 -54 92 -74 132 -32 69 -34 79 -28 136 7 55 12 65 57 112 27 28 72 90 100
137 28 47 57 93 65 102 9 9 36 66 62 125 l47 108 62 21 c34 11 79 30 99 41 66
37 121 47 251 44 106 -2 127 0 155 17 18 10 68 26 112 36 44 10 87 21 95 26
15 8 18 43 6 70 -5 12 4 15 46 16 29 1 77 11 106 22 68 26 152 80 152 98 0 8
-18 25 -40 39 -23 14 -38 30 -35 34 3 5 38 14 78 21 110 18 188 40 226 62 29
19 33 25 28 54 -5 29 -2 34 29 49 19 9 57 23 85 31 27 8 64 28 82 44 31 27 31
29 14 48 -18 19 -18 20 4 36 13 9 44 23 69 31 47 16 100 57 100 78 0 7 -6 19
-12 26 -11 11 -7 17 17 35 16 11 41 33 55 47 21 21 123 110 204 176 19 16 19
16 0 30 -10 8 -28 11 -39 8 -157 -47 -169 -44 -115 27 22 29 56 85 76 123 21
39 59 93 85 122 42 44 49 58 49 93 0 34 6 46 35 71 27 24 35 39 35 65 0 33 49
117 121 203 33 41 38 71 11 71 -10 0 -46 -11 -80 -25 -96 -39 -113 -30 -72 37
11 18 20 42 20 52 0 11 13 43 30 73 33 58 38 98 15 107 -31 12 -8 83 47 142
19 22 19 22 -6 42 -14 11 -26 23 -26 26 0 4 12 24 26 46 19 28 28 60 34 110 6
59 14 79 40 111 17 22 29 47 26 55 -8 21 -46 17 -70 -9 -20 -22 -131 -55 -143
-43 -3 2 4 17 15 33 20 28 27 44 88 187 32 76 33 81 17 99 -16 17 -16 22 4 80
12 34 24 87 26 118 3 31 16 78 30 105 36 73 16 96 -48 54 -42 -28 -69 -27 -60
3 3 12 8 48 11 80 2 32 17 91 33 132 17 40 33 90 36 109 7 33 4 37 -25 53
l-32 18 6 145 c4 83 2 151 -3 159 -7 11 -17 12 -56 2 -56 -14 -136 -53 -154
-75 -18 -22 -44 -20 -59 4 -16 27 -34 25 -70 -5 -17 -14 -37 -25 -47 -25 -21
0 -51 -16 -97 -52 -31 -24 -43 -28 -73 -22 -31 6 -42 2 -77 -26 l-41 -33 -18
24 c-10 13 -19 32 -19 42 -1 93 -119 64 -195 -48 -46 -67 -80 -90 -147 -99
-43 -7 -48 -5 -65 21 -14 21 -17 43 -15 100 2 60 0 75 -13 80 -27 10 -62 -17
-107 -80 -71 -99 -98 -127 -124 -127 -15 0 -42 -16 -68 -40 -24 -22 -52 -40
-64 -40 -27 0 -52 -10 -52 -21 0 -5 -8 -17 -17 -27 -10 -9 -30 -33 -46 -52
-27 -34 -28 -35 -43 -15 -9 11 -24 39 -35 63 -37 85 -73 65 -162 -92 -63 -110
-72 -121 -117 -130 -20 -4 -32 -21 -60 -88 -25 -59 -41 -84 -55 -86 -38 -7
-55 -35 -91 -146 -20 -61 -37 -113 -39 -115 -5 -4 -45 60 -45 72 0 4 6 7 14 7
17 0 69 77 56 85 -5 3 -38 -4 -74 -15 -36 -12 -78 -20 -95 -18 l-30 3 35 52
c19 29 59 74 89 99 56 49 183 193 203 231 18 34 15 64 -8 70 -11 3 -20 8 -20
11 0 3 17 28 38 56 71 96 132 194 132 213 0 14 -12 25 -40 36 -24 9 -40 22
-40 32 0 27 26 81 74 150 47 69 57 102 32 111 -8 3 -31 -6 -53 -20 -72 -48
-183 -74 -183 -43 0 7 36 74 80 147 44 73 80 137 80 142 0 4 -6 8 -13 8 -7 0
-21 6 -30 13 -15 11 -13 20 29 112 25 55 51 111 59 125 33 58 37 70 32 84 -4
9 -18 16 -35 16 l-28 0 23 71 c16 51 22 92 21 143 -1 58 4 82 22 119 21 43 22
77 1 77 -5 0 -31 -21 -57 -46 -48 -45 -152 -104 -185 -104 -37 0 -43 26 -31
119 17 128 17 131 -15 131 -43 0 -57 13 -48 46 6 25 26 140 42 243 6 40 -9 54
-50 45 l-28 -6 7 120 c7 129 2 172 -21 172 -17 0 -20 -12 -35 -135 -6 -49 -14
-114 -19 -143 -8 -58 -3 -68 46 -81 15 -5 27 -13 26 -18 -23 -118 -40 -257
-34 -280 7 -25 12 -28 44 -26 47 3 54 -19 27 -78 -25 -57 -26 -103 0 -129 29
-29 61 -33 127 -17 32 9 64 17 72 19 18 4 34 -64 26 -109 -3 -18 -22 -67 -42
-109 -35 -74 -36 -77 -18 -90 10 -8 27 -14 37 -14 10 0 18 -6 18 -12 0 -29
-74 -190 -121 -266 -13 -20 -12 -24 13 -45 l27 -22 -69 -125 c-39 -69 -69
-129 -67 -134 6 -17 69 -28 130 -24 31 2 57 1 57 -3 0 -3 -7 -26 -16 -50 -9
-24 -22 -63 -30 -87 l-13 -43 44 -19 c25 -11 45 -23 45 -29 0 -5 -15 -31 -34
-57 -19 -27 -55 -84 -81 -126 -26 -43 -51 -81 -56 -84 -17 -10 -9 -22 22 -33
27 -9 29 -12 18 -33 -7 -13 -69 -81 -138 -153 -145 -150 -191 -206 -191 -234
0 -25 28 -41 74 -41 20 0 36 -4 36 -8 0 -4 -9 -33 -20 -65 -11 -31 -24 -81
-28 -109 -6 -45 -12 -56 -39 -73 -34 -21 -46 -49 -59 -140 -4 -27 -16 -63 -27
-78 -17 -26 -24 -28 -61 -24 -22 3 -53 8 -68 12 -21 6 -29 3 -34 -10 -11 -27
15 -36 89 -33 68 4 68 4 63 -22 -3 -14 -7 -47 -11 -75 -11 -95 -15 -104 -51
-121 -61 -29 -65 -124 -9 -233 29 -58 31 -77 10 -85 -18 -7 -47 20 -70 63 -17
33 -26 37 -55 21 -25 -13 -39 -60 -46 -154 -6 -72 -4 -85 15 -116 27 -45 27
-56 -5 -64 -14 -4 -51 -32 -82 -64 -32 -31 -86 -75 -122 -96 -36 -22 -84 -55
-108 -73 -23 -19 -77 -52 -120 -74 -42 -22 -97 -59 -122 -83 -46 -44 -109 -91
-114 -85 -4 7 -26 125 -26 142 0 10 12 23 28 29 15 7 61 35 102 63 41 27 100
66 132 85 142 88 231 156 292 221 36 39 66 78 66 86 0 16 -12 8 -131 -96 -69
-60 -171 -131 -284 -196 -27 -16 -77 -48 -110 -72 -94 -68 -97 -65 -111 112
l-7 81 59 44 c57 42 182 171 361 374 l87 98 41 -7 c103 -17 108 -18 103 -5 -2
7 -24 21 -48 30 -24 9 -46 22 -47 27 -2 6 30 52 72 104 126 156 208 269 268
367 53 89 95 187 84 198 -3 3 -20 -20 -38 -51 -68 -113 -261 -384 -312 -436
-28 -30 -88 -97 -132 -149 -192 -229 -489 -530 -505 -514 -10 10 -40 224 -40
286 0 38 6 47 73 112 80 79 167 190 167 213 0 23 -20 4 -113 -107 -43 -52 -89
-103 -102 -113 l-23 -18 -7 58 c-4 32 -11 78 -15 103 -8 42 -6 48 28 90 20 25
86 95 148 155 61 61 142 147 179 193 79 98 97 110 116 81 17 -24 81 -41 127
-33 44 8 40 20 -7 27 -37 5 -111 50 -111 67 0 4 53 59 118 121 64 63 133 133
151 156 l34 42 72 -6 c92 -7 105 9 25 31 -64 18 -70 25 -43 47 9 8 25 34 35
57 11 24 27 52 36 62 10 10 37 46 61 79 41 59 44 61 77 55 36 -7 84 1 84 14 0
4 -15 14 -33 22 -50 23 -45 46 28 134 72 86 131 185 141 234 10 51 -10 38 -51
-33 -21 -36 -79 -114 -127 -173 -94 -113 -179 -228 -262 -352 -88 -133 -161
-222 -298 -365 -73 -77 -180 -192 -238 -255 -118 -131 -285 -290 -305 -290
-15 0 -20 25 -36 201 l-12 137 54 53 c58 57 162 215 152 231 -7 13 -23 -3 -80
-87 -26 -39 -64 -92 -83 -119 l-35 -48 -7 49 c-3 26 -7 70 -7 98 -1 48 0 50
82 134 45 46 123 123 172 170 127 121 182 178 228 239 l39 52 109 0 c59 0 110
4 113 8 3 5 -34 14 -81 20 -47 6 -88 14 -91 17 -11 11 172 260 204 278 8 5 30
3 50 -3 43 -15 138 -5 155 16 10 12 2 14 -49 14 -71 0 -112 13 -112 35 0 9 7
30 16 48 19 36 145 239 211 337 23 36 43 69 43 74 0 5 36 76 81 158 83 154
136 278 119 278 -16 0 -52 -57 -176 -279 -63 -113 -123 -214 -133 -225 -17
-20 -65 -92 -246 -371 -43 -66 -99 -147 -125 -180 -26 -33 -66 -89 -90 -124
-61 -91 -225 -275 -380 -425 -151 -147 -156 -148 -147 -22 3 39 8 123 10 186
8 178 7 177 109 287 98 105 145 169 133 181 -9 9 -84 -74 -101 -114 -13 -32
-86 -104 -105 -104 -11 0 -3 167 10 218 6 21 327 353 341 352 3 -1 21 -14 40
-30 22 -19 45 -30 65 -30 47 0 50 11 9 34 -20 12 -43 33 -51 47 -15 25 -14 28
38 95 29 38 78 97 107 131 54 62 54 62 82 48 31 -16 125 -20 134 -6 3 5 -22
14 -55 20 -33 7 -62 18 -65 26 -3 8 9 36 27 62 66 97 181 243 191 243 5 0 23
-11 40 -25 24 -20 40 -25 86 -25 l57 1 -60 28 c-33 16 -69 35 -80 44 -19 15
-19 15 7 54 44 66 89 164 86 184 -4 26 -20 27 -33 3 -5 -11 -21 -36 -34 -57
-13 -21 -23 -49 -23 -63 0 -13 -4 -24 -9 -24 -4 0 -51 -51 -103 -112 -84 -101
-142 -173 -275 -343 -44 -56 -418 -448 -468 -490 -39 -31 -40 -27 -19 72 8 37
20 115 26 173 17 161 39 310 65 436 4 15 15 24 39 28 25 5 44 19 67 49 18 23
59 70 90 104 32 34 60 71 64 82 7 23 25 28 25 8 0 -19 43 -57 64 -57 16 0 16
3 -3 29 -12 16 -21 40 -21 54 0 44 98 156 138 158 9 0 42 0 72 -1 55 -1 119
15 107 27 -4 3 -40 5 -82 4 -84 -2 -89 3 -52 53 13 17 26 38 30 46 4 8 26 47
50 85 l44 70 89 11 c112 14 154 23 154 34 0 4 -47 5 -105 3 l-104 -6 44 104
c25 57 45 112 45 122 0 34 -25 12 -57 -50 -50 -98 -92 -170 -108 -183 -8 -7
-38 -52 -66 -101 -32 -58 -88 -130 -157 -206 -171 -187 -310 -328 -318 -321
-13 14 13 168 32 190 14 14 20 42 25 99 4 54 11 84 23 98 9 10 21 45 26 77 8
60 27 114 40 114 4 0 38 41 75 91 57 78 70 90 88 84 70 -22 86 -15 47 20 -25
23 -25 34 2 89 20 41 23 44 54 39 38 -6 84 3 84 17 0 6 -10 10 -23 10 -13 0
-31 6 -41 13 -16 12 -16 16 10 77 15 36 35 74 44 85 35 41 50 85 29 85 -27 0
-137 -149 -202 -275 -37 -71 -130 -195 -146 -195 -5 0 -2 21 6 48 58 180 73
248 109 488 14 98 29 194 31 212 4 26 2 31 -10 26 -29 -11 -77 -148 -77 -220
0 -23 -7 -72 -14 -110 -8 -38 -18 -86 -21 -106 -3 -21 -10 -38 -15 -38 -11 0
-26 50 -34 110 -7 48 -21 79 -31 68 -4 -4 -7 -37 -6 -74 0 -60 4 -74 31 -112
19 -26 30 -55 30 -76 0 -37 -28 -126 -39 -126 -5 0 -18 35 -30 78 -13 42 -36
115 -51 162 -16 47 -34 112 -41 145 -6 33 -16 69 -21 79 -6 10 -14 48 -18 83
-5 35 -14 71 -21 79 -36 44 -35 -85 1 -192 11 -32 20 -72 20 -89 0 -31 -2 -33
-48 -39 -27 -3 -52 -9 -55 -13 -14 -13 17 -33 50 -33 49 0 68 -14 87 -60 22
-54 20 -87 -4 -100 -29 -15 -25 -27 14 -40 29 -9 37 -19 56 -73 13 -34 23 -82
24 -107 1 -49 -22 -140 -35 -140 -4 0 -16 16 -25 35 -9 19 -20 35 -25 35 -13
0 -11 -13 7 -67 17 -49 15 -142 -4 -193 -9 -24 -10 -23 -29 20 -58 127 -74
102 -34 -50 22 -82 29 -125 23 -137 -5 -10 -13 -40 -17 -67 -13 -90 -24 -97
-56 -34 -29 56 -139 406 -139 441 0 15 -7 44 -16 65 -28 67 -46 238 -46 435 0
103 -4 187 -8 187 -15 0 -22 -36 -36 -174 -13 -140 -19 -156 -56 -156 -10 0
-18 -6 -18 -13 0 -7 -12 -18 -27 -24 -24 -10 -21 -11 24 -6 64 7 65 4 87 -142
10 -60 19 -117 22 -126 3 -10 -15 -27 -58 -52 -34 -20 -67 -38 -72 -40 -6 -3
-8 -8 -4 -12 12 -13 66 -7 90 9 26 19 54 21 64 5 8 -14 54 -179 54 -196 0 -7
-18 -25 -40 -39 -60 -40 -53 -55 19 -47 l60 6 6 -39 c3 -22 24 -85 46 -142 22
-57 41 -115 41 -130 1 -43 -33 -246 -43 -256 -14 -15 -18 -5 -47 100 -28 101
-52 134 -52 72 0 -64 22 -153 52 -215 27 -56 30 -68 23 -119 -12 -102 -17
-105 -59 -38 -20 32 -56 96 -79 141 -23 46 -46 83 -51 83 -16 0 3 -98 29 -152
52 -104 99 -178 117 -184 22 -7 23 -43 4 -132 -15 -71 -18 -75 -37 -67 -46 18
-178 341 -259 635 -12 41 -26 86 -32 100 -5 14 -23 88 -38 165 -16 77 -38 183
-49 235 -33 155 -44 300 -37 470 3 85 9 168 13 184 4 21 3 27 -6 22 -44 -27
-75 -201 -68 -373 l5 -122 -50 6 c-68 8 -61 -14 11 -42 l53 -20 5 -64 c2 -35
12 -84 23 -110 10 -26 20 -64 21 -85 4 -39 4 -39 -46 -53 -27 -8 -57 -22 -65
-30 -13 -14 -7 -15 61 -10 l76 5 30 -150 30 -150 -53 -24 c-30 -13 -54 -28
-54 -33 0 -6 28 -11 62 -13 l62 -3 23 -60 c12 -33 32 -91 44 -128 l21 -68 -22
-16 c-23 -17 -19 -27 21 -47 13 -6 29 -22 35 -36 7 -14 29 -60 49 -103 20 -43
59 -105 87 -139 l51 -61 -10 -124 c-6 -69 -15 -129 -20 -134 -9 -9 -60 53
-105 132 -15 25 -34 51 -42 59 -14 11 -16 9 -16 -12 0 -29 62 -136 113 -193
36 -42 37 -45 37 -124 0 -45 -4 -81 -8 -81 -11 0 -84 78 -109 115 -11 17 -27
51 -37 77 -17 46 -41 76 -52 65 -4 -3 4 -38 16 -78 29 -98 71 -161 143 -214
l37 -28 -2 -108 c-2 -60 -6 -109 -10 -109 -8 0 -26 24 -106 139 -20 29 -59 82
-87 116 -230 291 -259 345 -402 745 -24 68 -60 150 -78 181 -23 37 -48 106
-75 205 -23 82 -59 200 -80 262 -22 62 -49 159 -60 215 -12 56 -25 106 -30
111 -5 5 -12 -13 -16 -40 -5 -36 0 -79 21 -174 15 -69 33 -136 40 -150 19 -36
51 -140 80 -263 15 -59 33 -127 41 -149 13 -37 13 -43 -1 -51 -9 -4 -41 -30
-73 -56 -31 -26 -67 -53 -80 -60 -28 -15 -28 -31 1 -31 29 0 124 61 159 103
34 40 34 40 89 -118 23 -66 55 -153 71 -194 16 -40 26 -76 23 -79 -3 -4 -42
-27 -87 -52 -45 -25 -81 -49 -81 -55 -1 -19 35 -17 57 4 23 22 133 64 146 56
4 -2 10 -22 14 -44 3 -24 24 -66 51 -103 74 -103 74 -106 39 -137 -17 -14 -39
-31 -50 -37 -39 -23 -1 -27 61 -7 l65 21 33 -43 c17 -23 39 -53 47 -65 8 -13
33 -46 56 -74 22 -28 50 -67 62 -87 36 -60 81 -113 118 -139 35 -25 36 -28 40
-105 3 -44 9 -124 14 -179 12 -123 13 -206 1 -206 -20 0 -122 90 -238 209 -67
69 -125 123 -128 119 -28 -27 188 -271 313 -352 71 -47 72 -48 72 -92 0 -24
-2 -44 -5 -44 -3 0 -23 9 -45 20 -22 11 -50 20 -63 20 -26 0 -116 55 -189 116
-26 21 -78 64 -115 94 -102 82 -338 326 -387 400 -51 77 -119 210 -171 335
-20 49 -45 101 -55 115 -36 52 -80 150 -104 236 -29 102 -51 160 -66 169 -14
9 -13 -30 5 -121 22 -114 51 -196 112 -311 l54 -101 -51 -29 c-57 -32 -65 -48
-17 -39 86 19 85 20 131 -81 24 -51 59 -121 80 -155 26 -44 33 -64 24 -67 -22
-7 -118 -103 -112 -112 9 -15 20 -10 72 31 27 22 56 40 64 40 8 0 32 -18 53
-41 22 -22 54 -49 71 -60 18 -11 44 -43 60 -74 l29 -54 -24 -25 c-32 -34 -21
-43 36 -28 l46 13 71 -68 c39 -37 94 -86 121 -108 70 -56 265 -185 291 -191
12 -3 33 2 47 11 23 15 26 15 41 0 10 -11 16 -34 16 -64 0 -26 3 -89 6 -139
l7 -92 -27 0 c-31 0 -96 31 -116 55 -17 21 -66 46 -73 38 -8 -8 27 -74 50 -95
10 -10 48 -25 83 -34 36 -8 71 -23 78 -32 17 -22 16 -152 -1 -152 -39 0 -315
178 -467 302 -19 16 -80 65 -135 109 -115 93 -223 206 -285 299 -24 36 -83
106 -130 155 -49 50 -105 120 -126 158 -39 69 -54 82 -54 47 0 -38 59 -138
115 -196 93 -95 155 -180 155 -212 0 -6 -34 -31 -75 -57 -41 -25 -73 -51 -70
-56 7 -10 50 10 112 52 23 16 46 29 51 29 10 0 64 -63 141 -163 l50 -66 -49
-30 c-28 -17 -50 -35 -50 -41 0 -17 30 -11 68 15 20 14 48 25 63 25 31 0 84
-37 156 -108 28 -29 56 -52 62 -52 18 0 13 -22 -11 -47 -30 -32 -16 -40 32
-18 l40 18 43 -30 c44 -32 212 -135 260 -160 15 -8 49 -18 75 -21 l47 -7 6
-55 c4 -30 10 -106 13 -167 l6 -113 -26 0 c-15 0 -55 15 -88 33 -34 19 -77 40
-96 48 -136 53 -389 240 -491 363 -55 66 -69 77 -69 53 0 -40 167 -235 252
-295 144 -102 219 -151 258 -167 25 -11 61 -29 80 -41 33 -21 72 -35 132 -48
31 -7 58 -50 58 -91 0 -14 -2 -25 -5 -25 -2 0 -26 14 -52 30 -26 17 -79 40
-118 51 -38 11 -99 29 -135 39 -288 83 -337 105 -325 143 9 29 8 58 -3 69 -4
4 -78 37 -163 72 -234 95 -252 108 -181 121 93 17 83 64 -28 127 -44 26 -120
100 -191 188 -37 45 -37 45 -58 26 -11 -11 -21 -26 -21 -34 0 -22 185 -198
241 -228 51 -28 62 -44 30 -44 -28 0 -71 -39 -71 -65 0 -23 59 -85 81 -85 6 0
43 -15 82 -34 40 -19 94 -42 122 -51 63 -21 78 -33 71 -61 -4 -15 5 -36 34
-71 36 -46 47 -53 134 -81 53 -17 122 -43 156 -57 33 -14 87 -28 120 -32 68
-7 135 -46 226 -133 l56 -54 -7 -219 c-4 -121 -11 -234 -16 -251 -5 -17 -9
-50 -9 -73 0 -47 -13 -61 -39 -41 -10 7 -37 28 -61 45 -53 41 -77 41 -126 2
-27 -21 -44 -28 -59 -24 -11 4 -45 12 -75 20 -71 17 -137 40 -230 81 -41 18
-88 36 -105 40 -16 3 -50 12 -75 19 -25 7 -70 18 -100 25 -30 7 -86 26 -123
43 -55 24 -71 37 -82 64 -8 19 -32 44 -57 60 -46 29 -140 110 -266 228 -41 39
-118 125 -171 192 -98 124 -107 136 -188 258 -25 39 -63 89 -83 112 -20 23
-49 61 -65 85 -16 24 -59 84 -96 133 -70 95 -99 144 -99 169 0 7 27 37 59 65
54 47 88 100 74 115 -4 3 -15 6 -25 6 -25 0 -23 6 15 53 29 37 32 48 33 112 0
38 4 91 8 117 8 42 6 48 -10 55 -43 16 -45 52 -4 95 17 17 33 43 36 57 14 61
2 48 182 212 25 22 45 51 48 69 4 16 10 30 14 30 4 0 20 -30 36 -67 30 -73 73
-145 123 -207 37 -47 38 -54 6 -85 -25 -23 -33 -65 -15 -76 5 -3 21 -28 36
-55 15 -27 45 -62 67 -77 50 -34 189 -184 213 -229 18 -33 18 -34 0 -47 -37
-27 -2 -67 59 -67 36 0 96 21 102 36 11 29 -71 131 -232 289 -90 88 -166 171
-170 184 -5 16 -1 32 14 52 26 35 27 59 3 90 -61 80 -151 276 -137 299 3 5 27
10 52 10 44 0 77 16 130 63 21 19 21 21 6 51 -8 17 -28 45 -43 61 -36 39 -100
155 -100 183 0 11 4 24 10 27 24 15 9 35 -24 35 -35 0 -35 0 -24 33 16 46 27
57 59 57 35 0 35 3 8 47 -12 19 -34 74 -48 121 -22 71 -31 88 -48 90 -34 5
-45 -26 -32 -92 7 -30 9 -61 6 -68 -4 -12 -98 -48 -125 -48 -21 0 -13 25 33
106 25 43 45 86 45 95 0 10 21 43 47 76 26 32 48 60 49 62 2 1 13 -4 26 -13
37 -26 48 -20 48 27 l0 44 48 -8 c69 -11 68 -12 107 22 45 40 45 65 0 234 -41
151 -42 165 -16 165 33 0 51 11 51 31 0 11 -16 80 -35 155 -19 74 -35 144 -35
155 0 20 15 26 25 9 8 -12 25 -13 44 -1 10 6 14 43 15 152 3 189 23 235 83
185 34 -29 97 -56 129 -56 21 0 24 5 24 36 0 55 41 247 56 263 12 13 16 12 33
-3 30 -27 49 -14 56 41 9 72 43 184 62 205 13 14 25 18 49 14 40 -8 59 13 72
84 22 112 48 190 69 212 20 20 25 20 48 8 15 -8 48 -36 75 -62 27 -26 56 -48
64 -48 14 0 41 36 99 132 11 17 31 31 54 38 30 8 44 20 68 60 52 89 103 120
123 75 8 -17 20 -25 36 -25 21 0 28 9 45 55 12 31 21 61 21 67 0 22 72 127
115 167 52 48 67 50 89 16 22 -34 41 -31 81 11 35 36 55 38 55 4 0 -34 18 -31
65 10 25 22 56 40 68 40 35 0 63 25 98 88 36 64 58 92 71 92 5 0 15 -15 23
-32 8 -18 30 -55 49 -82 33 -46 36 -55 36 -122 0 -98 3 -104 56 -104 41 0 44
-2 54 -37 6 -21 14 -56 18 -78 7 -36 11 -40 40 -43 29 -3 34 -8 44 -48 11 -40
15 -44 43 -44 17 0 52 13 79 31 l49 30 -5 -221 c-4 -207 -3 -222 14 -231 20
-11 85 13 138 51 32 22 36 35 20 60 -8 13 -14 12 -45 -4 -31 -17 -38 -18 -45
-6 -13 21 -4 435 10 461 8 14 8 25 2 31 -17 17 -46 0 -75 -46 -24 -38 -105
-116 -121 -116 -3 0 -6 33 -8 73 -3 77 -1 75 -62 65 -25 -4 -44 49 -45 125 -1
65 -15 79 -57 57 -13 -8 -26 -11 -29 -8 -3 3 -9 29 -14 57 -5 31 -20 69 -38
94 -16 23 -45 78 -63 122 -19 44 -37 84 -41 88 -11 14 -49 -16 -72 -57 -59
-105 -98 -156 -120 -156 -11 0 -35 -12 -54 -26 -28 -21 -40 -24 -77 -19 -33 5
-50 3 -69 -10 -25 -16 -27 -16 -59 9 -22 16 -41 23 -55 20 -26 -7 -159 -170
-199 -243 -30 -55 -38 -59 -72 -35 -22 15 -25 14 -64 -28 -22 -23 -51 -62 -65
-85 -14 -24 -32 -43 -42 -43 -22 0 -67 -49 -116 -122 -46 -71 -64 -74 -131
-17 -65 54 -83 60 -117 40 -39 -22 -61 -62 -85 -151 -34 -125 -38 -133 -68
-126 -46 12 -99 -72 -133 -209 -9 -33 -18 -44 -54 -63 -49 -26 -73 -66 -81
-132 -10 -89 -24 -171 -31 -178 -3 -4 -25 4 -48 18 -95 55 -114 63 -130 57
-23 -9 -67 -157 -74 -255 -6 -82 -6 -83 -35 -89 -16 -3 -37 -17 -46 -31 -15
-23 -15 -28 2 -71 13 -35 56 -201 56 -218 0 -2 -11 -3 -24 -3 -28 0 -56 -24
-56 -48 0 -24 21 -105 69 -271 46 -155 45 -161 -12 -161 -42 0 -65 16 -82 58
-9 20 -26 44 -37 54 -22 16 -22 16 -5 90 21 89 22 179 2 217 -17 34 -32 41
-69 34 l-28 -6 9 79 c10 99 10 180 0 190 -4 5 -34 -6 -66 -24 -61 -33 -111
-42 -111 -19 0 8 11 41 25 75 14 34 25 73 25 87 0 32 -24 81 -47 94 -13 7 -14
12 -6 23 6 7 17 51 23 97 10 65 10 95 1 137 -12 51 -19 60 -69 90 -1 0 -7 62
-12 137 -6 74 -13 142 -16 151 -4 9 -19 23 -34 31 -29 15 -50 72 -50 138 0 18
-6 41 -13 51 -13 17 -15 16 -36 -17 -24 -39 -85 -97 -103 -97 -8 0 -9 44 -5
154 6 167 0 196 -42 206 -28 6 -45 61 -61 194 -9 83 -20 99 -57 90 -18 -5 -25
1 -41 33 -11 21 -25 65 -32 98 -7 33 -23 81 -36 107 -21 41 -28 47 -61 50 -32
3 -38 7 -47 39 -14 46 -62 107 -74 94 -5 -6 -19 -39 -31 -75 -40 -123 -73
-138 -86 -39 -4 28 -21 76 -37 107 -84 157 -128 245 -128 257 0 21 -17 27 -40
13 -18 -11 -23 -10 -40 12 -11 14 -20 30 -20 35 -1 19 -86 179 -97 182 -6 2
-30 -23 -53 -56 -22 -34 -43 -61 -47 -61 -3 0 -25 18 -49 40 -24 22 -48 40
-53 40 -13 0 -27 -27 -36 -70 -4 -19 -18 -54 -31 -78 -36 -62 -40 -59 -174
143 -47 71 -133 171 -160 185 -14 8 -25 4 -48 -15 l-30 -25 -40 53 c-23 29
-53 63 -67 77 l-25 24 -31 -23 -31 -23 -56 56 c-30 31 -62 55 -71 54 -9 -2
-25 -32 -38 -73 -35 -105 -44 -109 -97 -52 -25 27 -61 53 -83 61 -22 8 -62 31
-89 51 -40 30 -53 36 -78 30 -61 -13 -83 -9 -117 23 -19 18 -38 32 -42 32 -5
0 -30 19 -57 41 -29 24 -55 39 -64 36 -10 -4 -16 2 -19 16 -2 12 -5 16 -6 10z
m107 -170 c42 -31 89 -69 104 -85 30 -31 55 -35 84 -13 27 21 40 19 89 -15 24
-16 53 -30 66 -30 13 0 39 -19 67 -50 29 -32 53 -50 68 -50 33 0 91 55 99 93
4 18 9 36 12 40 3 4 30 -15 60 -44 l55 -52 19 32 c10 17 25 31 33 31 8 0 36
-30 62 -67 26 -36 56 -75 66 -85 19 -19 20 -19 55 3 l36 23 44 -50 c23 -27 69
-89 100 -137 124 -188 123 -188 174 -166 34 14 69 62 69 95 0 36 24 48 59 30
38 -20 75 -8 112 37 23 27 29 30 43 18 14 -12 93 -167 117 -228 10 -27 34 -30
43 -7 9 24 58 -46 81 -115 9 -29 30 -67 45 -84 20 -24 32 -56 45 -120 11 -53
24 -91 32 -94 27 -11 65 22 94 79 16 32 34 58 39 58 11 0 34 -44 44 -82 7 -32
21 -35 49 -11 18 17 19 17 33 -1 7 -10 27 -64 44 -120 52 -170 52 -171 86
-171 27 0 30 -4 41 -50 7 -27 18 -90 24 -140 16 -136 16 -137 39 -125 45 24
46 -67 4 -322 -6 -37 -6 -38 22 -38 38 1 61 16 113 73 24 26 47 45 50 42 3 -4
10 -48 16 -98 l10 -92 31 3 c29 3 32 0 38 -35 3 -21 6 -95 6 -165 0 -79 4
-129 11 -133 6 -4 21 2 33 14 12 12 26 21 31 21 11 0 -2 -137 -25 -260 -11
-58 -20 -107 -20 -109 0 -2 13 -1 30 3 38 7 38 0 1 -101 -37 -101 -30 -123 38
-123 19 0 42 7 51 15 22 20 88 46 93 37 3 -4 -2 -67 -10 -140 -9 -73 -13 -136
-9 -139 3 -4 16 3 29 15 30 28 52 28 71 0 22 -31 20 -62 -10 -190 -31 -138
-30 -164 9 -161 26 2 28 0 23 -23 -4 -14 -40 -65 -81 -112 -77 -91 -95 -124
-95 -172 0 -20 -15 -48 -46 -86 -55 -67 -74 -101 -74 -131 0 -18 7 -23 43 -28
33 -5 61 0 127 24 90 33 110 37 110 22 0 -14 -64 -147 -105 -216 -43 -73 -43
-90 -5 -110 17 -9 30 -20 30 -26 0 -5 -36 -44 -80 -86 -107 -101 -116 -142
-32 -143 17 0 32 -4 32 -9 0 -5 -21 -26 -47 -47 -27 -21 -73 -61 -103 -89 -52
-48 -53 -45 -5 28 25 40 8 53 -38 31 -44 -21 -49 -17 -38 23 14 48 -2 62 -38
35 -40 -29 -45 -28 -27 7 19 36 66 160 66 173 0 6 -11 8 -25 6 -29 -6 -30 2
-13 69 10 40 9 47 -6 55 -15 8 -16 20 -10 79 6 59 4 70 -10 75 -19 7 -71 -38
-109 -94 -19 -29 -26 -33 -55 -28 -30 5 -36 1 -79 -55 -28 -35 -54 -59 -65
-59 -37 0 -60 -22 -89 -86 -17 -37 -35 -64 -44 -64 -23 0 -19 12 28 81 45 67
85 138 210 379 73 142 101 213 147 374 12 44 31 93 41 110 58 101 144 456 110
456 -9 0 -16 -26 -51 -170 -23 -94 -59 -191 -118 -320 -21 -47 -49 -116 -62
-155 -56 -173 -191 -440 -391 -775 -40 -67 -52 -101 -58 -166 -4 -40 -9 -76
-13 -79 -10 -10 -56 14 -61 32 -3 10 -13 60 -23 112 -14 75 -23 100 -47 127
-16 19 -37 34 -47 34 -23 0 -35 16 -81 107 l-38 78 34 61 c19 34 47 92 62 130
41 101 84 150 137 157 67 9 181 65 165 81 -3 3 -30 -2 -60 -12 -57 -20 -119
-34 -119 -28 0 8 128 263 148 296 12 19 22 48 22 63 0 26 2 28 34 21 50 -9
176 34 176 59 0 12 -8 12 -52 1 -29 -8 -67 -14 -85 -14 -43 0 -43 18 -1 96 18
32 55 120 83 194 l51 135 46 8 c29 6 55 18 70 34 l23 26 -25 -6 c-85 -19 -90
-19 -90 -4 0 9 9 37 21 64 11 26 29 93 40 148 11 55 30 145 44 200 50 206 53
228 48 313 -3 45 -9 82 -13 82 -18 0 -28 -30 -33 -101 -8 -93 -39 -254 -72
-374 -13 -49 -33 -124 -44 -165 -10 -41 -45 -142 -76 -225 -31 -82 -63 -172
-70 -200 -29 -106 -197 -452 -391 -803 -78 -140 -92 -162 -103 -162 -10 0 -66
100 -86 152 -10 26 -25 53 -33 60 -13 11 -14 10 -4 -9 16 -29 15 -34 -3 -26
-18 6 -65 93 -65 118 0 11 6 15 19 10 15 -4 18 -1 14 18 -3 15 13 65 40 128
25 57 50 122 55 144 17 68 23 125 13 125 -10 0 -51 -100 -51 -123 0 -24 -84
-187 -94 -184 -6 2 -35 48 -65 102 l-53 99 26 50 c89 168 100 180 169 182 49
2 165 33 197 53 31 20 -3 23 -82 7 -143 -28 -142 -28 -68 120 56 108 98 202
181 399 16 39 44 113 62 165 28 83 35 95 57 98 59 8 103 25 135 53 19 17 35
35 35 39 0 4 -27 -3 -60 -17 -64 -26 -127 -28 -122 -4 1 7 14 52 28 100 14 47
32 127 40 176 18 100 23 111 63 120 31 7 99 60 90 69 -4 4 -29 -2 -57 -13 -29
-12 -54 -16 -57 -11 -3 5 -1 58 6 117 11 114 9 476 -3 489 -5 4 -11 5 -14 1
-3 -3 -10 -90 -15 -194 -18 -355 -53 -577 -138 -868 -16 -55 -39 -136 -51
-180 -12 -44 -37 -111 -55 -150 -18 -38 -47 -104 -65 -145 -61 -139 -122 -254
-228 -425 -58 -93 -111 -176 -118 -184 -10 -11 -14 -6 -24 25 -7 22 -57 131
-112 244 -55 113 -115 243 -134 289 l-34 84 20 60 c12 33 29 76 39 96 10 20
21 58 25 85 3 27 18 68 34 91 15 24 35 57 44 73 12 23 26 32 55 37 95 15 178
37 221 57 66 31 30 34 -86 8 -50 -11 -106 -20 -123 -20 -31 0 -31 0 -24 43 4
23 20 66 36 95 15 29 31 73 35 99 4 25 23 76 44 112 27 49 45 102 68 201 67
296 92 510 92 799 0 209 -11 294 -33 272 -8 -8 -14 -93 -18 -253 -8 -271 -9
-281 -50 -573 -35 -251 -46 -296 -104 -445 -24 -63 -68 -180 -96 -260 -29 -80
-72 -183 -97 -229 -25 -47 -53 -111 -61 -144 -27 -101 -68 -101 -97 -1 -8 29
-26 69 -39 89 -14 19 -33 61 -44 93 -11 31 -36 95 -56 142 -20 47 -56 145 -80
218 l-43 134 33 66 c18 37 36 77 39 90 5 14 15 22 29 22 13 0 31 6 42 14 11 7
31 16 45 20 28 7 97 63 88 71 -3 3 -30 -6 -61 -19 -30 -14 -68 -26 -84 -28
-26 -3 -28 -1 -25 27 2 17 12 57 22 90 11 33 29 113 40 178 11 64 29 136 41
158 11 23 28 78 37 122 l17 82 57 30 c68 36 126 80 116 90 -6 7 -78 -28 -135
-66 -32 -21 -33 -21 -33 -1 0 11 9 78 20 150 39 260 36 452 -6 452 -14 0 -15
-12 -10 -87 5 -67 1 -134 -18 -278 -41 -307 -54 -384 -90 -505 -19 -63 -48
-167 -65 -230 -29 -111 -104 -339 -121 -370 -7 -13 -10 -12 -16 5 -4 11 -22
58 -41 105 -39 98 -45 173 -19 260 9 30 19 108 23 174 6 112 5 118 -13 114
-20 -3 -20 0 -43 -212 -12 -99 -23 -138 -35 -118 -3 5 -31 83 -62 173 -62 181
-63 195 -20 294 19 42 31 56 53 61 50 13 113 43 113 55 0 8 -15 10 -50 5 l-51
-7 7 28 c39 174 52 204 100 233 70 41 104 65 104 72 0 12 -63 -14 -109 -45
-36 -24 -42 -26 -38 -11 28 94 51 323 34 340 -16 16 -35 -50 -42 -139 -6 -93
-42 -263 -86 -409 -17 -56 -26 -70 -56 -88 -32 -19 -35 -24 -29 -54 7 -37 -10
-95 -23 -80 -22 23 -111 278 -111 315 0 25 -7 50 -19 66 -11 13 -27 50 -36 81
-20 72 -100 330 -125 402 -10 30 -21 72 -25 92 -3 21 -17 50 -31 65 -21 23
-24 25 -20 8 2 -11 10 -47 16 -80 7 -33 20 -85 30 -115 54 -171 101 -350 91
-350 -12 0 -134 130 -179 192 -42 58 -59 74 -68 65 -8 -7 33 -85 69 -132 17
-22 70 -81 119 -131 82 -83 91 -97 122 -180 36 -94 52 -154 42 -154 -4 0 -27
19 -51 41 -95 87 -57 2 40 -92 49 -48 70 -78 86 -119 11 -30 34 -90 51 -132
32 -82 34 -125 2 -71 -10 18 -28 36 -39 41 -35 17 -130 103 -140 128 -6 13
-41 49 -79 80 -37 30 -79 74 -94 96 -15 22 -50 68 -78 101 -27 34 -76 101
-108 150 -31 48 -62 87 -67 87 -22 0 68 -170 131 -246 22 -27 40 -52 40 -56 0
-13 -62 -47 -98 -54 -34 -7 -39 -26 -8 -32 28 -6 62 6 95 33 l30 26 12 -23 c7
-13 39 -51 72 -85 32 -34 56 -66 53 -71 -3 -5 -24 -12 -46 -16 -43 -7 -54 -28
-22 -45 12 -6 34 -4 69 8 l52 18 66 -67 c65 -66 66 -66 45 -85 -11 -10 -20
-26 -20 -37 0 -22 1 -22 45 -1 34 16 36 16 57 -4 13 -12 37 -24 55 -28 27 -5
35 -15 57 -68 54 -129 106 -271 101 -275 -5 -6 -4 -6 -111 81 -77 63 -104 78
-104 58 0 -12 128 -132 194 -180 30 -23 59 -49 64 -59 20 -39 113 -313 110
-323 -11 -32 -396 292 -448 376 -10 16 -59 70 -109 119 -50 49 -91 94 -91 100
0 7 -14 25 -31 42 -32 30 -126 149 -172 219 -15 22 -43 60 -61 85 -19 25 -35
50 -35 55 -1 6 -14 26 -31 45 -27 33 -29 33 -30 12 0 -32 41 -109 123 -232 95
-142 119 -173 239 -306 57 -63 103 -120 103 -127 0 -7 -17 -13 -37 -15 -41 -4
-68 -26 -50 -44 10 -10 58 -7 114 7 25 7 35 0 100 -70 40 -43 75 -82 77 -88 2
-6 -10 -8 -29 -5 -36 5 -50 -13 -29 -38 11 -13 25 -15 70 -10 46 5 59 4 70
-10 39 -47 227 -190 272 -207 10 -4 35 -44 57 -89 50 -108 56 -128 36 -128
-24 0 -20 -10 20 -51 32 -33 64 -113 50 -127 -3 -2 -76 43 -163 101 -150 100
-198 120 -138 57 16 -16 53 -47 84 -68 273 -188 268 -184 283 -234 14 -47 1
-61 -41 -48 -72 23 -133 49 -168 72 -21 14 -74 47 -118 73 -44 27 -98 64 -120
82 -239 198 -339 290 -577 532 -152 154 -279 281 -282 281 -10 0 24 -61 58
-105 17 -22 81 -94 143 -160 62 -65 113 -123 113 -127 0 -5 -21 -28 -46 -52
-70 -67 -41 -86 36 -24 19 15 41 28 48 28 17 0 59 -35 175 -148 l87 -85 -30
-52 c-37 -65 -25 -78 28 -30 22 19 44 35 49 35 6 0 48 -33 94 -73 46 -40 103
-88 127 -106 32 -25 42 -39 42 -62 0 -29 0 -29 25 -13 25 16 27 15 79 -19 29
-19 81 -49 115 -67 l63 -31 -7 -52 -6 -52 21 24 c11 13 25 31 29 39 11 20 67
9 112 -21 25 -17 46 -50 90 -147 32 -69 58 -134 58 -144 1 -18 0 -18 -19 -1
-22 20 -189 115 -202 115 -4 0 -8 -4 -8 -10 0 -5 -14 -7 -32 -3 l-33 6 20 -23
c11 -12 88 -55 170 -95 135 -65 152 -77 168 -109 9 -20 17 -44 17 -53 0 -34
-96 6 -350 146 -74 41 -163 87 -198 103 -34 16 -84 44 -110 62 -26 19 -67 44
-92 56 -44 22 -188 133 -202 156 -4 6 -36 33 -72 59 -35 26 -86 73 -112 106
-47 59 -128 129 -148 129 -6 0 3 -13 19 -28 17 -15 65 -71 108 -124 43 -53 88
-103 100 -111 13 -8 71 -60 131 -116 59 -56 132 -116 162 -133 62 -34 62 -33
13 -130 -16 -32 -29 -60 -29 -63 0 -16 45 22 80 69 l41 54 82 -35 c89 -39 111
-54 113 -81 0 -9 1 -34 2 -54 2 -49 25 -50 49 -4 l18 35 117 -68 c123 -71 227
-111 291 -111 31 0 37 -3 37 -21 0 -12 12 -35 27 -53 39 -46 172 -326 155
-326 -7 0 -44 14 -82 30 -38 16 -73 30 -79 30 -6 0 -80 47 -164 103 -166 113
-215 142 -225 132 -4 -4 4 -15 18 -24 13 -9 47 -34 75 -57 110 -89 246 -174
355 -223 63 -29 122 -56 130 -60 17 -9 44 -54 55 -88 15 -51 -104 -21 -285 71
-162 83 -275 147 -342 193 -42 30 -118 74 -168 98 -50 25 -93 52 -96 60 -4 8
-15 15 -25 15 -10 0 -33 13 -51 28 -18 16 -69 53 -112 83 -44 29 -158 129
-254 222 -108 105 -179 166 -188 163 -9 -3 -14 1 -14 12 0 10 -21 38 -47 63
-63 60 -83 74 -83 61 0 -19 143 -183 262 -301 l116 -113 -24 -42 c-43 -75 -26
-104 21 -36 15 22 30 40 32 40 3 0 37 -26 76 -59 40 -32 92 -71 117 -86 54
-33 100 -74 100 -90 0 -6 -11 -26 -25 -45 -45 -61 -25 -69 41 -15 l43 36 83
-42 c144 -72 161 -94 118 -149 -44 -57 -14 -68 36 -13 38 41 23 44 159 -31 84
-46 86 -49 71 -113 -10 -44 6 -43 34 2 12 19 27 35 32 35 6 0 59 -24 117 -53
58 -30 138 -62 176 -71 140 -35 129 -28 179 -130 25 -52 46 -96 46 -100 0 -12
-23 -6 -101 28 -43 19 -79 31 -79 26 0 -16 58 -56 106 -73 122 -44 135 -59
115 -134 l-11 -39 -72 7 c-40 4 -86 12 -101 18 -25 10 -28 9 -25 -6 4 -24 65
-52 127 -60 29 -3 55 -11 58 -17 4 -6 11 -58 15 -116 4 -58 10 -127 14 -155
l7 -50 -47 69 c-26 38 -54 83 -62 99 -21 39 -124 182 -171 236 -53 61 -71 70
-144 76 -44 3 -97 18 -162 45 -114 46 -154 69 -297 166 -274 185 -339 233
-447 325 -64 54 -119 97 -121 94 -9 -8 76 -110 134 -160 99 -85 144 -118 334
-244 102 -67 186 -127 188 -131 2 -5 -8 -26 -22 -47 -27 -39 -34 -73 -16 -73
14 0 48 57 55 92 l7 28 44 -31 c24 -16 74 -41 111 -54 86 -32 89 -35 74 -86
-16 -52 -8 -60 27 -26 16 15 30 27 33 27 3 0 6 -24 8 -52 3 -76 27 -173 61
-242 16 -34 43 -95 61 -136 17 -41 49 -108 70 -149 22 -40 39 -76 39 -78 0 -3
-21 19 -47 48 -63 72 -134 140 -215 205 -65 52 -67 55 -61 91 l6 38 -22 -19
c-21 -19 -22 -19 -44 1 -31 30 -116 73 -142 73 -60 0 -74 -72 -37 -193 11 -37
16 -69 11 -72 -15 -10 -49 15 -49 35 0 30 -11 51 -34 61 -11 6 -55 29 -96 52
-76 42 -94 69 -52 75 31 5 38 28 16 53 -9 11 -57 40 -106 66 -48 25 -98 57
-110 70 l-21 23 24 0 c31 0 169 99 169 121 0 10 -19 34 -42 54 -52 45 -213
141 -265 159 -30 10 -43 22 -60 58 -17 34 -44 62 -105 109 -138 105 -155 129
-128 180 12 22 4 31 -97 113 -34 26 -69 63 -79 82 l-18 33 28 30 28 30 -23 38
c-13 21 -73 90 -135 154 -61 63 -115 125 -118 137 -5 14 -1 30 8 44 9 12 16
29 16 38 0 9 -34 63 -75 120 -71 99 -88 141 -65 155 22 13 7 51 -52 132 -48
67 -59 89 -51 102 16 25 49 24 109 -3 63 -29 112 -34 120 -11 9 23 -27 125
-48 136 -11 6 -17 13 -14 16 3 3 -13 29 -35 59 -53 72 -63 100 -48 136 10 25
7 38 -26 111 -39 82 -44 115 -30 188 5 29 0 52 -25 110 -57 128 -52 184 14
169 55 -12 62 -1 48 69 -8 39 -10 88 -6 134 4 51 3 81 -6 97 -10 19 -9 27 10
52 19 25 21 38 15 77 -3 25 -7 73 -8 106 -2 46 -11 79 -41 142 -36 75 -38 85
-26 113 7 17 16 32 20 35 4 3 35 -7 69 -20 88 -36 121 -13 106 74 -5 29 -1 51
14 85 20 42 20 51 10 116 -8 48 -9 77 -2 93 6 13 8 65 5 124 -4 94 -3 103 14
109 11 3 30 10 44 16 14 6 33 12 43 13 21 2 37 22 37 46 0 9 12 38 26 64 15
26 33 76 40 111 8 35 21 75 30 89 13 20 14 41 8 129 -6 96 -3 136 11 136 3 0
40 -25 83 -57z m8182 -3773 c-2 -30 -5 -104 -5 -165 l0 -110 28 -3 c22 -3 27
-7 21 -20 -83 -193 -104 -300 -65 -322 11 -5 36 -10 55 -10 20 0 36 -2 36 -4
0 -29 -39 -159 -67 -225 -29 -68 -33 -85 -22 -92 8 -5 20 -9 27 -9 6 0 12 -4
12 -8 0 -23 -75 -190 -105 -234 -40 -58 -41 -61 -18 -83 12 -13 26 -15 57 -11
94 14 90 15 100 -35 9 -45 7 -50 -33 -110 -47 -72 -49 -84 -21 -99 26 -14 25
-29 -5 -70 -13 -18 -30 -49 -36 -68 -11 -33 -10 -37 16 -58 l28 -22 -20 -28
c-26 -37 -93 -190 -93 -212 0 -37 29 -62 71 -62 50 0 51 -19 3 -72 -30 -33
-35 -46 -30 -70 5 -24 -1 -36 -35 -71 -37 -39 -40 -45 -34 -82 5 -38 3 -43
-45 -90 -28 -27 -50 -58 -50 -70 0 -11 -10 -34 -22 -52 -66 -90 -113 -149
-125 -156 -33 -20 -3 -68 50 -81 15 -3 27 -11 27 -17 0 -12 -109 -121 -168
-168 -38 -29 -42 -37 -37 -61 7 -34 -9 -47 -98 -80 -61 -23 -81 -46 -54 -62
43 -24 13 -49 -105 -87 -80 -27 -96 -41 -79 -77 6 -14 9 -30 5 -35 -13 -21
-66 -38 -172 -54 -206 -32 -238 -52 -163 -100 23 -14 41 -29 41 -34 0 -36
-102 -82 -195 -89 -104 -7 -128 -25 -82 -63 19 -16 20 -20 7 -29 -16 -10 -59
-14 -127 -11 -36 2 -43 -1 -55 -26 l-14 -28 -100 3 c-131 5 -254 -13 -317 -44
-27 -14 -51 -23 -54 -21 -5 6 30 77 63 127 23 34 29 37 117 54 159 30 343 99
462 174 29 18 30 18 73 -6 51 -29 69 -21 27 12 -15 12 -26 27 -22 32 3 6 30
22 59 37 68 35 168 113 168 132 0 19 -24 19 -40 0 -36 -43 -390 -229 -550
-288 -91 -33 -247 -73 -256 -65 -2 2 5 26 15 53 18 47 20 49 107 85 106 43
170 76 179 90 13 21 -37 9 -125 -30 -50 -22 -95 -40 -100 -40 -17 0 -10 34 18
85 l27 50 100 23 c55 13 134 35 175 49 90 29 107 29 171 2 60 -26 72 -20 24
12 -19 13 -34 28 -32 33 2 5 22 15 45 22 24 6 48 16 55 22 20 16 126 52 153
52 13 0 51 -11 84 -24 33 -14 60 -21 60 -16 0 5 -18 23 -41 41 -23 18 -37 35
-31 41 4 4 44 27 88 49 43 22 102 55 129 73 28 18 97 64 155 101 138 90 270
215 228 215 -8 0 -45 -23 -83 -51 -116 -84 -324 -212 -466 -287 -200 -105
-486 -229 -565 -246 -38 -8 -91 -22 -119 -30 -27 -9 -64 -16 -82 -16 -30 0
-31 1 -23 29 15 53 30 69 77 87 27 9 68 25 92 36 70 29 267 147 293 175 l23
25 -25 -7 c-14 -4 -45 -18 -70 -31 -216 -116 -336 -169 -345 -154 -3 4 24 68
59 142 l63 133 59 2 c87 2 231 44 248 72 13 20 41 11 95 -29 29 -22 57 -40 62
-40 20 0 7 30 -28 64 -36 35 -37 36 -18 50 32 24 196 107 243 122 49 17 67 13
134 -28 27 -17 52 -27 55 -24 4 4 -15 28 -41 55 l-49 49 44 23 c24 12 79 44
122 70 43 27 84 49 92 49 7 0 42 -11 79 -25 55 -21 66 -22 66 -9 0 9 -21 25
-51 38 l-52 22 69 49 c167 118 263 212 235 229 -5 3 -51 -28 -102 -70 -184
-148 -504 -335 -744 -434 -55 -23 -138 -62 -185 -85 -92 -47 -297 -121 -307
-112 -3 4 10 44 30 89 19 46 39 97 43 113 4 17 20 62 37 100 16 39 34 90 40
115 12 44 13 45 138 110 69 36 139 75 154 88 15 12 32 22 38 22 6 0 39 19 74
41 l63 42 58 -13 c31 -7 73 -14 92 -17 31 -4 33 -3 15 9 -11 6 -42 20 -70 29
l-50 16 30 15 c49 26 303 199 451 309 161 119 218 167 251 212 13 17 27 32 31
32 21 1 64 55 43 55 -5 0 -54 -36 -108 -80 -120 -97 -392 -294 -516 -374 -183
-118 -614 -362 -623 -353 -16 15 70 236 135 347 21 36 41 77 45 92 5 23 29 38
163 104 l156 78 50 -28 c27 -15 51 -25 53 -23 2 2 -9 21 -26 43 -16 21 -30 42
-30 46 0 6 65 58 188 150 l37 28 49 -25 c56 -29 96 -34 77 -11 -7 8 -32 23
-57 33 -24 10 -42 22 -41 28 2 5 39 38 83 72 43 34 112 89 152 120 137 108
344 343 302 343 -6 0 -70 -60 -143 -133 -72 -73 -166 -160 -207 -192 -41 -33
-129 -103 -195 -156 -66 -52 -140 -109 -165 -124 -25 -16 -65 -45 -90 -65 -25
-21 -74 -53 -110 -73 -129 -70 -183 -97 -187 -94 -4 5 38 107 91 219 51 109
67 124 196 188 103 51 220 126 220 140 0 20 -27 9 -125 -51 -178 -108 -204
-113 -169 -31 30 68 57 100 102 118 17 8 58 31 89 51 45 28 60 33 72 24 29
-20 90 -51 102 -51 6 0 -3 16 -20 35 -17 20 -31 40 -31 45 0 5 27 29 59 54 65
50 94 56 155 31 53 -23 64 -8 21 28 l-37 30 122 118 c67 65 120 123 118 129
-4 14 -78 -38 -148 -105 -55 -51 -306 -224 -381 -261 -30 -15 -66 -36 -82 -46
-50 -35 -47 -14 9 67 31 44 68 99 83 122 15 23 42 53 60 68 32 28 83 96 283
379 106 149 135 204 82 155 -15 -13 -70 -82 -124 -154 -53 -71 -105 -137 -115
-145 -17 -14 -18 -12 -11 35 7 44 44 184 61 228 4 10 3 17 -4 17 -6 0 -28 -35
-49 -77 -28 -58 -43 -79 -60 -81 -27 -4 -28 -18 -3 -31 17 -10 17 -13 1 -100
-9 -50 -21 -96 -27 -103 -5 -7 -43 -56 -84 -108 -41 -52 -92 -122 -114 -154
-22 -32 -51 -75 -64 -95 -23 -34 -24 -34 -32 -13 -5 12 -9 54 -10 93 -2 65 0
73 22 90 23 17 23 18 5 38 -18 20 -18 24 23 193 22 95 53 217 68 270 44 161 5
141 -48 -24 -18 -54 -36 -98 -41 -98 -17 0 -58 32 -58 46 0 18 -14 18 -30 -1
-19 -23 -5 -44 45 -66 25 -11 45 -26 45 -34 0 -23 -72 -235 -80 -235 -4 0 -13
7 -20 15 -7 8 -18 15 -26 15 -28 0 -24 -23 11 -62 35 -38 37 -44 31 -86 -3
-25 -6 -67 -6 -93 0 -48 -1 -49 -30 -49 -36 0 -39 -17 -6 -30 31 -11 35 -19
42 -73 6 -40 1 -56 -46 -151 -28 -58 -56 -106 -61 -106 -11 0 -13 35 -9 153 1
53 -2 87 -8 87 -20 0 -25 -38 -27 -191 l-3 -156 -40 -91 c-23 -51 -52 -110
-65 -133 l-24 -40 -6 43 c-3 24 -14 141 -23 261 -16 193 -16 243 -5 445 7 125
16 254 22 288 5 33 35 128 68 210 32 82 57 151 54 154 -23 23 -143 -218 -177
-353 -8 -33 -17 -61 -19 -64 -3 -2 -19 3 -36 11 -54 28 -55 16 -6 -48 33 -43
35 -51 35 -120 0 -40 -3 -107 -6 -149 l-7 -76 -40 -3 c-52 -4 -60 -25 -12 -34
19 -3 39 -14 44 -23 5 -9 12 -85 16 -169 l8 -153 -38 7 c-36 6 -37 6 -26 -15
7 -11 23 -28 36 -37 28 -18 45 -68 45 -130 0 -23 7 -59 16 -80 17 -41 11 -82
-25 -153 l-18 -34 -20 29 c-11 16 -24 40 -28 54 -20 66 -47 130 -56 130 -5 0
-9 -17 -9 -37 0 -43 36 -125 76 -179 25 -32 26 -38 14 -57 -7 -12 -32 -71 -55
-132 -26 -67 -48 -110 -56 -110 -8 0 -20 20 -27 45 -8 25 -29 81 -47 125 -19
44 -44 123 -55 175 -12 52 -31 136 -42 185 -26 113 -37 231 -44 508 -7 223 -1
291 33 444 17 75 14 95 -11 74 -30 -25 -61 -182 -82 -424 -5 -59 -8 -67 -22
-61 -32 13 -62 16 -62 6 0 -14 21 -29 53 -37 15 -4 27 -14 28 -24 3 -69 8
-139 14 -189 l7 -59 -58 -6 c-53 -5 -85 -20 -72 -32 3 -3 29 -10 58 -14 29 -5
56 -14 60 -22 9 -13 50 -222 50 -250 0 -13 -12 -15 -79 -11 -55 3 -81 1 -86
-8 -10 -15 12 -30 46 -30 39 0 118 -30 128 -49 5 -9 19 -52 31 -96 12 -44 23
-88 26 -97 3 -10 -3 -19 -16 -23 -30 -9 -24 -23 13 -33 28 -7 34 -15 50 -63
24 -73 40 -185 34 -231 -5 -39 -46 -133 -54 -124 -3 2 -14 39 -25 82 -23 92
-46 140 -59 127 -6 -6 -4 -36 5 -79 8 -38 19 -111 26 -162 13 -105 10 -119
-46 -209 -18 -28 -30 -54 -27 -57 8 -8 -6 -58 -16 -52 -4 3 -13 30 -20 61 -13
57 -122 386 -159 481 -20 49 -71 240 -111 414 -32 141 -44 238 -45 375 0 109
4 148 27 242 30 122 31 133 18 133 -14 0 -49 -91 -71 -182 -14 -60 -20 -118
-20 -208 0 -167 -3 -174 -51 -166 -39 6 -93 -10 -83 -25 3 -5 18 -9 33 -9 39
0 91 -28 101 -54 8 -22 47 -199 74 -341 9 -44 47 -174 86 -288 38 -114 67
-214 63 -222 -3 -9 -18 -22 -34 -31 -43 -22 -35 -34 21 -34 l49 0 16 -52 c20
-72 45 -194 45 -223 0 -24 -69 -175 -80 -175 -3 0 -23 60 -44 133 -74 253 -77
260 -89 248 -16 -16 5 -134 49 -276 49 -157 52 -192 21 -286 -27 -82 -70 -174
-87 -184 -5 -3 -10 -4 -10 -2 0 2 -5 30 -11 63 -18 101 -49 194 -109 329 -62
138 -159 456 -180 585 -14 90 -18 261 -7 313 5 24 4 37 -2 37 -20 0 -42 -62
-51 -142 -9 -80 -21 -108 -45 -108 -7 0 -18 -6 -24 -13 -9 -11 -3 -16 28 -26
38 -11 39 -13 46 -64 8 -61 33 -205 41 -229 4 -13 -5 -17 -46 -23 -63 -9 -61
-24 6 -45 69 -21 71 -24 84 -88 7 -31 21 -79 31 -107 10 -27 15 -52 11 -56 -4
-4 -24 -12 -44 -19 -58 -18 -48 -34 17 -26 l55 6 35 -75 c52 -112 71 -177 90
-311 13 -93 14 -127 6 -143 -7 -12 -16 -21 -21 -21 -5 0 -34 51 -65 114 -49
104 -60 119 -110 156 -67 49 -145 162 -145 209 0 17 -11 54 -25 81 -30 59 -31
67 -6 75 11 3 22 19 26 35 5 24 -2 42 -39 99 -25 39 -66 95 -91 127 -48 58
-54 86 -20 92 11 2 23 7 28 11 4 4 -9 63 -28 132 -31 105 -34 129 -26 160 9
30 6 48 -20 124 -41 116 -35 134 45 127 52 -4 55 -3 61 20 6 22 -2 49 -40 148
-16 39 -19 106 -7 114 5 3 32 -11 61 -30 35 -23 61 -34 79 -32 l27 3 -3 79
c-2 43 -9 90 -16 105 -8 14 -19 52 -26 84 -11 57 -11 58 18 85 36 34 49 76 62
201 7 76 13 96 30 108 17 12 20 25 20 78 0 69 8 81 51 77 29 -3 39 15 39 75 0
41 21 134 33 151 7 9 22 1 59 -34 62 -58 87 -57 105 6 8 25 16 79 20 121 6 75
6 76 38 88 27 9 41 27 74 90 32 61 48 81 70 89 20 7 37 25 51 52 53 105 123
200 146 200 15 0 50 -58 59 -99 10 -45 39 -41 71 12 39 62 85 107 110 107 14
0 31 12 45 31 21 29 25 31 69 25 45 -6 47 -6 67 31 23 41 120 153 132 153 4 0
18 -25 30 -55 13 -31 30 -59 40 -64 9 -4 46 -11 82 -15 l67 -6 42 47 c24 27
54 66 68 88 37 58 63 85 81 85 9 0 28 -24 45 -55 32 -61 56 -74 107 -56 18 6
44 11 59 11 15 0 36 10 49 24 31 33 70 46 248 81 18 4 43 15 57 26 49 39 111
69 136 67 24 -3 25 -5 20 -58z m-6730 -99 c5 -11 10 -28 10 -37 0 -16 -2 -16
-14 -4 -19 20 -30 60 -17 60 6 0 15 -9 21 -19z m159 -347 c18 -48 30 -92 28
-98 -5 -14 -63 109 -72 152 -13 64 13 31 44 -54z m1470 -97 c24 -45 63 -99 85
-120 l41 -38 -25 -21 c-23 -19 -33 -20 -113 -14 -84 6 -89 5 -113 -19 -21 -21
-26 -22 -31 -9 -3 9 3 21 16 30 58 41 91 98 91 158 0 27 -6 40 -25 52 l-26 17
22 23 c13 13 25 24 28 24 3 0 26 -37 50 -83z m-532 -27 c-5 -48 -4 -61 9 -68
14 -8 15 -14 3 -45 -12 -34 -11 -38 10 -61 l23 -24 -43 -97 c-24 -53 -49 -99
-56 -102 -8 -3 -45 -50 -83 -104 -39 -54 -75 -101 -80 -104 -14 -9 -12 29 4
83 8 26 17 63 21 83 3 22 24 60 56 99 57 71 93 136 80 145 -5 3 -23 -12 -40
-32 -37 -44 -38 -41 -11 28 12 29 20 62 18 73 -3 17 -7 13 -27 -21 -14 -24
-30 -43 -37 -43 -7 0 -18 -17 -23 -37 -5 -21 -19 -72 -29 -113 -26 -100 -72
-252 -82 -269 -6 -10 -14 -3 -31 27 -13 23 -30 42 -37 42 -19 0 -6 -37 29 -81
23 -30 27 -41 22 -77 -3 -23 -9 -42 -14 -42 -18 0 -80 122 -91 177 -15 82 -16
83 -34 83 -14 0 -16 -8 -12 -49 5 -54 40 -132 94 -213 l35 -52 -13 -100 c-7
-56 -17 -101 -23 -100 -5 0 -25 27 -44 60 -63 110 -101 164 -116 164 -11 0
-12 -6 -3 -32 14 -40 65 -130 122 -216 40 -60 74 -147 63 -158 -2 -3 -16 0
-31 6 -15 5 -34 10 -43 10 -28 0 6 -29 42 -36 28 -5 33 -10 38 -42 2 -21 12
-55 22 -77 9 -22 18 -67 19 -100 3 -69 55 -199 112 -277 28 -37 43 -49 72 -54
38 -7 92 -34 111 -58 6 -7 -35 5 -92 27 -56 22 -121 47 -144 56 -24 9 -43 19
-43 24 0 12 25 8 46 -8 24 -18 34 -19 34 -2 -1 6 -25 37 -56 67 -30 30 -82 99
-115 153 -41 67 -65 97 -75 93 -15 -6 -18 13 -8 51 6 21 10 22 63 17 l56 -5
-35 28 c-76 61 -130 123 -130 148 0 14 7 28 15 31 23 9 18 30 -14 57 -16 13
-36 38 -45 55 -9 18 -23 32 -30 32 -21 0 -34 -23 -25 -45 12 -31 10 -39 -6
-25 -20 17 -19 29 11 94 22 49 29 56 55 56 l29 0 -35 63 c-50 90 -67 81 -54
-27 6 -41 -10 -41 -54 -1 -30 27 -38 41 -35 63 2 21 9 27 28 29 14 0 28 1 33
2 4 1 1 14 -7 30 -13 24 -13 31 -1 47 13 18 14 18 32 1 11 -9 24 -17 30 -17
17 0 23 28 13 56 -6 14 -10 43 -10 64 0 38 1 39 29 34 40 -8 51 16 51 117 0
81 0 82 36 116 20 18 51 40 70 48 23 9 38 25 49 51 22 53 44 76 67 68 14 -4
31 8 66 45 37 40 52 49 70 44 29 -7 47 9 84 74 40 70 52 68 45 -7z m-802 -150
c29 -45 31 -60 10 -60 -17 0 -45 50 -45 80 0 29 6 25 35 -20z m85 -145 c15
-18 5 -35 -20 -35 -22 0 -34 15 -26 35 7 19 30 19 46 0z m-489 -75 c5 0 0 -18
-11 -40 -26 -50 -40 -51 -40 -2 0 43 7 55 28 47 7 -3 18 -5 23 -5z m439 -16
c0 -8 -4 -14 -10 -14 -5 0 -10 9 -10 21 0 11 5 17 10 14 6 -3 10 -13 10 -21z
m95 17 c3 -5 1 -12 -5 -16 -5 -3 -10 1 -10 9 0 18 6 21 15 7z m710 -42 c4 -5
18 -15 32 -20 19 -7 23 -14 18 -27 -5 -9 -19 -48 -33 -86 -19 -55 -22 -73 -13
-93 6 -13 11 -45 11 -71 0 -35 5 -52 20 -65 17 -14 19 -24 14 -60 -4 -23 -14
-55 -23 -70 -15 -27 -15 -29 2 -42 17 -12 17 -15 2 -44 -8 -17 -17 -31 -19
-31 -18 0 -66 25 -66 35 0 7 14 29 30 50 31 39 37 55 21 55 -11 0 -104 -101
-147 -160 -29 -40 -74 -80 -139 -125 -15 -10 -17 -17 -9 -25 13 -13 63 8 100
42 19 17 25 18 42 7 28 -17 39 -5 22 25 -11 21 -10 28 9 55 37 52 101 54 101
4 0 -15 7 -35 16 -44 15 -17 15 -20 1 -43 -22 -32 -84 -79 -95 -72 -6 3 -15
-1 -22 -9 -7 -8 -18 -15 -26 -15 -7 0 -14 -10 -16 -22 -3 -23 -62 -63 -102
-70 -27 -4 -44 67 -52 218 l-7 120 28 26 c30 28 53 41 99 58 22 8 26 14 18 22
-9 9 -1 23 35 60 26 26 56 48 66 48 15 0 18 5 14 22 -4 14 3 38 19 66 14 24
24 46 21 48 -12 12 -43 -16 -92 -86 -52 -74 -156 -180 -176 -180 -11 0 -11 66
1 149 8 59 13 69 62 119 29 29 63 58 76 63 12 5 22 17 22 27 0 21 43 108 67
135 18 19 58 23 68 6z m-1167 -11 c19 -19 14 -28 -13 -28 -18 0 -25 5 -25 20
0 22 20 26 38 8z m452 -25 c0 -5 -8 -20 -18 -36 l-18 -27 -22 23 c-28 29 -27
35 1 40 38 7 57 7 57 0z m806 -70 c-13 -24 -15 -25 -16 -7 0 11 5 25 12 32 19
19 21 6 4 -25z m-1256 22 c0 -3 -7 -21 -14 -40 -12 -29 -20 -35 -44 -35 -26 0
-29 3 -24 28 2 15 11 33 20 40 16 12 62 17 62 7z m88 -45 c28 -34 43 -80 26
-80 -18 0 -85 46 -89 61 -6 19 10 59 23 59 4 0 22 -18 40 -40z m286 17 c17
-12 17 -16 3 -43 -9 -17 -23 -36 -31 -43 -14 -12 -16 -9 -16 27 0 43 8 72 19
72 4 0 15 -6 25 -13z m86 -82 l24 -26 -27 -27 c-27 -26 -27 -26 -46 -7 -18 18
-18 23 -6 53 17 39 24 40 55 7z m-494 -8 c2 -7 1 -24 -4 -36 l-8 -23 -18 27
c-15 23 -16 29 -5 36 20 12 29 11 35 -4z m108 -20 c13 -9 16 -20 10 -41 -8
-34 -27 -42 -60 -28 -19 9 -24 19 -24 47 0 32 3 35 28 35 16 0 36 -6 46 -13z
m-486 -41 c2 -10 -3 -16 -16 -16 -23 0 -46 25 -38 39 9 14 50 -3 54 -23z m597
-13 c41 -61 27 -80 -35 -48 -32 17 -37 34 -18 65 18 28 24 26 53 -17z m225
-52 c0 -10 -7 -24 -15 -31 -12 -10 -16 -6 -23 22 -5 18 -7 36 -5 41 7 13 43
-13 43 -32z m-836 -13 c-9 -32 -14 -35 -24 -18 -16 24 -11 40 11 40 16 0 19
-4 13 -22z m460 12 c26 -9 32 -31 20 -64 -10 -27 -29 -18 -52 23 -12 21 -22
41 -22 45 0 9 25 7 54 -4z m-376 -35 c1 -11 -2 -27 -8 -35 -12 -19 -26 -5 -36
33 -6 26 -4 28 17 25 15 -2 25 -11 27 -23z m506 -16 c5 -5 4 -14 -3 -23 -19
-23 -60 -1 -61 32 0 13 47 7 64 -9z m-419 -19 c16 -18 16 -20 1 -26 -19 -7
-46 12 -46 32 0 20 24 17 45 -6z m545 -50 c0 -5 -13 -4 -30 1 -16 6 -30 15
-30 19 0 5 14 4 30 -1 17 -6 30 -15 30 -19z m-446 -26 c3 -8 2 -14 -2 -14 -10
0 -32 22 -32 32 0 12 28 -2 34 -18z m292 1 c7 -16 -14 -85 -25 -85 -17 0 -31
27 -31 62 0 34 3 38 25 38 14 0 28 -7 31 -15z m-408 -26 c5 -43 -14 -79 -43
-79 -22 0 -25 4 -25 36 0 49 16 76 43 72 15 -2 23 -11 25 -29z m509 9 c54 -19
34 -78 -22 -64 -25 6 -43 45 -30 65 8 14 11 14 52 -1z m231 -8 c37 -23 38 -30
14 -85 l-18 -40 -17 26 c-19 28 -35 119 -21 119 5 0 24 -9 42 -20z m-647 -28
c30 -25 20 -55 -18 -50 -23 2 -29 8 -31 36 -4 37 13 42 49 14z m118 -48 c18
-25 31 -48 28 -51 -3 -3 -23 3 -44 13 -31 15 -39 25 -41 52 -5 46 18 41 57
-14z m410 0 c25 -41 22 -51 -8 -35 -24 14 -44 47 -36 61 11 18 23 11 44 -26z
m-131 -30 c17 -5 22 -14 22 -38 0 -38 -24 -76 -39 -61 -24 24 -40 69 -30 87
11 20 14 21 47 12z m-496 -36 c-11 -11 -32 -3 -32 12 0 4 9 6 21 3 13 -4 17
-9 11 -15z m102 -35 c9 -58 8 -63 -17 -63 -37 0 -60 32 -52 72 4 18 12 36 18
40 20 12 44 -11 51 -49z m524 17 c28 -17 31 -23 22 -40 -12 -23 -48 -26 -74
-7 -13 9 -16 20 -11 40 8 32 19 33 63 7z m-401 -13 c7 -7 10 -22 7 -35 -5 -17
-14 -22 -40 -22 -19 0 -34 4 -34 9 0 5 -3 23 -7 41 l-6 33 34 -7 c18 -3 39
-12 46 -19z m569 -5 c20 -13 35 -53 32 -85 -3 -27 0 -32 17 -29 25 3 57 -48
44 -69 -17 -27 -10 -42 17 -35 21 6 25 4 22 -11 -2 -11 -14 -19 -30 -21 -23
-3 -30 3 -50 40 -23 43 -65 154 -75 196 -5 22 3 28 23 14z m-451 -52 c10 -11
15 -23 12 -26 -8 -9 -80 21 -85 35 -6 19 54 12 73 -9z m373 -26 c-10 -10 -28
6 -28 24 0 15 1 15 17 -1 9 -9 14 -19 11 -23z m-103 -53 c0 -56 -19 -64 -41
-18 -20 43 -13 70 18 65 20 -3 23 -9 23 -47z m-391 4 c9 -36 1 -45 -40 -45
-27 0 -34 4 -34 19 0 36 12 51 40 51 21 0 29 -6 34 -25z m102 0 c21 -21 23
-29 14 -40 -29 -35 -87 -5 -76 38 8 34 30 34 62 2z m147 -75 c14 -23 15 -30 5
-30 -18 0 -38 20 -38 39 0 8 -12 30 -27 50 l-26 36 34 -32 c19 -18 42 -46 52
-63z m237 65 c17 -9 30 -22 30 -30 0 -21 -22 -65 -33 -65 -5 0 -7 -7 -3 -15 6
-18 1 -19 -25 -5 -15 9 -19 22 -19 70 0 65 4 69 50 45z m66 -110 c17 -42 18
-65 2 -65 -30 1 -39 17 -32 58 4 23 8 42 11 42 2 0 11 -16 19 -35z m-426 0 c0
-13 7 -43 16 -65 15 -38 18 -40 60 -40 33 0 46 -5 54 -19 14 -26 13 -31 -5
-31 -20 0 -131 56 -172 86 -17 13 -37 24 -42 24 -8 0 -8 6 -2 18 5 9 12 25 15
35 4 12 16 17 41 17 31 0 35 -3 35 -25z m1005 -62 c25 -38 71 -106 102 -153
31 -47 79 -113 108 -148 54 -65 82 -109 74 -116 -9 -10 -139 32 -185 59 -81
47 -174 149 -222 243 -56 112 -56 132 6 159 26 12 52 21 59 22 7 1 33 -29 58
-66z m-881 37 c14 -14 -4 -30 -34 -30 -26 0 -50 22 -50 45 0 9 72 -4 84 -15z
m987 -80 c19 -25 47 -65 62 -90 l28 -45 -28 34 c-15 18 -49 58 -75 88 -26 31
-45 60 -42 65 7 11 7 11 55 -52z m-911 40 c8 -5 12 -12 9 -15 -8 -8 -39 5 -39
16 0 11 11 11 30 -1z m200 -72 c27 -21 49 -55 50 -75 0 -17 -134 82 -154 112
-9 14 -16 27 -16 31 0 7 84 -40 120 -68z m199 -20 c22 -34 38 -64 35 -67 -8
-9 -104 96 -104 113 0 34 30 13 69 -46z m-354 22 c21 -41 19 -50 -14 -50 -20
0 -35 8 -45 22 -21 30 -20 37 7 48 33 13 35 12 52 -20z m299 -80 c63 -80 98
-105 128 -89 18 10 24 8 40 -11 19 -23 23 -40 11 -40 -25 0 -194 31 -223 41
-59 20 -60 31 -2 23 43 -5 52 -4 52 9 0 8 -6 17 -14 20 -12 5 -56 87 -56 103
0 16 24 -5 64 -56z m346 -40 c45 -74 51 -108 8 -42 -34 51 -72 125 -60 118 5
-3 29 -37 52 -76z m366 -58 c-8 -7 -25 8 -37 31 -11 21 -10 21 15 -2 14 -14
24 -26 22 -29z m2677 -229 c9 -18 17 -49 17 -70 0 -21 9 -75 20 -121 22 -93
25 -122 10 -122 -22 0 -50 -41 -50 -74 0 -35 14 -59 124 -201 46 -60 56 -79
45 -86 -8 -5 -17 -9 -21 -9 -16 0 -7 -54 17 -102 14 -27 25 -66 25 -86 0 -43
27 -86 127 -200 76 -86 96 -118 118 -186 7 -22 32 -83 54 -134 23 -51 41 -99
41 -107 0 -71 -259 -439 -288 -410 -6 6 -27 43 -47 83 -50 100 -139 184 -180
168 -7 -2 -21 -30 -30 -61 l-16 -56 -40 35 c-21 20 -56 55 -77 78 -20 24 -95
108 -167 187 -188 207 -228 254 -285 340 -59 87 -56 56 -26 351 8 85 16 212
16 281 0 70 3 140 6 157 8 41 152 183 216 214 18 9 68 32 110 52 47 23 79 44
83 56 7 22 90 90 110 90 6 0 20 9 30 20 19 21 19 21 30 -17 7 -21 19 -52 28
-70z m-2480 -55 c42 -62 92 -136 111 -164 37 -53 234 -248 341 -337 68 -57 72
-62 50 -71 -12 -4 -41 18 -98 72 -178 170 -264 249 -301 277 -51 38 -116 108
-138 147 -10 17 -32 46 -50 65 -28 29 -31 36 -20 53 6 11 12 31 12 45 0 14 4
25 8 25 5 0 43 -51 85 -112z m-13 83 c0 -6 -4 -13 -10 -16 -5 -3 -10 1 -10 9
0 9 5 16 10 16 6 0 10 -4 10 -9z m1820 -118 c0 -5 -5 -15 -10 -23 -8 -12 -10
-11 -10 8 0 12 5 22 10 22 6 0 10 -3 10 -7z m16 -323 c-11 -215 -27 -390 -40
-445 -38 -162 -37 -161 -25 -208 6 -26 15 -47 19 -47 5 0 19 -17 31 -37 47
-79 297 -367 623 -718 67 -72 138 -150 158 -175 31 -37 38 -42 43 -27 11 26
-1 60 -36 103 -39 48 -86 149 -95 203 l-7 41 29 -10 c33 -12 69 -80 101 -195
24 -82 51 -160 68 -195 7 -14 15 -41 18 -60 7 -45 114 -243 209 -390 42 -63
92 -149 113 -190 21 -41 47 -88 59 -105 11 -16 29 -47 39 -69 9 -21 37 -68 60
-105 24 -36 70 -111 102 -166 133 -229 153 -252 255 -296 30 -13 96 -46 145
-75 50 -28 130 -72 179 -98 49 -26 100 -55 115 -65 14 -10 60 -38 101 -61 41
-24 102 -60 135 -80 33 -21 89 -55 125 -76 87 -52 227 -160 241 -187 6 -12 20
-32 31 -44 20 -21 17 -43 -4 -43 -6 0 -34 17 -62 39 -78 59 -127 81 -90 40 10
-12 43 -35 72 -51 28 -17 52 -33 52 -38 0 -4 -14 -13 -31 -20 -28 -12 -34 -11
-75 18 -50 36 -59 26 -14 -15 32 -28 38 -43 18 -43 -13 0 -118 110 -118 124 0
5 11 -1 24 -13 28 -27 42 -15 18 16 -30 37 -114 94 -136 91 -12 -1 -41 10 -66
24 -25 15 -65 33 -88 40 -40 12 -109 72 -138 119 -24 40 -255 189 -424 274
-77 39 -150 54 -274 56 -55 1 -69 -3 -142 -45 -44 -25 -116 -59 -160 -77 -43
-17 -88 -39 -99 -48 -11 -10 -80 -51 -154 -91 -191 -104 -297 -178 -377 -263
-102 -106 -119 -147 -119 -276 0 -97 -1 -105 -23 -119 -21 -14 -25 -14 -40 2
-14 14 -17 34 -14 129 3 102 1 115 -17 131 -17 16 -26 16 -78 6 -116 -24 -272
-114 -349 -202 -16 -18 -53 -66 -83 -106 -40 -54 -60 -72 -77 -72 -13 0 -24 2
-24 4 0 2 -3 12 -6 20 -7 19 166 202 229 242 44 29 46 42 10 85 l-27 32 -115
-6 c-128 -6 -205 -26 -297 -76 -32 -17 -59 -30 -60 -28 -1 1 -5 14 -9 30 -7
24 -4 29 31 43 62 26 305 63 479 73 137 8 172 14 245 39 188 66 365 153 526
260 250 165 452 274 647 345 50 19 62 29 84 67 l25 45 -49 80 c-27 44 -72 123
-101 175 -29 52 -69 113 -88 135 -33 37 -40 40 -87 41 -74 1 -254 23 -285 35
-15 6 -63 17 -107 26 -82 15 -129 32 -91 33 11 0 107 -14 214 -31 141 -22 202
-28 217 -21 19 9 23 21 28 82 6 70 5 75 -33 151 -22 43 -40 83 -40 88 0 10
-64 117 -84 140 -7 9 -31 50 -51 91 -21 41 -57 103 -81 138 -24 35 -50 75 -58
90 -8 15 -38 52 -67 82 -30 30 -68 79 -86 108 -48 80 -162 208 -323 367 -144
142 -412 382 -460 413 -14 9 -34 24 -45 33 -29 26 -193 109 -214 109 -20 0
-188 48 -299 86 -41 14 -111 31 -158 39 -46 7 -109 25 -139 39 -30 15 -87 31
-126 35 -50 7 -78 16 -94 31 -12 12 -31 20 -41 18 -13 -2 -18 2 -15 12 8 35 2
62 -18 84 -16 17 -18 25 -9 34 21 21 59 13 132 -27 69 -38 109 -51 296 -101
47 -13 111 -36 143 -52 32 -16 113 -47 180 -70 67 -22 147 -52 177 -65 100
-46 245 -103 259 -103 34 0 51 32 51 95 0 34 6 84 14 111 27 94 37 191 40 394
2 113 7 225 12 250 l8 45 9 -60 c4 -33 6 -98 3 -145z m-2843 -92 c28 -18 52
-28 54 -23 2 6 7 16 12 24 11 17 32 0 169 -131 83 -80 109 -90 98 -37 -3 16
-3 29 0 29 3 0 29 -20 56 -45 39 -35 58 -45 85 -45 29 0 49 -13 132 -88 53
-49 129 -108 169 -132 40 -23 75 -46 78 -51 5 -9 -66 -43 -111 -53 -22 -5 -52
3 -115 30 -91 39 -210 84 -275 104 -22 7 -51 21 -65 30 -37 26 -345 109 -357
96 -12 -11 6 -18 123 -52 64 -18 129 -41 143 -52 14 -10 51 -24 82 -30 101
-20 389 -133 389 -153 0 -13 -95 -59 -122 -59 -33 0 -258 93 -279 116 -10 10
-32 34 -48 52 -16 17 -34 32 -40 32 -15 0 -14 -33 1 -48 6 -6 9 -15 5 -18 -10
-10 -113 15 -172 41 -27 12 -62 25 -77 29 -20 4 -28 13 -28 28 0 29 -41 80
-83 103 -51 27 -58 11 -14 -31 34 -33 54 -70 45 -80 -3 -2 -27 2 -54 10 -27 8
-96 24 -154 36 -74 15 -117 30 -146 50 -53 37 -225 121 -238 117 -12 -4 96
-77 143 -97 17 -7 31 -16 31 -21 0 -17 -191 -7 -315 17 -11 2 -44 21 -73 43
-29 22 -62 43 -73 46 -39 13 -34 -7 11 -46 42 -36 43 -38 20 -39 -79 -3 -231
-17 -236 -23 -19 -19 17 -27 126 -27 148 0 463 -25 640 -50 160 -23 337 -66
475 -113 55 -20 173 -58 261 -86 93 -30 169 -59 178 -70 17 -19 16 -20 -31
-41 -114 -51 -121 -53 -167 -41 -137 34 -362 53 -354 29 3 -8 45 -17 114 -25
130 -14 245 -30 250 -36 8 -8 -163 -87 -201 -92 -30 -5 -50 -1 -80 14 -21 12
-50 21 -63 21 -55 0 -110 23 -154 64 -40 37 -118 75 -118 58 0 -4 14 -19 32
-34 18 -14 31 -29 28 -31 -3 -3 -59 1 -125 9 -66 7 -204 13 -306 14 l-186 0
-64 49 c-100 76 -148 83 -64 9 25 -22 43 -44 39 -49 -3 -5 -45 -9 -93 -9 -48
0 -113 -5 -144 -10 -60 -12 -96 -1 -143 42 -12 10 -39 21 -60 24 l-39 6 53
-32 c29 -17 52 -36 49 -43 -5 -16 -133 -35 -241 -36 -74 -1 -94 3 -123 20 -38
24 -55 19 -30 -9 10 -10 17 -21 17 -24 0 -3 -28 -9 -62 -13 -35 -3 -85 -12
-113 -20 -27 -7 -72 -17 -99 -22 -27 -4 -51 -13 -53 -20 -7 -19 34 -25 90 -14
85 18 344 49 462 56 61 4 157 13 215 21 58 8 218 18 356 21 311 7 565 -8 698
-43 50 -13 125 -31 166 -40 41 -8 82 -17 90 -20 16 -6 -1 -21 -145 -124 l-90
-65 -135 -6 c-184 -9 -228 -27 -67 -28 70 -1 117 -5 117 -11 0 -5 -19 -23 -42
-39 -24 -17 -65 -47 -91 -67 -45 -34 -49 -35 -66 -20 -34 31 -402 58 -514 37
-47 -8 -65 -7 -109 8 -71 24 -138 34 -138 21 0 -6 14 -17 31 -24 l31 -13 -43
-11 c-24 -7 -97 -17 -161 -24 -113 -12 -119 -11 -161 10 -50 25 -129 42 -194
42 -72 0 -47 -23 40 -37 94 -14 122 -23 111 -33 -12 -11 -133 -42 -317 -80
-82 -17 -179 -42 -215 -56 -36 -13 -100 -33 -142 -44 -85 -22 -250 -94 -250
-110 0 -17 28 -11 103 20 40 16 122 43 182 59 61 16 122 34 137 40 15 6 139
33 275 60 255 52 530 87 881 112 159 11 391 7 414 -7 12 -8 -4 -26 -85 -96
-64 -55 -70 -58 -120 -58 -43 0 -131 -20 -259 -57 -10 -3 -18 -9 -18 -13 0
-20 44 -18 149 5 63 14 116 24 118 21 3 -2 -32 -41 -76 -85 -73 -73 -85 -81
-120 -81 -77 0 -162 -13 -158 -24 2 -6 35 -13 73 -16 39 -3 69 -10 69 -16 0
-5 -18 -26 -39 -45 l-39 -34 -169 -5 c-164 -5 -170 -4 -198 18 -27 21 -206 69
-217 58 -6 -6 41 -30 91 -46 54 -17 29 -30 -60 -30 -195 0 -469 -58 -740 -156
-67 -24 -129 -44 -138 -44 -45 0 -216 -103 -216 -131 0 -22 27 -16 103 26 47
25 159 70 253 101 374 122 515 144 917 146 158 0 290 -2 294 -6 7 -7 -77 -85
-126 -118 -16 -11 -45 -18 -77 -18 -49 0 -153 -15 -184 -27 -33 -12 27 -21
113 -15 l87 5 -26 -46 c-14 -26 -46 -65 -71 -87 l-46 -40 -87 0 c-78 0 -94 3
-147 31 -35 18 -70 29 -84 27 -21 -4 -18 -7 24 -27 27 -13 47 -24 45 -26 -2
-1 -50 -10 -106 -19 -91 -15 -106 -16 -120 -3 -34 29 -167 53 -207 38 -23 -9
-21 -10 113 -32 40 -7 69 -16 65 -20 -4 -4 -71 -23 -148 -42 -116 -29 -149
-34 -185 -26 -60 11 -137 11 -144 0 -4 -5 13 -12 36 -16 81 -12 81 -14 -11
-61 -82 -42 -152 -97 -139 -109 3 -3 56 19 119 49 193 94 495 165 731 173 76
3 145 3 154 -1 12 -4 -22 -45 -137 -165 -126 -132 -156 -158 -170 -150 -34 18
-86 8 -239 -45 -169 -59 -354 -143 -440 -200 -30 -20 -59 -36 -65 -36 -6 0
-36 -16 -66 -35 -54 -33 -119 -109 -106 -122 4 -3 33 14 65 39 31 25 73 54 93
64 20 11 69 37 110 58 166 89 447 194 565 212 l49 7 -32 -31 c-18 -16 -33 -36
-33 -44 0 -7 -24 -37 -53 -65 -40 -40 -64 -55 -102 -64 -62 -15 -150 -53 -160
-69 -16 -26 13 -28 80 -5 39 13 72 21 74 19 3 -2 -7 -17 -20 -32 -14 -15 -38
-44 -53 -65 -28 -38 -28 -38 -43 -18 -21 31 -41 26 -45 -11 -3 -32 -7 -34 -93
-67 -89 -33 -91 -33 -167 -22 -52 8 -84 9 -95 2 -16 -8 -15 -11 10 -20 16 -6
39 -11 53 -11 40 0 28 -13 -51 -53 -80 -42 -125 -73 -125 -88 0 -20 46 -6 150
46 99 50 276 112 288 101 7 -8 -134 -198 -217 -291 -151 -170 -153 -223 -1
-64 l99 104 1 -42 c0 -24 5 -43 11 -43 16 0 39 65 39 112 0 24 7 55 16 68 20
30 86 100 94 100 13 0 -9 -171 -33 -262 -39 -146 -62 -188 -122 -221 -75 -41
-112 -57 -134 -57 -12 0 -38 -6 -58 -14 -21 -7 -57 -18 -81 -23 -58 -14 -79 4
-92 77 -6 30 -19 67 -30 82 -14 19 -20 43 -20 78 0 28 -5 59 -12 69 -9 14 -7
29 10 72 29 75 52 154 52 178 0 29 -38 36 -85 17 -21 -9 -39 -16 -41 -16 -9 0
-3 44 10 69 13 24 13 31 0 49 -16 24 -12 41 28 99 20 30 26 49 23 70 -5 24 5
39 60 103 43 49 65 81 63 95 -3 18 -9 20 -76 17 -66 -3 -72 -2 -72 16 0 10 11
35 24 54 31 46 35 60 24 81 -7 14 -1 33 27 80 24 39 34 68 31 82 -7 28 -65 47
-108 34 -18 -5 -33 -7 -35 -5 -2 2 8 34 23 72 l28 68 -22 14 c-29 19 -28 30
10 106 l32 65 -22 18 -22 18 40 62 c37 59 57 77 197 175 18 13 32 25 32 28 0
3 -14 16 -32 30 -26 21 -42 25 -99 25 -37 0 -68 2 -68 4 0 2 11 16 25 33 26
31 32 53 15 63 -27 17 -6 55 75 140 82 86 96 105 75 105 -5 0 -10 6 -10 13 0
13 177 107 201 107 6 0 9 8 6 19 -7 28 16 44 112 81 46 18 97 45 114 60 28 25
30 30 20 53 -14 29 -89 72 -146 82 -20 4 -37 13 -37 20 0 19 57 65 108 87 42
19 43 20 26 39 -13 14 -14 22 -5 32 10 12 116 64 164 81 13 4 16 12 12 29 -6
23 -1 26 97 57 57 18 108 34 115 36 9 2 10 11 1 34 -5 17 -8 33 -5 36 5 6 44
11 263 33 197 20 227 49 129 121 -35 26 -53 46 -48 51 5 5 47 17 94 25 46 9
91 22 99 29 8 7 26 15 40 17 18 2 24 8 22 22 -5 29 15 36 103 36 93 0 112 8
96 38 -6 11 -11 23 -11 26 0 10 93 7 176 -5 86 -12 108 -4 86 32 -34 54 22 51
202 -12 80 -28 153 -49 163 -47 12 2 17 13 17 38 l1 35 75 2 c55 1 98 -5 159
-23 46 -14 90 -23 98 -20 12 5 14 19 11 66 -4 58 -4 60 20 60 14 0 48 -14 75
-32z m1325 -157 c50 -26 72 -47 72 -72 0 -30 -53 -24 -141 17 -75 35 -96 55
-83 76 10 16 106 3 152 -21z m262 -231 c0 -5 -7 -10 -15 -10 -8 0 -15 5 -15
10 0 6 7 10 15 10 8 0 15 -4 15 -10z m-66 -10 c-6 -6 -71 -26 -145 -45 -74
-19 -183 -48 -244 -64 -125 -34 -168 -39 -145 -18 54 49 581 174 534 127z
m1065 -33 c15 -19 -5 -28 -36 -16 -22 8 -30 29 -17 42 8 8 36 -7 53 -26z
m-794 -27 c15 -6 115 -33 222 -60 108 -27 206 -56 219 -65 20 -13 87 -39 258
-102 60 -22 171 -90 208 -127 18 -18 89 -84 158 -146 209 -189 327 -315 572
-608 187 -226 278 -353 346 -490 53 -104 54 -125 7 -83 -40 34 -84 41 -109 15
-17 -16 -21 -70 -8 -91 11 -18 72 -90 104 -125 22 -24 25 -30 12 -35 -36 -14
-226 12 -471 63 -77 17 -83 23 -83 90 0 43 -38 164 -52 164 -7 0 -8 -12 -4
-32 16 -73 34 -193 30 -198 -3 -2 -48 3 -102 13 -105 18 -139 40 -128 81 13
46 28 166 22 181 -11 29 -22 14 -40 -56 -10 -39 -23 -68 -29 -66 -6 2 -32 45
-59 95 l-48 92 0 100 c0 55 -4 100 -9 100 -12 0 -21 -25 -21 -58 0 -58 -16
-57 -58 5 -22 32 -47 65 -57 73 -32 26 -44 65 -39 121 6 53 -7 109 -25 109 -5
0 -6 -29 -3 -65 2 -36 1 -65 -3 -65 -4 0 -48 35 -99 78 -124 107 -156 127
-156 102 0 -5 66 -76 148 -157 81 -81 166 -173 189 -203 71 -93 236 -411 221
-425 -2 -3 -26 0 -54 4 -27 5 -97 17 -156 28 l-108 18 0 36 c0 41 -30 134 -56
174 -30 45 -36 7 -10 -66 13 -35 26 -81 29 -101 l6 -38 -45 0 c-52 0 -84 14
-84 36 0 19 -37 93 -59 118 -13 15 -16 41 -16 134 0 83 -3 116 -12 119 -9 3
-13 -10 -13 -45 0 -89 -22 -106 -61 -49 -12 17 -43 55 -68 83 -74 83 -94 121
-81 157 13 38 13 118 0 151 -17 47 -30 28 -30 -44 0 -62 -2 -70 -19 -70 -10 0
-50 31 -89 70 -69 69 -70 70 -81 144 -11 76 -37 146 -54 146 -5 0 -6 -10 -3
-22 15 -52 19 -118 7 -118 -6 0 -35 24 -64 53 -84 87 -177 157 -206 157 -30 0
0 -35 103 -124 63 -54 134 -122 158 -150 24 -28 86 -98 139 -156 52 -58 124
-143 160 -189 35 -46 85 -111 112 -145 42 -54 127 -202 127 -221 0 -8 -138 1
-176 11 -12 3 -30 25 -43 51 -12 25 -48 76 -80 112 -31 36 -70 85 -86 109 -30
46 -63 74 -76 66 -16 -9 13 -62 82 -149 83 -105 132 -175 127 -180 -7 -8 -225
23 -243 35 -11 6 -39 37 -61 68 l-41 57 5 109 c4 90 2 108 -9 104 -9 -3 -18
-29 -23 -66 -5 -34 -12 -62 -15 -62 -4 0 -46 42 -93 93 l-86 94 16 48 c13 41
14 57 3 108 -17 81 -40 137 -57 137 -18 0 -17 -13 1 -74 19 -64 19 -130 0
-146 -13 -10 -27 -1 -91 62 -67 65 -77 80 -85 123 -20 111 -133 295 -180 295
-11 0 -19 -2 -19 -5 0 -3 23 -34 52 -68 50 -61 90 -133 104 -191 l7 -28 -28
18 c-15 10 -50 42 -78 71 -45 48 -150 113 -183 113 -8 0 -16 29 -22 83 -14
109 -24 217 -19 217 2 0 34 -13 70 -30 78 -35 93 -37 100 -11 4 18 11 17 87
-20 46 -22 90 -39 99 -37 23 4 25 49 6 114 -9 31 -14 59 -10 62 8 8 74 -17
108 -40 l27 -20 15 36 c8 19 15 40 15 46 0 18 14 11 65 -31 27 -22 58 -45 69
-51 10 -6 46 -30 79 -55 l60 -44 22 21 23 21 68 -50 c44 -32 72 -47 78 -41 6
6 17 10 26 10 16 0 104 -80 177 -163 56 -62 86 -76 113 -52 11 10 22 34 26 54
11 66 13 68 42 31 15 -19 39 -48 53 -64 l26 -29 32 24 33 24 44 -50 c24 -27
59 -79 76 -115 18 -36 33 -67 35 -69 2 -2 12 4 24 14 27 25 49 11 68 -41 12
-33 40 -100 107 -253 14 -31 16 -32 37 -19 12 8 33 36 46 63 l23 49 18 -22
c10 -12 28 -52 40 -87 23 -69 38 -79 72 -48 17 15 20 15 35 0 9 -9 24 -47 33
-84 15 -62 19 -68 46 -73 25 -4 35 -17 71 -90 23 -47 45 -103 48 -126 9 -54
20 -73 36 -57 11 11 1 85 -20 138 -36 92 -90 190 -116 209 -18 14 -37 43 -48
75 -10 28 -29 63 -42 78 -21 25 -26 26 -44 16 -32 -20 -37 -17 -56 33 -23 61
-77 156 -91 161 -6 2 -18 -25 -28 -64 -17 -70 -28 -89 -43 -80 -12 8 -56 114
-79 192 -12 38 -31 74 -54 99 -32 34 -39 37 -58 27 -18 -10 -23 -8 -33 11 -21
42 -123 160 -146 171 -17 7 -28 6 -46 -6 -23 -15 -26 -14 -98 59 -40 41 -77
74 -81 74 -5 0 -7 -32 -6 -72 4 -99 -10 -99 -109 -6 -128 121 -154 140 -176
134 -25 -6 -44 3 -128 65 -37 27 -71 49 -77 49 -5 0 -16 -9 -23 -20 -13 -19
-19 -16 -134 60 -66 44 -125 80 -132 80 -7 0 -13 -10 -13 -22 -1 -52 -14 -55
-82 -21 -35 18 -82 35 -105 39 -38 6 -43 4 -43 -12 0 -11 6 -30 14 -44 50 -90
76 -143 72 -148 -12 -12 -79 12 -135 48 -34 22 -66 40 -71 40 -5 0 -10 -10
-12 -22 -4 -28 -17 -26 -94 9 l-57 26 7 121 c4 66 11 125 16 130 4 4 59 19
122 32 62 12 176 37 253 54 77 17 189 38 249 46 60 7 111 16 114 19 9 8 49 6
77 -5z m-850 -88 c-15 -13 -97 -44 -102 -38 -9 9 61 46 87 46 14 0 20 -4 15
-8z m-165 -72 c-8 -5 -22 -10 -30 -10 -13 0 -13 1 0 10 8 5 22 10 30 10 13 0
13 -1 0 -10z m-80 -30 c0 -5 -5 -10 -11 -10 -5 0 -7 5 -4 10 3 6 8 10 11 10 2
0 4 -4 4 -10z m-192 -82 c-4 -11 -27 -22 -108 -50 -8 -3 -33 -11 -55 -18 -22
-7 -49 -21 -60 -30 -11 -10 -33 -22 -50 -26 -48 -11 -20 9 84 61 139 69 197
89 189 63z m-328 -148 c0 -9 -31 -30 -45 -30 -3 0 -1 9 5 20 11 20 40 28 40
10z m-330 -214 c0 -3 -4 -8 -10 -11 -5 -3 -10 -1 -10 4 0 6 5 11 10 11 6 0 10
-2 10 -4z m1474 -431 c98 -99 222 -229 274 -290 99 -113 207 -269 197 -284 -3
-5 2 -11 10 -15 8 -3 15 -10 15 -16 0 -7 -6 -8 -19 0 -11 5 -60 10 -110 10
-65 0 -91 3 -91 12 0 14 -168 178 -181 178 -22 0 -2 -31 66 -105 l74 -80 -79
-3 c-104 -4 -145 8 -203 60 l-47 43 10 55 c19 99 22 145 11 173 -17 44 -36 28
-37 -31 -2 -63 -12 -120 -23 -126 -11 -7 -130 64 -140 83 -5 9 -14 53 -20 99
-11 82 -32 142 -51 142 -6 0 -8 -10 -5 -22 18 -73 32 -169 26 -173 -13 -7
-131 53 -131 67 0 7 9 53 19 102 16 78 23 93 51 116 27 22 33 34 40 95 5 39 9
93 10 122 l0 51 78 -41 c66 -35 103 -68 256 -222z m2568 133 c-27 -43 -103
-128 -113 -128 -17 0 -9 18 26 62 53 65 85 98 97 98 5 0 1 -14 -10 -32z
m-4582 -103 c-7 -9 -15 -13 -17 -11 -7 7 7 26 19 26 6 0 6 -6 -2 -15z m1612
-347 c29 -17 71 -46 93 -63 22 -17 71 -52 108 -77 63 -42 126 -112 113 -125
-3 -3 -75 -8 -161 -11 l-155 -5 -58 54 c-31 30 -78 70 -104 89 -27 18 -48 37
-48 40 0 19 43 58 69 63 16 4 38 19 51 37 12 16 25 30 31 30 5 0 32 -14 61
-32z m-271 -84 c30 -33 200 -175 216 -181 22 -9 3 -23 -29 -23 -17 0 -84 -9
-150 -20 -65 -11 -124 -18 -129 -14 -12 7 -10 22 16 124 31 124 36 140 44 140
4 0 18 -12 32 -26z m318 -270 c-26 -28 -142 -117 -227 -174 -59 -40 -66 -55
-21 -46 52 10 153 73 258 161 l100 85 107 0 c58 0 104 -4 102 -8 -13 -33 -120
-164 -160 -197 -146 -118 -227 -176 -258 -186 -42 -14 -161 -72 -192 -94 -13
-8 -29 -15 -36 -15 -7 0 -46 -19 -85 -42 -40 -23 -103 -52 -142 -64 -93 -29
-100 -49 -14 -40 40 5 92 21 139 43 90 42 130 55 130 42 0 -5 -13 -30 -30 -57
-23 -38 -26 -48 -14 -50 23 -6 43 16 79 89 34 66 35 67 107 97 79 32 118 45
118 40 0 -2 -11 -19 -25 -38 -27 -37 -33 -70 -12 -70 29 0 107 107 107 146 0
25 7 31 78 73 l54 31 -7 -30 c-6 -26 -4 -30 14 -30 23 0 46 30 57 75 11 46 29
78 79 136 26 30 58 73 72 97 l25 42 131 0 c73 0 139 -5 147 -10 12 -7 1 -23
-55 -78 -39 -37 -86 -80 -105 -95 -42 -31 -35 -43 16 -27 44 15 179 140 188
175 4 17 15 26 39 30 33 6 174 -8 184 -19 10 -9 -74 -113 -179 -222 -72 -74
-116 -111 -157 -131 -31 -15 -108 -58 -171 -95 -63 -38 -148 -87 -188 -111
-116 -67 -196 -121 -200 -136 -7 -20 24 -8 211 84 186 92 184 92 146 -13 -32
-88 -33 -92 -16 -92 17 0 52 77 68 151 7 30 21 61 34 73 24 22 166 96 185 96
7 0 0 -21 -14 -47 -24 -43 -25 -48 -11 -62 15 -15 18 -14 36 7 10 13 23 43 29
65 14 60 41 107 72 130 26 20 28 20 47 3 19 -17 20 -17 34 6 8 12 22 48 31 79
10 35 31 76 56 105 22 27 43 64 46 82 4 19 12 35 18 38 20 7 189 -21 193 -33
4 -10 -21 -33 -97 -92 -22 -17 -23 -20 -8 -26 26 -10 106 40 130 81 20 33 21
34 88 34 80 0 100 -6 100 -29 0 -18 -147 -178 -328 -355 -123 -120 -244 -203
-462 -316 -131 -67 -158 -85 -147 -96 17 -17 182 46 317 122 67 38 131 66 136
61 9 -9 -29 -88 -47 -98 -28 -14 -24 -39 6 -39 29 0 50 34 66 108 9 45 20 58
124 156 62 58 116 106 119 106 14 0 3 -22 -39 -79 -25 -34 -45 -63 -45 -66 0
-3 10 -5 23 -5 44 0 97 84 97 153 0 44 43 87 84 84 27 -2 31 3 53 58 14 33 38
77 55 98 16 21 34 54 39 73 8 26 15 34 32 34 40 -1 208 -37 218 -47 11 -11
-61 -99 -90 -108 -23 -7 -54 -52 -46 -65 11 -18 105 43 157 103 35 39 57 57
74 57 24 0 166 -22 173 -26 6 -5 -63 -87 -129 -155 -93 -94 -307 -230 -560
-357 -196 -98 -212 -107 -178 -110 28 -2 65 11 160 56 148 71 187 87 195 78
13 -13 -28 -77 -62 -97 -52 -31 -28 -54 29 -28 23 11 66 92 66 125 0 20 49 53
89 59 56 9 80 22 93 50 6 14 44 45 84 71 68 41 129 99 262 244 l50 54 99 -28
c133 -38 131 -36 95 -77 -16 -19 -51 -67 -77 -107 -71 -111 -102 -143 -131
-136 -25 6 -33 0 -127 -107 l-48 -54 -19 23 c-37 45 -96 19 -235 -106 -44 -39
-85 -72 -92 -72 -6 0 -19 10 -27 22 -20 28 -37 20 -141 -67 -106 -90 -118 -95
-151 -64 l-26 24 -27 -30 c-34 -37 -127 -89 -147 -81 -8 3 -14 18 -14 35 0 23
-7 33 -32 45 -17 9 -37 16 -43 16 -37 0 -151 -45 -204 -81 -33 -22 -77 -43
-97 -46 -21 -3 -66 -21 -101 -40 -71 -36 -139 -45 -149 -18 -9 22 -45 18 -106
-10 -52 -24 -108 -33 -108 -17 0 4 23 33 50 64 54 61 63 95 34 136 -19 27 -26
27 -100 2 -60 -20 -338 -46 -374 -35 -9 3 -22 15 -29 28 -11 21 -16 22 -99 17
-48 -3 -95 -4 -105 -2 -16 4 -16 7 3 37 11 18 20 45 20 60 0 27 -1 27 -44 23
-25 -3 -48 -2 -53 2 -4 4 -41 17 -81 29 -62 19 -77 28 -93 56 -18 30 -25 34
-82 40 -34 3 -88 11 -120 17 l-58 11 7 40 c6 38 49 118 63 117 8 -1 51 -69 51
-82 0 -6 7 -7 18 -3 9 4 31 13 47 19 48 18 55 25 77 75 39 93 51 111 67 111
35 0 84 74 96 145 4 22 19 60 33 85 14 24 31 63 37 85 12 39 13 40 66 46 30 4
77 10 104 13 l50 7 -22 -20 c-52 -45 -13 -42 51 4 47 33 53 35 135 35 l84 0
-24 -26z m2820 -26 c41 -24 101 -78 101 -90 0 -24 -81 13 -132 61 -29 25 -37
51 -17 51 7 0 28 -10 48 -22z m-2067 -1395 c6 -3 -35 -120 -46 -131 -3 -2 -21
8 -40 23 -64 49 -37 119 44 114 19 -2 38 -4 42 -6z m145 -17 c11 -11 -9 -24
-30 -19 -28 7 -48 23 -42 33 5 8 62 -3 72 -14z m150 -12 c2 -7 -6 -24 -19 -38
-21 -25 -25 -26 -51 -14 -51 24 -17 70 47 65 11 -1 21 -7 23 -13z m-493 -39
c-2 -46 -27 -155 -35 -155 -4 0 -24 15 -43 34 -48 45 -47 74 5 120 48 44 75
44 73 1z m284 -5 c35 -21 35 -26 10 -107 -11 -39 -20 -40 -59 -12 -20 14 -29
29 -29 49 0 26 28 90 40 90 3 0 20 -9 38 -20z m297 2 c42 -6 58 -21 44 -38
-15 -18 -69 -18 -96 1 -26 18 -21 61 6 49 9 -4 30 -9 46 -12z m-446 -121 c2
-37 -22 -141 -33 -141 -6 0 -29 15 -50 33 l-39 33 13 70 c7 38 14 72 17 76 6
11 92 -55 92 -71z m-329 11 c-10 -26 -24 -66 -30 -90 -6 -23 -15 -40 -19 -38
-4 3 -20 23 -36 46 l-28 40 24 36 c24 35 73 65 95 57 8 -3 6 -18 -6 -51z m611
48 c22 -12 24 -45 8 -102 -11 -42 -30 -48 -68 -22 -19 14 -22 22 -16 51 15 81
31 96 76 73z m1185 -37 c-3 -10 -10 -45 -16 -78 -8 -50 -7 -68 7 -107 15 -41
15 -54 4 -97 -7 -27 -11 -78 -10 -113 3 -80 -7 -97 -57 -105 -74 -11 -88 -43
-19 -43 33 0 45 -4 45 -15 0 -21 -22 -65 -32 -65 -12 0 -58 47 -58 60 0 19
-18 10 -68 -35 -27 -25 -57 -62 -65 -82 -9 -21 -27 -53 -41 -72 -14 -19 -26
-47 -26 -62 0 -15 -5 -40 -12 -56 -7 -15 -13 -39 -14 -53 -8 -109 -24 -224
-32 -232 -6 -6 -7 10 -5 39 6 67 -23 152 -86 251 -57 88 -82 112 -118 112 -27
0 -28 10 -9 65 8 22 17 68 21 102 5 48 17 79 51 135 24 40 44 85 44 99 0 28 3
32 133 179 75 86 89 97 148 118 35 13 93 34 129 47 80 29 93 30 86 8z m2597 1
c8 -8 -45 -74 -60 -74 -34 0 -23 44 16 65 30 16 35 17 44 9z m-3612 -21 c5 -5
5 -36 1 -68 -7 -59 -8 -60 -37 -57 -17 2 -41 10 -54 19 -21 13 -22 20 -16 61
4 26 9 51 12 56 7 10 82 1 94 -11z m-681 -49 c42 -46 43 -47 37 -104 -4 -31
-11 -69 -16 -83 l-10 -26 -51 49 c-37 36 -50 56 -50 78 0 37 28 132 39 132 5
0 28 -21 51 -46z m799 32 c6 -8 14 -37 18 -65 l6 -51 -40 0 c-61 0 -73 20 -52
93 8 29 15 37 33 37 13 0 29 -6 35 -14z m-476 -42 c18 -9 35 -22 39 -28 9 -13
10 -72 2 -103 -8 -28 -24 -29 -75 -3 -28 15 -39 26 -35 38 2 9 7 35 11 57 11
62 11 63 58 39z m-593 -30 c0 -30 -33 -154 -41 -154 -5 0 -15 12 -22 27 -13
24 -12 32 5 72 21 50 36 71 49 71 5 0 9 -7 9 -16z m71 -26 c41 -47 50 -82 39
-155 -5 -37 -10 -71 -10 -75 0 -14 -21 -9 -50 12 -45 32 -56 80 -35 154 9 33
19 67 21 74 5 17 13 15 35 -10z m673 -18 c24 -9 26 -14 26 -69 0 -33 -5 -63
-11 -67 -6 -3 -23 2 -37 13 -28 21 -39 64 -28 109 7 27 13 28 50 14z m-328
-26 c39 -23 44 -30 44 -62 0 -38 -14 -110 -23 -118 -3 -3 -26 8 -52 23 l-47
28 6 62 c6 62 14 93 23 93 2 0 24 -12 49 -26z m515 -35 c15 -8 19 -21 19 -66
l0 -56 -45 5 c-64 8 -75 20 -75 86 l0 55 41 -7 c23 -4 50 -11 60 -17z m169
-43 c0 -29 -7 -52 -19 -67 -19 -23 -21 -23 -48 -9 -23 13 -29 24 -33 63 l-6
47 37 0 c21 0 41 5 44 10 13 20 25 -2 25 -44z m-1154 -59 c10 -17 13 -41 9
-65 -3 -20 -8 -52 -11 -69 -7 -44 -27 -42 -59 4 -29 43 -33 95 -10 149 8 20
12 41 8 48 -3 6 6 0 21 -14 15 -14 34 -38 42 -53z m637 39 l47 -19 0 -63 c0
-34 -5 -66 -10 -69 -6 -4 -33 1 -60 10 l-50 17 0 58 c0 59 7 93 19 88 3 -2 27
-11 54 -22z m-339 -25 l39 -40 -6 -72 c-3 -39 -8 -73 -11 -76 -2 -2 -27 7 -55
21 -43 22 -51 31 -57 62 -6 35 0 117 12 135 11 19 41 8 78 -30z m516 -57 c9
-8 14 -34 15 -66 0 -47 -2 -53 -22 -56 -37 -5 -73 39 -73 91 0 24 3 47 7 51
10 10 55 -2 73 -20z m653 -28 c-4 -6 -18 -26 -31 -44 -14 -18 -40 -83 -58
-144 -18 -61 -38 -116 -44 -122 -17 -17 -29 11 -24 53 16 119 61 234 105 264
23 17 63 11 52 -7z m-1311 -144 c3 -42 3 -79 2 -81 -6 -7 -74 42 -100 72 -24
29 -26 36 -19 91 3 33 9 64 12 68 2 5 26 -10 53 -32 l48 -40 4 -78z m346 21
l3 -81 -53 19 c-80 30 -92 57 -66 153 l12 45 50 -27 51 -27 3 -82z m503 99
c19 -20 59 -113 59 -138 0 -21 -68 -84 -92 -84 -18 0 -44 37 -33 48 4 4 26 7
48 7 35 0 42 4 44 20 4 33 -23 59 -60 57 -18 -1 -41 4 -51 11 -18 13 -39 91
-27 102 11 12 96 -6 112 -23z m-374 -76 c57 -28 63 -38 63 -108 0 -50 0 -50
-27 -44 -82 19 -89 28 -109 139 -8 45 2 47 73 13z m-678 -30 c35 -36 50 -84
51 -159 l0 -48 -31 23 c-17 13 -37 34 -44 48 -16 31 -31 170 -18 170 5 0 24
-15 42 -34z m-95 2 c13 -42 14 -88 1 -88 -16 0 -25 22 -25 66 0 33 17 47 24
22z m458 -60 c10 -38 9 -138 -2 -138 -26 0 -88 41 -94 62 -8 30 -8 133 0 141
12 11 89 -42 96 -65z m510 15 c28 -14 61 -75 56 -102 -3 -14 -63 -61 -77 -61
-9 1 -51 134 -51 164 0 24 3 26 23 20 12 -3 34 -13 49 -21z m1323 -72 c6 -15
-38 -76 -67 -94 -11 -8 -24 -3 -52 18 -20 15 -36 33 -36 40 0 7 12 33 26 58
l25 46 49 -27 c27 -15 52 -33 55 -41z m-2040 -7 c34 -28 48 -48 60 -89 8 -29
15 -63 15 -74 0 -18 -3 -20 -19 -11 -11 5 -29 10 -40 10 -27 0 -61 46 -61 84
0 17 -4 46 -10 65 -9 31 -6 51 6 51 3 0 25 -16 49 -36z m337 16 c25 -11 50
-25 55 -32 14 -17 44 -110 38 -116 -2 -3 -24 1 -49 7 -25 6 -56 11 -69 11 -14
0 -28 7 -31 16 -9 24 -7 134 3 134 5 0 29 -9 53 -20z m1446 -12 c19 -19 14
-41 -16 -77 l-28 -34 -22 28 c-29 36 -28 49 6 74 31 24 43 26 60 9z m615 -35
c15 -9 -23 -33 -52 -33 -36 0 -53 13 -45 34 6 15 14 17 47 12 22 -4 45 -10 50
-13z m-2644 -7 c14 -17 73 -188 67 -194 -11 -10 -55 53 -74 106 -33 92 -35
102 -19 102 8 0 20 -6 26 -14z m2392 -16 l40 -21 -20 -27 c-10 -15 -31 -38
-46 -52 -24 -23 -28 -24 -53 -9 -15 8 -28 21 -30 29 -2 14 53 100 64 100 3 0
23 -9 45 -20z m-1095 -77 c13 -29 24 -60 24 -68 0 -21 -46 -19 -97 4 -35 16
-43 26 -49 55 -8 47 5 61 56 62 42 1 43 1 66 -53z m837 22 c20 -18 37 -38 37
-44 0 -10 -48 -51 -60 -51 -4 0 -24 15 -45 33 l-38 33 23 32 c13 18 29 32 34
32 6 0 28 -16 49 -35z m-649 -26 c22 -48 15 -58 -43 -66 -39 -5 -41 -4 -56 30
-19 46 -20 44 13 61 47 26 66 20 86 -25z m446 26 c16 -19 5 -61 -17 -69 -10
-3 -24 -9 -30 -12 -19 -8 -17 47 3 74 18 26 27 27 44 7z m-1489 -19 c27 -19
39 -36 47 -69 7 -25 14 -51 17 -59 8 -20 -57 -34 -83 -19 -14 9 -12 10 15 11
44 0 50 16 17 50 -21 21 -33 26 -45 19 -20 -10 -29 7 -29 57 0 41 12 43 61 10z
m2093 9 c20 -8 36 -19 36 -23 0 -11 -72 -78 -91 -84 -8 -3 -30 0 -48 8 l-33
14 42 50 c23 27 45 50 50 50 4 0 24 -7 44 -15z m-2347 -98 c18 -40 28 -73 23
-75 -6 -2 -27 5 -47 15 -34 16 -38 21 -35 52 3 23 -3 40 -18 57 -14 13 -20 30
-16 39 5 15 8 15 33 0 18 -11 39 -41 60 -88z m933 64 c5 -11 10 -22 10 -25 0
-9 -33 -7 -49 3 -12 8 -12 12 -2 25 18 21 28 20 41 -3z m1595 -48 c58 -63 43
-83 -61 -83 -99 0 -107 13 -48 73 25 26 53 47 60 47 8 0 31 -17 49 -37z m-685
-14 l34 -30 -39 -34 -40 -33 -32 31 c-40 38 -41 49 -7 76 35 27 42 26 84 -10z
m246 0 c3 -6 -7 -25 -24 -42 -28 -27 -35 -30 -59 -21 -38 13 -36 43 6 71 33
23 59 20 77 -8z m-1934 -32 c14 -21 9 -27 -25 -27 -28 0 -35 5 -48 34 l-16 34
41 -14 c22 -8 44 -20 48 -27z m1296 1 c24 -47 27 -58 12 -58 -10 0 -50 71 -50
90 0 22 16 8 38 -32z m-531 -3 c37 -6 47 -13 67 -48 28 -46 26 -57 -9 -57 -48
0 -101 30 -123 69 -22 39 -20 54 7 47 9 -3 35 -8 58 -11z m448 -22 c14 -21 25
-43 25 -49 0 -14 -33 -24 -82 -24 -29 0 -41 6 -57 29 -29 40 -26 59 7 67 15 3
32 7 37 9 29 10 47 1 70 -32z m-591 5 c11 -42 7 -48 -28 -48 -71 0 -88 26 -33
53 44 22 54 21 61 -5z m381 -4 c16 -6 45 -54 45 -74 0 -5 -22 -10 -50 -10 -46
0 -51 3 -75 37 -14 21 -25 41 -25 45 0 9 81 11 105 2z m575 -78 c-8 -8 -27
-18 -42 -21 -23 -6 -28 -3 -34 19 -3 15 -1 40 6 57 l13 31 36 -36 c31 -31 34
-38 21 -50z m484 69 l37 -16 -21 -29 c-36 -51 -55 -55 -106 -25 -24 14 -44 30
-44 35 0 14 54 49 76 50 12 0 38 -7 58 -15z m-260 -34 c16 -18 15 -20 -22 -50
-48 -38 -57 -38 -79 -5 -17 26 -17 27 12 50 36 29 66 30 89 5z m490 -41 c15
-15 -71 -100 -102 -100 -13 0 -46 10 -74 22 l-51 22 44 38 c43 38 45 39 108
34 36 -3 69 -10 75 -16z m-934 0 c0 -5 -4 -10 -10 -10 -5 0 -10 5 -10 10 0 6
5 10 10 10 6 0 10 -4 10 -10z m-886 -61 c20 -33 36 -62 36 -65 0 -2 -15 -4
-32 -4 -32 0 -98 32 -98 47 0 7 50 83 55 83 2 0 19 -27 39 -61z m1967 11 c4
-33 -26 -88 -55 -101 -17 -8 -32 -7 -60 5 -45 19 -41 29 34 100 44 41 54 46
65 35 7 -8 15 -25 16 -39z m-1808 25 c42 -6 52 -12 87 -57 42 -52 46 -63 31
-73 -12 -7 -149 14 -172 26 -20 10 -49 69 -49 98 0 17 5 20 28 16 15 -2 49 -7
75 -10z m1281 -6 c20 -12 36 -27 36 -34 0 -15 -75 -85 -92 -85 -15 0 -68 50
-68 64 0 15 62 76 76 76 7 0 29 -9 48 -21z m-585 -19 c43 -37 36 -53 -29 -75
-51 -17 -52 -17 -77 6 -14 13 -34 36 -44 51 l-20 27 33 10 c62 17 101 12 137
-19z m319 4 c24 -17 30 -44 8 -44 -7 0 -19 -7 -26 -15 -18 -21 -32 -18 -54 12
-19 26 -19 26 5 44 29 23 39 23 67 3z m-713 -51 c25 -27 45 -51 45 -55 0 -5
-31 -8 -69 -8 -65 0 -71 2 -95 31 -14 17 -26 34 -26 39 0 5 -3 15 -6 24 -5 13
3 16 50 16 54 0 58 -2 101 -47z m189 7 c42 -47 44 -56 14 -64 -66 -17 -106 0
-137 61 -19 37 -13 43 38 43 44 0 52 -4 85 -40z m411 -68 c-34 -29 -45 -21
-45 32 0 58 10 64 43 24 l28 -33 -26 -23z m555 24 l72 -35 -44 -31 c-24 -17
-58 -38 -77 -46 -32 -14 -36 -13 -82 17 -27 17 -49 35 -49 40 0 7 96 89 105
89 2 0 36 -15 75 -34z m-323 -7 c42 -26 39 -45 -9 -73 l-37 -21 -35 34 c-42
41 -44 54 -13 69 34 16 56 14 94 -9z m-409 -32 c5 -25 -6 -67 -17 -67 -13 0
-71 50 -71 60 0 10 50 29 70 27 8 -1 16 -10 18 -20z m-990 -41 c13 -27 21 -51
18 -53 -9 -9 -89 23 -100 40 -8 12 -5 22 14 42 13 14 29 24 34 22 6 -2 21 -25
34 -51z m117 28 c53 -9 69 -18 110 -62 48 -52 45 -62 -17 -62 -70 0 -110 25
-143 91 -23 45 -24 50 -8 45 10 -3 36 -8 58 -12z m763 -37 c41 -42 42 -44 24
-60 -29 -26 -78 -21 -128 13 -24 17 -45 35 -45 40 -5 31 -1 35 41 41 25 3 50
7 55 7 6 1 30 -17 53 -41z m406 -16 c18 -20 18 -21 -8 -31 -64 -24 -70 -23
-104 18 l-31 40 37 15 c34 13 39 13 62 -3 14 -10 33 -27 44 -39z m651 27 c23
-10 23 -11 -32 -64 -30 -30 -63 -54 -73 -54 -24 0 -110 37 -110 47 0 4 28 27
63 50 65 44 93 48 152 21z m-1473 -48 c21 -23 38 -46 38 -51 0 -5 -36 -9 -80
-9 l-80 0 -35 48 c-19 26 -35 51 -35 56 0 5 35 6 77 4 76 -5 78 -6 115 -48z
m237 0 c40 -48 41 -49 21 -60 -16 -9 -25 -8 -36 1 -8 7 -27 9 -45 5 -26 -5
-37 0 -77 38 l-47 45 25 10 c14 5 46 10 71 10 43 1 48 -2 88 -49z m881 -36 c0
-8 -19 -23 -42 -34 -39 -17 -44 -17 -68 -3 -81 47 -84 60 -22 92 l36 18 48
-29 c26 -16 48 -36 48 -44z m-445 31 c21 -29 24 -39 15 -50 -18 -21 -48 -18
-55 5 -6 18 2 80 10 80 1 0 15 -16 30 -35z m944 11 c8 -10 4 -23 -19 -54 -33
-46 -57 -62 -94 -62 -70 0 -65 26 15 90 53 42 79 49 98 26z m-690 -80 l43 -44
-23 -16 c-37 -25 -71 -20 -107 17 -17 17 -28 37 -24 43 8 12 53 44 62 44 3 0
25 -20 49 -44z m-1350 -9 c24 -12 53 -37 64 -56 l21 -34 -65 5 c-43 2 -73 10
-91 23 -28 21 -58 65 -58 85 0 18 75 5 129 -23z m941 8 c0 -23 -28 -85 -37
-85 -5 0 -27 18 -48 40 -47 48 -39 60 38 60 36 0 47 -4 47 -15z m715 -17 c30
-13 55 -28 55 -35 0 -14 -55 -49 -91 -58 -21 -5 -31 0 -59 31 l-33 38 29 23
c35 28 31 28 99 1z m-890 -24 c66 -50 54 -74 -37 -74 -51 0 -59 3 -83 31 -34
42 -20 54 78 68 5 0 23 -10 42 -25z m442 -16 c29 -24 52 -46 52 -49 2 -15 -61
-32 -78 -22 -25 15 -82 94 -75 104 12 20 53 7 101 -33z m-946 15 c21 -4 38
-18 55 -44 13 -21 24 -41 24 -44 0 -9 -107 -5 -138 6 -17 6 -48 31 -68 56
l-38 46 67 -7 c37 -4 81 -9 98 -13z m825 -19 c9 -20 25 -50 36 -65 25 -34 21
-40 -24 -42 -33 -2 -33 -2 -41 55 -14 88 2 116 29 52z m-526 -10 c22 -20 40
-41 40 -46 0 -5 -30 -9 -67 -8 -38 1 -77 -2 -88 -5 -15 -4 -30 5 -59 34 -42
43 -40 46 19 54 92 12 114 8 155 -29z m971 -54 l24 -19 -30 -11 c-63 -24 -82
-23 -119 5 -41 31 -36 49 18 64 32 8 54 0 107 -39z m314 33 l49 -16 -39 -34
c-22 -18 -50 -36 -64 -40 -29 -7 -133 26 -128 41 4 14 97 65 118 66 8 0 37 -7
64 -17z m183 -30 c2 -7 -5 -16 -15 -20 -10 -3 -32 -21 -49 -40 -23 -24 -40
-33 -64 -33 -42 0 -36 15 29 68 52 42 90 52 99 25z m-2121 -38 c12 -22 23 -43
23 -47 0 -15 -20 -8 -37 12 -10 11 -32 25 -51 31 -32 11 -33 12 -16 30 26 29
55 20 81 -26z m144 6 c67 -18 131 -58 150 -94 15 -26 -1 -40 -32 -29 -13 5
-45 12 -71 16 -51 8 -121 62 -133 104 -8 27 -1 27 86 3z m839 -3 c0 -20 -38
-78 -51 -78 -6 0 -23 8 -37 18 -15 9 -35 22 -45 27 -42 23 -5 41 91 44 28 1
42 -3 42 -11z m450 -10 c46 -31 47 -42 5 -68 l-37 -23 -39 39 c-21 21 -39 41
-39 45 0 7 46 27 66 28 6 1 26 -9 44 -21z m-632 -40 l55 -43 -39 -12 c-21 -6
-68 -12 -103 -12 -63 -1 -65 0 -103 41 -21 23 -36 43 -34 45 3 4 110 19 150
22 11 0 44 -18 74 -41z m956 -4 l47 -26 -32 -20 c-38 -23 -74 -19 -125 13 -41
25 -42 34 -6 54 32 18 53 14 116 -21z m-1219 -14 c21 -22 36 -42 33 -45 -2 -3
-30 -10 -61 -15 -44 -9 -63 -8 -89 3 -42 18 -102 73 -93 87 3 5 43 10 89 10
l82 0 39 -40z m763 1 c57 -42 59 -49 17 -67 -36 -15 -38 -14 -62 8 -41 38 -48
59 -27 75 24 18 25 17 72 -16z m806 5 c-6 -16 -24 -23 -24 -8 0 10 22 33 27
28 2 -2 1 -11 -3 -20z m-897 -46 c12 -27 18 -52 13 -55 -17 -11 -40 8 -40 34
0 14 -3 36 -6 49 -11 41 11 22 33 -28z m-1209 18 c45 -16 74 -34 100 -63 31
-34 34 -40 18 -43 -10 -2 -23 1 -29 7 -6 6 -25 11 -43 11 -17 0 -37 7 -44 15
-7 8 -18 15 -25 15 -21 0 -65 41 -65 61 0 24 11 24 88 -3z m1595 -29 c31 -17
57 -34 57 -38 0 -8 -77 -41 -96 -41 -6 0 -30 13 -52 30 -44 32 -46 50 -9 68
33 16 38 15 100 -19z m339 -7 c13 -13 -30 -62 -54 -62 -22 0 -78 30 -78 42 0
4 12 14 28 23 27 15 87 14 104 -3z m-1634 -34 c52 -8 70 -17 110 -53 26 -24
45 -45 42 -48 -3 -3 -30 -1 -60 4 -30 4 -82 12 -114 17 -52 8 -64 14 -93 48
-52 62 -56 60 115 32z m612 17 c0 -16 -51 -103 -70 -120 -20 -18 -36 -20 -149
-20 l-127 0 -42 33 c-23 19 -47 43 -53 53 -9 18 -5 19 82 19 73 0 96 -4 117
-19 28 -19 127 -71 137 -71 3 0 5 7 5 15 0 8 -4 15 -8 15 -5 0 -23 13 -42 30
-36 33 -39 30 55 53 67 16 95 20 95 12z m529 -29 c52 -27 56 -41 18 -70 -19
-14 -38 -26 -43 -26 -16 0 -84 61 -84 75 0 33 62 45 109 21z m315 -39 c21 -12
39 -26 39 -32 -1 -5 -20 -20 -44 -33 l-42 -22 -41 24 c-22 13 -41 28 -43 32
-3 9 64 53 82 53 6 1 28 -9 49 -22z m-439 -30 l49 -44 -39 -6 c-41 -7 -51 -2
-110 47 l-30 25 25 10 c42 16 54 13 105 -32z m-1101 -56 c43 -27 104 -91 85
-91 -7 0 -45 14 -84 30 -38 17 -83 30 -101 30 -33 0 -44 10 -86 76 l-27 41 91
-33 c50 -19 105 -43 122 -53z m-269 54 c0 -10 -5 -20 -11 -22 -13 -4 -27 24
-18 38 9 15 29 4 29 -16z m1988 -47 c34 -13 34 -18 -2 -52 -33 -31 -52 -31
-124 -1 -34 14 -37 18 -25 32 33 40 85 47 151 21z m-325 -8 c17 -11 32 -24 32
-28 0 -5 -18 -17 -40 -27 -44 -20 -58 -16 -116 30 l-29 24 25 10 c40 16 93 12
128 -9z m-1176 -15 c32 -4 60 -11 63 -16 4 -5 15 -9 27 -9 11 0 45 -14 74 -31
62 -35 99 -36 98 -1 -1 24 32 39 62 28 14 -5 10 -13 -22 -41 -43 -37 -57 -45
-125 -67 -42 -15 -50 -14 -96 1 -62 21 -137 69 -183 116 l-35 37 40 -5 c22 -3
66 -9 97 -12z m1025 -47 c43 -29 45 -32 28 -45 -29 -20 -57 -16 -108 17 -50
31 -58 46 -29 53 41 11 66 5 109 -25z m-1347 -70 c84 -77 87 -102 6 -54 -42
24 -116 100 -116 118 0 23 37 1 110 -64z m1647 46 l58 -25 -40 -25 c-48 -29
-65 -30 -113 -4 -70 37 -71 37 -22 59 56 26 48 26 117 -5z m-429 -20 c45 -38
50 -49 27 -58 -17 -6 -49 24 -71 67 -20 37 -6 34 44 -9z m-978 -58 c69 -22
124 -45 124 -51 -1 -5 -23 -17 -49 -26 -69 -24 -125 -4 -207 73 l-63 59 35 -7
c19 -3 91 -25 160 -48z m1275 -16 l29 -19 -27 -10 c-17 -7 -35 -7 -49 -1 -26
11 -58 34 -58 43 0 9 33 15 55 10 11 -3 33 -13 50 -23z"/>
<path d="M1427 12163 c-27 -43 -56 -268 -42 -319 8 -29 8 -29 16 11 4 22 8 65
8 96 1 31 8 91 17 134 14 69 15 100 1 78z"/>
<path d="M1803 11988 c-20 -10 -32 -28 -19 -28 16 0 56 21 56 30 0 12 -8 12
-37 -2z"/>
<path d="M2166 11765 c-25 -23 -34 -45 -18 -45 4 0 23 16 42 35 40 41 19 50
-24 10z"/>
<path d="M2676 11449 c-26 -21 -34 -39 -16 -39 5 0 24 13 42 30 39 35 17 43
-26 9z"/>
<path d="M2092 11149 c-53 -23 -102 -57 -102 -70 0 -21 52 -6 109 32 33 22 63
45 66 50 10 15 -27 9 -73 -12z"/>
<path d="M2657 10986 c-69 -29 -74 -33 -60 -47 15 -15 94 15 124 47 29 31 12
31 -64 0z"/>
<path d="M1006 10884 c-28 -16 -83 -15 -118 0 -26 12 -23 -16 5 -42 13 -12 32
-22 43 -22 23 0 114 56 114 70 0 13 -10 12 -44 -6z"/>
<path d="M2638 10565 c-3 -3 -32 -9 -64 -13 -50 -6 -59 -10 -59 -27 0 -39 100
-26 152 20 l28 24 -26 1 c-14 0 -28 -2 -31 -5z"/>
<path d="M2046 10482 c-4 -8 -12 -84 -17 -170 -6 -86 -14 -188 -18 -227 -10
-81 1 -106 24 -51 37 87 47 505 11 448z"/>
<path d="M2367 9745 c-3 -16 -9 -50 -12 -75 -3 -25 -15 -91 -27 -148 -11 -56
-18 -106 -14 -109 31 -31 89 233 70 318 -10 43 -10 44 -17 14z"/>
<path d="M3030 9665 c-14 -8 -30 -14 -37 -15 -7 0 -38 -9 -69 -21 -40 -15 -53
-24 -45 -32 16 -16 99 6 149 39 57 37 58 61 2 29z"/>
<path d="M1296 9437 c-54 -46 -44 -68 12 -25 23 18 42 38 42 45 0 20 -12 16
-54 -20z"/>
<path d="M3790 8933 c-19 -8 -30 -17 -23 -20 11 -4 73 23 73 32 0 8 -13 5 -50
-12z"/>
<path d="M2772 8721 c-17 -49 -16 -131 2 -131 20 0 31 78 19 127 l-9 38 -12
-34z"/>
<path d="M2650 8611 c0 -5 5 -13 10 -16 6 -3 10 -2 10 4 0 5 -4 13 -10 16 -5
3 -10 2 -10 -4z"/>
<path d="M3678 8570 c-78 -8 -88 -14 -65 -37 14 -14 23 -15 69 -4 29 6 64 20
78 31 29 22 32 22 -82 10z"/>
<path d="M3099 8405 c-4 -5 -10 -28 -13 -50 -4 -22 -16 -69 -27 -104 -10 -35
-19 -75 -19 -90 1 -24 2 -25 14 -8 20 26 58 188 54 228 -2 19 -6 30 -9 24z"/>
<path d="M1714 8205 c-12 -33 -14 -49 -6 -57 13 -13 42 39 42 77 0 39 -17 30
-36 -20z"/>
<path d="M8870 8190 c-73 -39 -129 -84 -118 -95 4 -5 178 103 203 126 20 19
-12 7 -85 -31z"/>
<path d="M9000 8026 c0 -17 47 -52 57 -43 7 8 -14 35 -39 48 -14 7 -18 6 -18
-5z"/>
<path d="M8950 7600 c0 -13 49 -44 57 -36 9 8 -27 46 -44 46 -7 0 -13 -4 -13
-10z"/>
<path d="M8965 7121 c-3 -6 0 -13 7 -15 7 -2 34 -12 59 -21 66 -24 97 -16 44
12 -52 27 -101 37 -110 24z"/>
<path d="M8180 6903 c-128 -70 -177 -103 -154 -103 18 0 135 50 163 69 14 10
47 30 72 44 49 28 75 53 62 59 -4 3 -69 -29 -143 -69z"/>
<path d="M8651 6922 c-46 -14 -36 -32 16 -32 27 0 70 -7 96 -16 66 -22 80 -12
27 19 -50 28 -102 39 -139 29z"/>
<path d="M7006 6631 c-4 -6 2 -14 12 -20 23 -12 197 0 197 14 0 13 -201 19
-209 6z"/>
<path d="M8120 6449 c-19 -12 -62 -43 -95 -69 -33 -26 -99 -73 -147 -104 -129
-83 -115 -103 21 -29 90 48 251 172 275 212 11 18 -16 13 -54 -10z"/>
<path d="M7151 6321 c-20 -13 0 -21 75 -28 61 -6 66 -5 62 13 -3 16 -13 19
-63 22 -33 1 -66 -2 -74 -7z"/>
<path d="M8450 5832 c0 -20 96 -80 108 -68 8 8 -28 46 -60 62 -31 16 -48 18
-48 6z"/>
<path d="M3405 8070 c-5 -8 -11 -56 -13 -105 -4 -75 -1 -93 12 -104 9 -8 19
-11 22 -8 3 3 2 56 -3 119 -5 79 -11 108 -18 98z"/>
<path d="M3485 7576 c-36 -39 -39 -64 -4 -46 20 12 54 68 45 77 -3 4 -22 -11
-41 -31z"/>
<path d="M2400 5262 c19 -15 53 -44 76 -64 37 -34 84 -51 84 -30 0 16 -66 69
-117 95 -67 34 -88 34 -43 -1z"/>
<path d="M874 4546 c14 -11 41 -16 85 -16 87 0 68 17 -29 25 -69 6 -73 5 -56
-9z"/>
<path d="M1076 4151 c5 -6 39 -15 76 -21 37 -5 79 -15 93 -20 15 -6 36 -10 47
-10 36 0 1 28 -55 45 -56 17 -177 21 -161 6z"/>
<path d="M670 4063 c0 -17 194 -63 207 -49 14 14 -17 28 -78 36 -35 5 -79 12
-96 15 -20 5 -33 4 -33 -2z"/>
<path d="M1235 3467 c-11 -7 -46 -21 -77 -31 -66 -19 -79 -41 -20 -34 50 7
154 50 160 66 5 16 -38 16 -63 -1z"/>
<path d="M617 3283 c-17 -16 -1 -21 93 -33 100 -12 118 -11 106 9 -13 21 -182
42 -199 24z"/>
<path d="M445 3121 c-10 -16 15 -23 43 -12 15 5 38 12 52 14 14 2 -1 5 -32 6
-31 0 -59 -3 -63 -8z"/>
<path d="M3979 3931 c25 -35 64 -61 91 -61 33 0 23 16 -34 54 -66 44 -84 46
-57 7z"/>
<path d="M6188 3457 c-26 -33 -48 -71 -48 -81 0 -3 7 -6 14 -6 17 0 60 54 70
87 11 35 -10 35 -36 0z"/>
<path d="M6170 10283 c-80 -88 -126 -175 -77 -146 26 15 157 186 157 205 0 20
-23 3 -80 -59z"/>
<path d="M6056 9613 c-124 -131 -159 -183 -123 -183 23 0 184 175 197 214 6
21 10 40 7 43 -3 3 -40 -30 -81 -74z"/>
<path d="M4711 9549 c-38 -22 -50 -34 -42 -42 20 -20 111 34 111 67 0 11 -15
6 -69 -25z"/>
<path d="M5962 9327 c-31 -32 -41 -57 -23 -57 11 0 71 70 71 82 0 16 -17 7
-48 -25z"/>
<path d="M6820 9252 c0 -20 32 -34 81 -36 54 -1 79 17 37 27 -58 14 -118 19
-118 9z"/>
<path d="M5866 8489 c-36 -54 -47 -94 -23 -87 22 8 81 118 69 130 -7 7 -21 -6
-46 -43z"/>
<path d="M6077 8243 c-20 -19 25 -43 81 -42 l37 0 -49 25 c-54 26 -59 27 -69
17z"/>
<path d="M5523 7865 c4 -9 7 -20 7 -25 0 -24 112 -111 125 -98 2 2 -28 35 -67
72 -39 38 -68 61 -65 51z"/>
<path d="M5907 7730 c-30 -24 -72 -88 -63 -97 8 -8 39 21 72 68 31 46 28 58
-9 29z"/>
<path d="M6076 7501 c-9 -14 19 -31 58 -38 47 -7 48 13 1 33 -40 16 -52 17
-59 5z"/>
<path d="M6180 6850 c-28 -19 17 -40 84 -40 66 0 67 8 3 26 -23 6 -49 14 -57
17 -8 4 -22 2 -30 -3z"/>
<path d="M6057 6588 c-59 -50 -106 -93 -103 -96 7 -6 46 19 128 85 60 47 96
89 86 98 -2 2 -52 -38 -111 -87z"/>
<path d="M3804 6235 c11 -8 25 -15 30 -15 6 0 2 7 -8 15 -11 8 -25 15 -30 15
-6 0 -2 -7 8 -15z"/>
<path d="M3486 5072 c-2 -4 -5 -97 -5 -207 -1 -160 -5 -216 -20 -280 -11 -44
-22 -114 -26 -155 -7 -84 -124 -631 -156 -727 -32 -98 -18 -110 24 -22 28 59
97 275 97 305 0 3 5 2 10 -1 6 -3 10 -22 10 -42 0 -30 2 -34 15 -23 19 16 19
48 0 115 -15 50 -14 58 10 170 32 150 37 159 58 103 10 -24 17 -58 17 -76 0
-18 5 -32 10 -32 20 0 10 107 -16 176 -22 58 -24 77 -19 128 4 33 13 78 20
101 12 36 14 38 20 18 4 -13 11 -23 16 -23 19 0 22 34 6 62 -14 25 -17 59 -17
204 0 102 -4 183 -10 195 -11 19 -35 26 -44 11z"/>
<path d="M2102 4001 c4 -73 13 -95 28 -71 13 20 12 70 -1 109 -19 54 -32 36
-27 -38z"/>
<path d="M2370 3114 c0 -19 24 -84 32 -84 11 0 10 21 -3 59 -9 27 -29 44 -29
25z"/>
<path d="M1513 2346 c-42 -49 -219 -166 -250 -166 -10 0 -34 -11 -53 -25 -18
-13 -37 -22 -42 -19 -5 3 -6 36 -2 75 4 38 3 69 0 69 -23 0 -66 -36 -119 -100
-15 -18 -27 -21 -77 -19 -52 2 -62 -1 -80 -22 -42 -49 -42 -52 12 -82 l49 -28
69 67 c38 36 74 63 80 59 6 -4 9 -29 8 -58 -3 -51 -2 -52 26 -55 19 -3 42 6
70 26 22 16 52 33 66 37 14 4 34 15 45 25 11 10 40 27 65 38 25 11 63 34 84
51 22 17 42 29 45 25 3 -3 11 -24 16 -47 9 -35 15 -43 38 -45 22 -3 36 5 61
32 21 24 41 36 58 36 60 0 70 17 41 69 -21 36 -52 48 -83 31 -24 -13 -41 0
-39 30 4 57 -36 56 -88 -4z"/>
<path d="M6467 28 c-15 -5 -25 -14 -21 -19 9 -15 30 -10 55 11 27 22 13 25
-34 8z"/>
</g>
</svg>
